{
.formatVersion = 3;
axes = (
{
name = Weight;
tag = wght;
}
);
classes = (
{
code = "A B C D E F G H I J K L M N O P Q R S T U V W X Y Z Adieresis Eacute Odieresis Udieresis Ocircumflex Ccedilla Agrave OE Acircumflex Ecircumflex Edieresis Egrave Icircumflex Idieresis Ucircumflex Ugrave E_S A_E A_O C_H C_Q F_V L_E L_U N_N R_S U_L X_C X_S";
name = liga_rlig;
}
);
familyName = Banana;
customParameters = (
{
name = glyphOrder;
value = (
.notdef,
A,
B,
C,
D,
E,
F,
I,
G,
H,
J,
K,
L,
M,
N,
O,
P,
Q,
R,
S,
T,
U,
V,
W,
X,
Y,
Z,
space,
registered,
two,
a,
b,
c,
d,
e,
f,
g,
h,
i,
j,
k,
l,
m,
n,
o,
p,
q,
r,
s,
t,
u,
v,
w,
x,
y,
z,
zero,
one,
three,
four,
five,
six,
seven,
eight,
nine,
Agrave,
Aacute,
Acircumflex,
Atilde,
Adieresis,
Aring,
AE,
Ccedilla,
Egrave,
Eacute,
Ecircumflex,
Edieresis,
Igrave,
Iacute,
Icircumflex,
Idieresis,
Eth,
Ntilde,
Ograve,
Oacute,
Ocircumflex,
Otilde,
Odieresis,
Oslash,
Ugrave,
Uacute,
Ucircumflex,
Udieresis,
Yacute,
Thorn,
agrave,
aacute,
acircumflex,
atilde,
adieresis,
aring,
ae,
ccedilla,
egrave,
eacute,
ecircumflex,
edieresis,
igrave,
iacute,
icircumflex,
idieresis,
ntilde,
ograve,
oacute,
ocircumflex,
otilde,
odieresis,
oslash,
ugrave,
uacute,
ucircumflex,
udieresis,
yacute,
thorn,
ydieresis,
exclam,
question,
comma,
semicolon,
period,
colon,
slash,
equal,
plus,
parenright,
parenleft,
hyphen,
grave,
cedilla,
acute,
dieresis,
circumflex,
dotlessi,
quotesingle,
tilde,
guillemotleft,
guillemotright,
guilsinglright,
guilsinglleft,
ellipsis,
Ydieresis,
backslash,
periodcentered,
bullet,
Euro,
at,
euro_banana,
utilde,
Utilde,
Scircumflex,
scircumflex,
sacute,
Sacute,
oe,
OE,
Racute,
racute,
nacute,
Nacute,
Jcircumflex,
jcircumflex,
Lacute,
lacute,
Hcircumflex,
hcircumflex,
Gcircumflex,
gcircumflex,
Ccircumflex,
ccircumflex,
cacute,
Cacute,
Ycircumflex,
ycircumflex,
wcircumflex,
Wcircumflex,
wacute,
Wacute,
Wdieresis,
wdieresis,
wgrave,
Wgrave,
underscore,
divide,
less,
greater,
exclamdown,
questiondown,
caron,
Zcaron,
scaron,
Scaron,
zcaron,

glyphs = (
{
glyphname = A;
layers = (
{
layerId = "0F7E5E12-47E7-4249-B9AE-11F637CCDB2F";
shapes = (
{
closed = 1;
nodes = (
(33.939,-5.929,o),
(30.859,-6.727,o),
(28.488,-5.333,cs),
(26.118,-3.939,o),
(25.319,-0.859,o),
(26.714,1.512,cs),
(36.873,18.783,o),
(45.94,35.923,o),
(52.988,54.049,c),
(111.002,194.504,o),
(79.082,351.591,o),
(105.919,503.322,cs),
(125.413,612.08,o),
(183.531,719.263,o),
(296.058,719.263,cs),
(408.569,719.263,o),
(467.723,612.117,o),
(486.202,503.294,cs),
(512.795,352.942,o),
(482.329,194.016,o),
(539.134,54.034,cs),
(546.246,35.745,o),
(555.34,18.618,o),
(565.403,1.512,cs),
(566.797,-0.859,o),
(565.998,-3.939,o),
(563.628,-5.333,cs),
(561.258,-6.727,o),
(558.178,-5.929,o),
(556.783,-3.558,cs),
(546.477,13.962,o),
(537.123,31.616,o),
(529.841,50.342,cs),
(472.033,192.797,o),
(502.969,351.079,o),
(476.346,501.603,cs),
(457.989,609.703,o),
(400.487,709.263,o),
(296.058,709.263,cs),
(191.645,709.263,o),
(135.153,609.74,o),
(115.764,501.564,cs),
(89.388,352.439,o),
(120.912,192.304,o),
(62.27,50.328,c),
(55.091,31.868,o),
(45.846,14.314,o),
(35.333,-3.558,cs)
);
},
{
closed = 1;
nodes = (
(534.487,289.477,ls),
(537.237,289.477,o),
(539.487,287.227,o),
(539.487,284.477,cs),
(539.487,281.727,o),
(537.237,279.477,o),
(534.487,279.477,cs),
(57.629,279.477,ls),
(54.879,279.477,o),
(52.629,281.727,o),
(52.629,284.477,cs),
(52.629,287.227,o),
(54.879,289.477,o),
(57.629,289.477,cs)
);
}
);
width = 592;
},
{
layerId = "584B1CA6-921E-4923-A283-D75AE04BC333";
shapes = (
{
closed = 1;
nodes = (
(36.662,-57.06,o),
(20.945,-54.511,o),
(11.975,-33.406,cs),
(3.005,-12.3,o),
(4.279,19.134,o),
(14.832,37.074,cs),
(24.461,53.443,o),
(32.22,68.274,o),
(38.125,83.459,c),
(92.28,214.57,o),
(57.041,348.196,o),
(87.307,519.313,cs),
(110.807,650.422,o),
(178.584,764.263,o),
(296.058,764.263,cs),
(413.23,764.263,o),
(482.48,650.826,o),
(504.895,518.817,cs),
(535.008,348.565,o),
(500.829,214.465,o),
(554.06,83.291,cs),
(560.259,67.35,o),
(567.86,53.094,o),
(577.284,37.074,cs),
(587.837,19.134,o),
(589.111,-12.3,o),
(580.142,-33.406,cs),
(571.172,-54.511,o),
(555.455,-57.06,o),
(544.902,-39.12,cs),
(534.066,-20.699,o),
(523.396,-0.724,o),
(514.914,21.086,cs),
(453.615,172.143,o),
(480.983,354.17,o),
(457.603,486.361,cs),
(443.232,570.994,o),
(395.826,664.263,o),
(296.058,664.263,cs),
(196.592,664.263,o),
(149.759,571.398,o),
(134.392,485.666,cs),
(111.195,354.515,o),
(139.556,172.048,o),
(77.133,20.918,c),
(69.279,0.722,o),
(58.778,-19.462,o),
(47.215,-39.12,cs)
);
},
{
closed = 1;
nodes = (
(534.487,334.477,ls),
(548.337,334.477,o),
(559.487,312.177,o),
(559.487,284.477,cs),
(559.487,256.777,o),
(548.337,234.477,o),
(534.487,234.477,cs),
(57.629,234.477,ls),
(43.779,234.477,o),
(32.629,256.777,o),
(32.629,284.477,cs),
(32.629,312.177,o),
(43.779,334.477,o),
(57.629,334.477,cs)
);
}
);
width = 592;
}
);
unicode = 65;
},
{
glyphname = B;
layers = (
{
layerId = "0F7E5E12-47E7-4249-B9AE-11F637CCDB2F";
shapes = (
{
closed = 1;
nodes = (
(5.484,617.523,o),
(135.791,725.256,o),
(264.76,725.256,cs),
(339.351,725.256,o),
(412.947,689.488,o),
(456.121,606.378,cs),
(538.144,444.49,o),
(397.2,292.802,o),
(249.876,294.969,cs),
(195.717,296.052,o),
(141.637,317.751,o),
(96.369,366.252,cs),
(95.862,366.795,o),
(95.024,368.922,o),
(95.024,369.664,cs),
(95.024,372.832,ls),
(95.024,373.508,o),
(95.805,375.599,o),
(96.248,376.109,cs),
(145.817,433.222,o),
(209.498,458.065,o),
(272.077,459.143,cs),
(416.036,461.292,o),
(557.586,335.56,o),
(528.407,173.454,cs),
(507.662,53.132,o),
(402.916,-25,o),
(294.328,-25,cs),
(193.326,-25,o),
(79.899,39.055,o),
(43.464,169.794,cs),
(42.72,172.462,o),
(44.269,175.209,o),
(46.938,175.952,cs),
(49.606,176.696,o),
(52.353,175.147,o),
(53.096,172.478,cs),
(88.188,46.561,o),
(197.274,-15,o),
(294.328,-15,cs),
(398.219,-15,o),
(498.662,59.786,o),
(518.556,175.172,cs),
(546.458,330.185,o),
(410.783,451.213,o),
(272.232,449.145,cs),
(183.535,447.615,o),
(128.718,398.241,o),
(105.347,371.313,c),
(117.052,358.772,o),
(174.82,306.472,o),
(250.063,304.967,cs),
(389.984,302.91,o),
(525.712,446.902,o),
(447.223,601.814,cs),
(405.886,681.389,o),
(335.812,715.256,o),
(264.76,715.256,cs),
(141.304,715.256,o),
(16.923,612.752,o),
(53.14,462.709,cs),
(53.79,460.016,o),
(52.146,457.325,o),
(49.453,456.675,cs),
(46.76,456.025,o),
(44.069,457.67,o),
(43.42,460.363,cs)
);
},
{
closed = 1;
nodes = (
(40.487,47.825,o),
(43.398,49.038,o),
(45.96,47.983,cs),
(48.521,46.929,o),
(49.734,44.018,o),
(48.68,41.456,cs),
(45.446,33.604,o),
(47.721,23.241,o),
(54.084,15.318,cs),
(59.088,9.088,o),
(66.093,5.064,o),
(73.624,5.064,cs),
(80.632,5.064,o),
(87.184,9.042,o),
(91.743,15.308,cs),
(97.432,23.125,o),
(99.206,33.357,o),
(95.5,41.231,c),
(95.388,41.469,o),
(95.024,43.097,o),
(95.024,43.36,c),
(95.024,651.616,ls),
(95.024,654.386,o),
(97.254,656.616,o),
(100.024,656.616,cs),
(102.794,656.616,o),
(105.024,654.386,o),
(105.024,651.616,cs),
(105.08,44.289,l),
(109.96,32.597,o),
(106.873,19.104,o),
(99.829,9.424,cs),
(93.878,1.246,o),
(84.581,-4.936,o),
(73.624,-4.936,cs),
(62.4,-4.936,o),
(52.732,1.033,o),
(46.288,9.057,cs),
(38.315,18.984,o),
(34.446,33.154,o),
(39.433,45.264,cs)
);
}
);
width = 559;
},
{
layerId = "584B1CA6-921E-4923-A283-D75AE04BC333";
shapes = (
{
closed = 1;
nodes = (
(-19.639,627.904,o),
(107.086,770.256,o),
(264.76,770.256,cs),
(340.092,770.256,o),
(419.862,734.727,o),
(469.12,639.903,cs),
(563.916,452.807,o),
(433.103,247.274,o),
(249.759,249.97,cs),
(192.214,251.121,o),
(129.336,274.324,o),
(75.023,340.707,c),
(75.023,400.748,l),
(150.869,500.245,o),
(245.296,503.683,o),
(271.951,504.142,cs),
(433.965,506.56,o),
(583.099,357.915,o),
(547.058,157.686,cs),
(522.009,12.402,o),
(407.69,-70,o),
(294.328,-70,cs),
(190.746,-70,o),
(68.633,-4.593,o),
(26.443,146.793,cs),
(19.7,170.989,o),
(24.011,201.324,o),
(36.108,214.81,cs),
(48.206,228.296,o),
(63.374,219.674,o),
(70.117,195.479,cs),
(99.046,91.674,o),
(198.287,30,o),
(294.328,30,cs),
(394.737,30,o),
(484.626,102.321,o),
(499.902,190.922,cs),
(519.221,298.252,o),
(400.725,406.062,o),
(272.353,404.146,cs),
(234.146,403.487,o),
(195.528,393.176,o),
(163.586,373.016,c),
(177.742,365.098,o),
(211.834,350.733,o),
(250.193,349.966,cs),
(344.318,348.582,o),
(498.16,442.099,o),
(434.223,568.29,cs),
(399.015,636.066,o),
(335.095,670.256,o),
(264.76,670.256,cs),
(159.571,670.256,o),
(45.675,587.338,o),
(70.794,483.273,cs),
(76.815,458.328,o),
(71.621,428.551,o),
(59.149,416.508,cs),
(46.676,404.466,o),
(31.787,414.853,o),
(25.766,439.799,cs)
);
},
{
closed = 1;
nodes = (
(33.562,96.528,o),
(49.257,99.566,o),
(59.949,81.957,cs),
(65.315,73.117,o),
(68.257,60.889,o),
(68.736,50.974,c),
(69.389,50.696,o),
(71.207,50.064,o),
(73.624,50.064,cs),
(74.551,50.064,o),
(74.984,50.15,o),
(75.023,50.159,c),
(75.024,651.616,ls),
(75.024,679.316,o),
(86.174,701.616,o),
(100.024,701.616,cs),
(113.874,701.616,o),
(125.024,679.316,o),
(125.024,651.616,cs),
(125.098,56.324,l),
(133.672,13.816,o),
(118.152,-17.563,o),
(109.944,-28.843,cs),
(99.64,-43.004,o),
(86.41,-49.936,o),
(73.624,-49.936,cs),
(59.855,-49.936,o),
(46.903,-42.622,o),
(36.974,-30.259,cs),
(24.727,-15.011,o),
(4.219,25.266,o),
(24.758,75.145,cs)
);
}
);
width = 559;
}
);
unicode = 66;
},
{
glyphname = C;
layers = (
{
layerId = "0F7E5E12-47E7-4249-B9AE-11F637CCDB2F";
shapes = (
{
closed = 1;
nodes = (
(524.048,606.054,o),
(523.551,602.94,o),
(521.309,601.314,cs),
(519.066,599.688,o),
(515.952,600.185,o),
(514.326,602.427,cs),
(465.521,669.749,o),
(397.157,712.84,o),
(313.161,712.84,cs),
(146.454,712.84,o),
(36.12,540.089,o),
(36.12,350.971,cs),
(36.12,160.793,o),
(146.462,-11.949,o),
(313.161,-11.949,cs),
(397.157,-11.949,o),
(465.521,31.142,o),
(514.326,98.464,cs),
(515.952,100.707,o),
(519.066,101.204,o),
(521.309,99.578,cs),
(523.551,97.952,o),
(524.048,94.838,o),
(522.422,92.595,cs),
(472.159,23.261,o),
(401.019,-21.949,o),
(313.161,-21.949,cs),
(138.176,-21.949,o),
(26.12,158.513,o),
(26.12,350.971,cs),
(26.12,542.387,o),
(138.184,722.84,o),
(313.161,722.84,cs),
(401.019,722.84,o),
(472.159,677.631,o),
(522.422,608.297,cs)
);
}
);
width = 559;
},
{
layerId = "584B1CA6-921E-4923-A283-D75AE04BC333";
shapes = (
{
closed = 1;
nodes = (
(543.969,630.795,o),
(546.817,599.776,o),
(538.954,576.974,cs),
(531.09,554.171,o),
(515.581,548.475,o),
(504.18,564.202,cs),
(459.494,625.843,o),
(394.904,667.84,o),
(313.161,667.84,cs),
(146.885,667.84,o),
(56.12,498.213,o),
(56.12,350.971,cs),
(56.12,202.61,o),
(146.935,33.051,o),
(313.161,33.051,cs),
(394.904,33.051,o),
(459.494,75.049,o),
(504.18,136.689,cs),
(515.581,152.416,o),
(531.09,146.72,o),
(538.954,123.918,cs),
(546.817,101.115,o),
(543.969,70.097,o),
(532.568,54.37,cs),
(478.186,-20.645,o),
(403.272,-66.949,o),
(313.161,-66.949,cs),
(137.703,-66.949,o),
(6.12,116.696,o),
(6.12,350.971,cs),
(6.12,584.263,o),
(137.753,767.84,o),
(313.161,767.84,cs),
(403.272,767.84,o),
(478.186,721.537,o),
(532.568,646.522,cs)
);
}
);
width = 559;
}
);
unicode = 67;
},
{
glyphname = D;
leftMetricsKey = B;
layers = (
{
layerId = "0F7E5E12-47E7-4249-B9AE-11F637CCDB2F";
shapes = (
{
closed = 1;
nodes = (
(46.495,47.516,o),
(49.424,48.687,o),
(51.97,47.596,cs),
(54.516,46.504,o),
(55.687,43.576,o),
(54.596,41.03,cs),
(50.785,32.138,o),
(51.829,22.96,o),
(56.108,15.988,cs),
(60.454,8.906,o),
(68.188,4,o),
(78,4,cs),
(87.331,4,o),
(95.173,8.945,o),
(99.665,16.219,cs),
(103.989,23.222,o),
(105.147,32.298,o),
(101.404,41.03,c),
(101.316,41.236,o),
(101,42.777,o),
(101,43,c),
(101,690,ls),
(101,692.77,o),
(103.23,695,o),
(106,695,cs),
(108.77,695,o),
(111,692.77,o),
(111,690,cs),
(111.041,43.886,l),
(115.589,32.328,o),
(113.935,20.296,o),
(108.174,10.965,cs),
(102.01,0.984,o),
(91.076,-6,o),
(78,-6,cs),
(64.586,-6,o),
(53.683,0.821,o),
(47.585,10.757,cs),
(41.623,20.472,o),
(40.304,33.068,o),
(45.404,44.97,cs)
);
},
{
closed = 1;
nodes = (
(4.34,569.19,o),
(132.985,724,o),
(308,724,cs),
(487.054,724,o),
(597.987,545.261,o),
(600,359.053,cs),
(602.015,169.654,o),
(525.241,29.916,o),
(360.213,-11.851,cs),
(270.86,-34.189,o),
(158.943,-9.014,o),
(102.465,47.464,cs),
(100.506,49.423,o),
(100.506,52.577,o),
(102.465,54.536,cs),
(104.423,56.494,o),
(107.577,56.494,o),
(109.536,54.536,cs),
(163.058,1.014,o),
(271.14,-23.811,o),
(357.774,-2.153,cs),
(516.76,38.084,o),
(591.986,172.346,o),
(590,358.946,cs),
(588.013,542.739,o),
(478.946,714,o),
(308,714,cs),
(139.015,714,o),
(15.66,564.81,o),
(53.864,404.157,cs),
(54.505,401.462,o),
(52.852,398.777,o),
(50.157,398.136,cs),
(47.462,397.495,o),
(44.777,399.149,o),
(44.136,401.843,cs)
);
}
);
width = 626;
},
{
layerId = "584B1CA6-921E-4923-A283-D75AE04BC333";
shapes = (
{
closed = 1;
nodes = (
(40.032,96.571,o),
(55.754,98.99,o),
(66.27,80.963,cs),
(71.546,71.919,o),
(74.38,59.573,o),
(74.777,49.275,c),
(75.164,49.194,o),
(76.218,49,o),
(78,49,cs),
(79.627,49,o),
(80.615,49.187,o),
(81,49.27,c),
(81,690,ls),
(81,717.7,o),
(92.15,740,o),
(106,740,cs),
(119.85,740,o),
(131,717.7,o),
(131,690,cs),
(131.002,56.24,l),
(138.663,19.933,o),
(128.786,-10.473,o),
(119.651,-25.266,cs),
(107.768,-44.51,o),
(91.326,-51,o),
(78,-51,cs),
(62.316,-51,o),
(46.942,-43.129,o),
(36.056,-25.391,cs),
(22.292,-2.964,o),
(15.635,39.645,o),
(31.019,75.54,cs)
);
},
{
closed = 1;
nodes = (
(-20.838,580.264,o),
(108.387,769,o),
(308,769,cs),
(487.386,769,o),
(617.535,587.548,o),
(619.994,360.064,cs),
(622.421,131.99,o),
(528.041,-14.617,o),
(362.101,-56.614,cs),
(271.309,-79.312,o),
(155.812,-54.713,o),
(94.82,6.279,cs),
(82.432,18.666,o),
(77.445,48.585,o),
(83.639,73.361,cs),
(89.833,98.136,o),
(104.793,108.109,o),
(117.18,95.721,cs),
(166.188,46.714,o),
(270.691,21.312,o),
(355.861,42.604,cs),
(513.96,82.617,o),
(571.579,210.01,o),
(570.006,357.919,cs),
(568.465,500.453,o),
(478.614,669,o),
(308,669,cs),
(158.547,669,o),
(43,544.644,o),
(71.577,424.475,cs),
(77.525,399.46,o),
(72.245,369.744,o),
(59.738,357.847,cs),
(47.23,345.949,o),
(32.372,356.51,o),
(26.423,381.525,cs)
);
}
);
width = 626;
}
);
unicode = 68;
},
{
glyphname = E;
layers = (
{
layerId = "0F7E5E12-47E7-4249-B9AE-11F637CCDB2F";
shapes = (
{
closed = 1;
nodes = (
(512.363,596.641,o),
(372.015,549.498,o),
(280.956,626.632,cs),
(242.504,658.674,o),
(221.245,709.53,o),
(172.079,709.53,cs),
(115.872,709.53,o),
(89.921,643.668,o),
(94.039,575.727,cs),
(102.32,410.113,o),
(188.714,249.856,o),
(148.936,86.554,c),
(141.522,52.661,o),
(124.149,17.843,o),
(89.838,12.124,cs),
(59.852,7.511,o),
(31.476,28.057,o),
(28.036,59.021,cs),
(14.153,167.104,o),
(141.771,141.256,o),
(308.745,29.522,cs),
(396.325,-28.865,o),
(522.374,11.42,o),
(557.615,111.101,cs),
(558.538,113.712,o),
(561.384,115.071,o),
(563.996,114.148,cs),
(566.607,113.225,o),
(567.966,110.379,o),
(567.043,107.767,cs),
(529.604,1.871,o),
(396.14,-40.76,o),
(303.191,21.207,cs),
(266.757,45.587,o),
(19.852,201.229,o),
(37.969,60.167,cs),
(40.756,35.087,o),
(63.994,18.266,o),
(88.225,21.993,cs),
(115.992,26.621,o),
(131.946,55.679,o),
(139.197,88.822,c),
(178.269,249.223,o),
(92.381,408.64,o),
(84.056,575.149,cs),
(79.908,643.583,o),
(106.724,719.53,o),
(172.079,719.53,cs),
(225.472,719.53,o),
(253.264,662.725,o),
(287.404,634.275,cs),
(372.718,562.009,o),
(504.34,606.105,o),
(530.481,715.69,cs),
(531.123,718.385,o),
(533.81,720.036,o),
(536.504,719.394,cs),
(539.199,718.751,o),
(540.85,716.064,o),
(540.208,713.37,cs)
);
},
{
closed = 1;
nodes = (
(77.63,371.175,ls),
(74.86,371.175,o),
(72.63,373.405,o),
(72.63,376.175,cs),
(72.63,378.945,o),
(74.86,381.175,o),
(77.63,381.175,cs),
(446.084,381.175,ls),
(448.854,381.175,o),
(451.084,378.945,o),
(451.084,376.175,cs),
(451.084,373.405,o),
(448.854,371.175,o),
(446.084,371.175,cs)
);
}
);
width = 604;
},
{
layerId = "584B1CA6-921E-4923-A283-D75AE04BC333";
shapes = (
{
closed = 1;
nodes = (
(521.685,541.146,o),
(365.812,507.005,o),
(274.489,584.362,cs),
(232.122,619.668,o),
(222.14,664.529,o),
(172.079,664.529,cs),
(122.481,664.529,o),
(112.009,612.083,o),
(113.865,581.467,c),
(113.894,580.946,l),
(121.761,423.607,o),
(212.455,254.322,o),
(166.744,66.668,c),
(166.959,67.597,l),
(156.038,17.668,o),
(131.471,-26.042,o),
(91.043,-32.78,cs),
(56.994,-38.018,o),
(15.849,-16.453,o),
(8.691,47.971,cs),
(-17.176,249.36,o),
(172.866,167.156,o),
(313.874,72.798,cs),
(400.46,15.074,o),
(515.275,62.944,o),
(541.916,138.3,cs),
(549.912,160.917,o),
(565.454,166.251,o),
(576.762,150.259,cs),
(588.071,134.266,o),
(590.738,103.184,o),
(582.742,80.566,cs),
(537.853,-46.403,o),
(395.119,-86.775,o),
(298.049,-22.062,cs),
(202.339,41.985,o),
(104.741,85.356,o),
(64.775,70.631,c),
(67.194,69.214,o),
(76.023,65.204,o),
(87.05,66.9,cs),
(109.672,70.671,o),
(118.17,94,o),
(121.366,108.608,c),
(154.041,242.75,o),
(72.766,398.621,o),
(64.199,569.955,cs),
(58.68,661.02,o),
(95.85,764.53,o),
(172.079,764.53,cs),
(230.842,764.53,o),
(263.493,701.858,o),
(293.855,676.557,cs),
(373.286,609.273,o),
(490.607,654.79,o),
(512.065,733.267,cs),
(512.78,736.059,ls),
(518.744,761.06,o),
(533.608,771.585,o),
(546.109,759.657,cs),
(558.609,747.73,o),
(563.871,718.001,o),
(557.908,693,cs)
);
},
{
closed = 1;
nodes = (
(77.63,326.175,ls),
(63.78,326.175,o),
(52.63,348.475,o),
(52.63,376.175,cs),
(52.63,403.875,o),
(63.78,426.175,o),
(77.63,426.175,cs),
(446.084,426.175,ls),
(459.934,426.175,o),
(471.084,403.875,o),
(471.084,376.175,cs),
(471.084,348.475,o),
(459.934,326.175,o),
(446.084,326.175,cs)
);
}
);
width = 604;
}
);
unicode = 69;
},
{
glyphname = F;
layers = (
{
layerId = "0F7E5E12-47E7-4249-B9AE-11F637CCDB2F";
shapes = (
{
closed = 1;
nodes = (
(115.173,48.993,o),
(118.243,49.715,o),
(120.598,48.257,cs),
(122.953,46.799,o),
(123.675,43.729,o),
(122.217,41.374,cs),
(115.945,31.243,o),
(117.911,20.424,o),
(123.796,13.451,cs),
(128.622,7.733,o),
(136.17,4.459,o),
(144.758,5.952,cs),
(161.796,8.792,o),
(167.752,29.993,o),
(169.291,44.614,c),
(194.693,226.497,o),
(34.995,385.388,o),
(55.685,571.606,cs),
(65.22,658.477,o),
(126.077,734.201,o),
(203.881,718.214,cs),
(254.225,708.573,o),
(284.003,657.505,o),
(319.422,631.406,c),
(409.73,567.894,o),
(534.849,609.56,o),
(568.618,714.837,cs),
(569.464,717.475,o),
(572.268,718.917,o),
(574.906,718.071,cs),
(577.544,717.225,o),
(578.986,714.42,o),
(578.14,711.783,cs),
(542.31,600.078,o),
(409.506,555.825,o),
(313.539,623.319,c),
(273.319,652.954,o),
(250.587,699.089,o),
(201.901,708.412,cs),
(131.773,722.822,o),
(74.74,653.555,o),
(65.625,570.508,cs),
(45.377,388.275,o),
(204.985,227.912,o),
(179.225,43.483,c),
(177.164,23.905,o),
(168.573,-0.216,o),
(146.453,-3.903,cs),
(134.113,-6.049,o),
(123.105,-1.234,o),
(116.154,7.001,cs),
(107.507,17.247,o),
(105.138,32.784,o),
(113.715,46.638,cs)
);
},
{
closed = 1;
nodes = (
(412.705,394.915,ls),
(415.475,394.915,o),
(417.705,392.685,o),
(417.705,389.915,cs),
(417.705,387.145,o),
(415.475,384.915,o),
(412.705,384.915,cs),
(40.187,384.915,ls),
(37.417,384.915,o),
(35.187,387.145,o),
(35.187,389.915,cs),
(35.187,392.685,o),
(37.417,394.915,o),
(40.187,394.915,cs)
);
}
);
width = 555;
},
{
layerId = "584B1CA6-921E-4923-A283-D75AE04BC333";
shapes = (
{
closed = 1;
nodes = (
(113.033,100.308,o),
(128.713,96.971,o),
(137.415,75.422,cs),
(141.092,66.317,o),
(142.684,55.792,o),
(142.739,50.753,c),
(143.476,50.843,l),
(148.195,51.629,o),
(149.635,54.06,o),
(149.793,54.337,c),
(149.982,55.883,ls),
(171.01,206.442,o),
(12.584,368.904,o),
(36.244,581.84,cs),
(49.413,701.833,o),
(130.161,778.521,o),
(205.377,763.065,cs),
(259.587,752.684,o),
(294.929,696.524,o),
(324.973,674.387,c),
(409.332,615.058,o),
(522.743,656.634,o),
(551.282,737.181,cs),
(552.337,740.308,ls),
(559.815,763.623,o),
(575.22,770.351,o),
(586.878,755.395,cs),
(598.535,740.438,o),
(601.9,709.627,o),
(594.421,686.312,cs),
(549.981,547.765,o),
(404.975,512.123,o),
(308.037,580.301,c),
(261.336,614.712,o),
(248.868,654.281,o),
(200.353,663.572,cs),
(131.987,677.62,o),
(90.389,608.764,o),
(85.067,560.273,cs),
(68.39,410.186,o),
(228.007,243.23,o),
(198.524,32.13,c),
(195.449,2.925,o),
(181.696,-43.134,o),
(147.718,-48.796,cs),
(133.045,-51.348,o),
(118.309,-45.915,o),
(107.233,-32.792,cs),
(90.087,-12.476,o),
(76.951,42.025,o),
(102.258,82.904,cs)
);
},
{
closed = 1;
nodes = (
(412.705,439.915,ls),
(426.555,439.915,o),
(437.705,417.615,o),
(437.705,389.915,cs),
(437.705,362.215,o),
(426.555,339.915,o),
(412.705,339.915,cs),
(40.187,339.915,ls),
(26.337,339.915,o),
(15.187,362.215,o),
(15.187,389.915,cs),
(15.187,417.615,o),
(26.337,439.915,o),
(40.187,439.915,cs)
);
}
);
width = 555;
}
);
unicode = 70;
},
{
glyphname = I;
layers = (
{
layerId = "0F7E5E12-47E7-4249-B9AE-11F637CCDB2F";
shapes = (
{
closed = 1;
nodes = (
(76.247,47.176,o),
(78.655,49.213,o),
(81.415,48.983,cs),
(84.176,48.753,o),
(86.213,46.345,o),
(85.983,43.585,cs),
(84.239,22.666,o),
(101.666,5.24,o),
(122.616,6.985,cs),
(144.909,8.7,o),
(160,31.338,o),
(160,58,cs),
(160,257.005,o),
(76,444.96,o),
(76,644,cs),
(76,673.338,o),
(92.909,702.7,o),
(122.585,704.983,cs),
(149.666,707.24,o),
(172.24,684.666,o),
(169.983,657.585,cs),
(169.753,654.824,o),
(167.345,652.787,o),
(164.585,653.017,cs),
(161.824,653.247,o),
(159.787,655.655,o),
(160.017,658.415,cs),
(161.761,679.334,o),
(144.334,696.761,o),
(123.383,695.015,cs),
(101.091,693.3,o),
(86,670.662,o),
(86,644,cs),
(86,444.995,o),
(170,257.04,o),
(170,58,cs),
(170,28.662,o),
(153.091,-0.7,o),
(123.415,-2.983,cs),
(96.334,-5.24,o),
(73.76,17.334,o),
(76.017,44.415,cs)
);
}
);
width = 246;
},
{
layerId = "584B1CA6-921E-4923-A283-D75AE04BC333";
shapes = (
{
closed = 1;
nodes = (
(56.34,52.22,l),
(58.617,79.543,o),
(71.448,97.874,o),
(85.11,93.32,cs),
(95.36,89.903,o),
(103.048,74.592,o),
(105.209,56.446,c),
(106.283,55.474,o),
(112.968,51.207,o),
(122,51.96,cs),
(132.258,52.749,o),
(137.865,58.542,o),
(139.974,62.082,c),
(139.974,239.817,o),
(56,433.899,o),
(56,644,cs),
(56,711.378,o),
(94.301,747.829,o),
(122,749.96,cs),
(150.658,752.348,o),
(188.61,731.079,o),
(190.104,664.429,c),
(189.661,649.78,l),
(187.384,622.457,o),
(174.552,604.126,o),
(160.891,608.68,cs),
(150.641,612.097,o),
(142.953,627.408,o),
(140.792,645.554,c),
(139.718,646.526,o),
(133.033,650.793,o),
(124.002,650.04,cs),
(113.744,649.251,o),
(108.137,643.458,o),
(106.028,639.918,c),
(106.028,462.183,o),
(190,268.101,o),
(190,58,cs),
(190,-9.378,o),
(151.699,-45.829,o),
(124,-47.96,cs),
(95.342,-50.348,o),
(57.39,-29.079,o),
(55.896,37.571,c)
);
}
);
width = 246;
}
);
unicode = 73;
},
{
glyphname = G;
layers = (
{
layerId = "0F7E5E12-47E7-4249-B9AE-11F637CCDB2F";
shapes = (
{
closed = 1;
nodes = (
(574.711,570.349,o),
(573.716,567.356,o),
(571.239,566.116,cs),
(568.762,564.876,o),
(565.769,565.871,o),
(564.529,568.348,cs),
(512.422,672.405,o),
(406.448,729.338,o),
(299.761,712.763,cs),
(145.016,688.922,o),
(39.967,528.817,o),
(35.999,349.275,cs),
(32.028,163.284,o),
(141.134,-4.625,o),
(299.287,-12.892,cs),
(425.454,-20.138,o),
(547.55,81.509,o),
(577.116,218.152,cs),
(595.153,299.538,o),
(561.307,374.017,o),
(501,374.017,cs),
(446.403,374.017,o),
(434.39,303.608,o),
(397.246,244.076,cs),
(352.748,172.31,o),
(243.988,220.091,o),
(227.096,305.011,cs),
(226.556,307.728,o),
(228.308,310.35,o),
(231.025,310.891,cs),
(233.741,311.431,o),
(236.364,309.679,o),
(236.904,306.962,cs),
(252.006,231.037,o),
(349.251,185.646,o),
(388.754,249.358,cs),
(423.048,304.32,o),
(439.888,384.017,o),
(501,384.017,cs),
(567.853,384.017,o),
(606.475,304.408,o),
(586.887,216.025,cs),
(556.45,75.353,o),
(430.546,-30.447,o),
(298.739,-22.876,cs),
(132.866,-14.207,o),
(21.972,160.806,o),
(26.001,349.492,cs),
(30.033,531.918,o),
(136.984,697.802,o),
(298.232,722.646,cs),
(409.552,739.94,o),
(519.578,680.449,o),
(573.471,572.826,cs)
);
}
);
width = 618;
},
{
layerId = "584B1CA6-921E-4923-A283-D75AE04BC333";
shapes = (
{
closed = 1;
nodes = (
(596.465,586.397,o),
(596.477,554.86,o),
(586.691,535.258,cs),
(576.905,515.657,o),
(561.136,515.633,o),
(551.336,535.205,cs),
(505.571,626.596,o),
(406.198,684.208,o),
(300.92,667.853,cs),
(146.546,644.068,o),
(59.095,488.314,o),
(55.977,347.249,cs),
(52.937,204.882,o),
(141.208,40.381,o),
(299.718,32.096,cs),
(426.284,24.827,o),
(535.514,128.136,o),
(559.1,237.141,cs),
(571.557,293.346,o),
(546.137,329.017,o),
(501,329.017,cs),
(453.067,329.017,o),
(445.952,267.511,o),
(408.693,207.795,cs),
(356.219,123.164,o),
(232.19,169.766,o),
(208.771,287.505,cs),
(203.651,313.243,o),
(209.89,342.206,o),
(222.759,352.446,cs),
(235.628,362.685,o),
(250.11,350.207,o),
(255.229,324.469,cs),
(263.81,281.332,o),
(345.781,234.794,o),
(377.337,285.687,cs),
(406.416,332.292,o),
(438.67,429.017,o),
(501,429.017,cs),
(573.824,429.017,o),
(636.732,340.653,o),
(604.944,197.224,cs),
(568.486,28.727,o),
(429.716,-75.411,o),
(298.347,-67.866,cs),
(132.792,-59.213,o),
(1.063,119.208,o),
(6.024,351.59,cs),
(10.905,572.422,o),
(135.454,742.656,o),
(297.064,767.555,cs),
(409.802,785.07,o),
(526.429,726.258,o),
(586.664,605.969,cs)
);
}
);
width = 618;
}
);
unicode = 71;
},
{
glyphname = H;
layers = (
{
layerId = "0F7E5E12-47E7-4249-B9AE-11F637CCDB2F";
shapes = (
{
closed = 1;
nodes = (
(44.317,49.047,o),
(47.402,49.702,o),
(49.725,48.192,cs),
(52.047,46.683,o),
(52.702,43.598,o),
(51.192,41.275,cs),
(45.224,32.092,o),
(46.947,21.387,o),
(53.211,14.252,cs),
(58.037,8.754,o),
(65.495,5.485,o),
(73.915,6.881,c),
(88.403,10.1,o),
(95.04,25.648,o),
(98.046,44.673,c),
(103.068,81.626,o),
(100.777,118.443,o),
(95.764,155.474,cs),
(87.103,219.443,o),
(70,285.174,o),
(70,351,cs),
(70,410.159,o),
(83.419,468.022,o),
(92.446,524.475,cs),
(99.554,568.928,o),
(104.082,612.918,o),
(98.061,657.22,c),
(94.995,676.637,o),
(88.314,692.712,o),
(74.178,695.068,cs),
(65.812,696.462,o),
(58.593,693.479,o),
(53.763,688.355,cs),
(47.051,681.236,o),
(45.054,670.168,o),
(51.192,660.725,cs),
(52.702,658.403,o),
(52.047,655.317,o),
(49.725,653.808,cs),
(47.402,652.298,o),
(44.317,652.953,o),
(42.808,655.275,cs),
(33.893,668.991,o),
(36.954,685.104,o),
(46.486,695.215,cs),
(53.469,702.621,o),
(63.978,706.906,o),
(75.822,704.932,cs),
(97.686,701.288,o),
(105.005,677.363,o),
(107.954,658.674,c),
(114.192,612.779,o),
(109.472,567.62,o),
(102.32,522.896,cs),
(93.147,465.531,o),
(80,409.109,o),
(80,351,cs),
(80,285.992,o),
(96.78,222.503,o),
(105.673,156.816,cs),
(110.745,119.357,o),
(113.148,81.54,o),
(107.939,43.22,c),
(104.96,24.352,o),
(97.598,1.9,o),
(75.822,-2.932,c),
(63.514,-4.983,o),
(52.658,-0.276,o),
(45.695,7.655,cs),
(36.79,17.799,o),
(34.147,33.4,o),
(42.808,46.725,cs)
);
},
{
closed = 1;
nodes = (
(561.659,33.699,o),
(559.323,18.488,o),
(550.888,8.338,cs),
(543.959,0,o),
(532.842,-5.043,o),
(519.915,-2.881,c),
(498.402,1.899,o),
(491.04,24.351,o),
(488.046,43.326,c),
(482.945,80.852,o),
(485.171,117.995,o),
(490.055,154.79,cs),
(498.87,221.199,o),
(516,285.296,o),
(516,351,cs),
(516,411.404,o),
(501.649,470.383,o),
(492.401,531.079,cs),
(485.995,573.122,o),
(482.187,615.569,o),
(488.061,658.78,c),
(490.995,677.363,o),
(498.314,701.288,o),
(520.178,704.932,cs),
(532.022,706.906,o),
(542.532,702.621,o),
(549.514,695.214,cs),
(559.046,685.103,o),
(562.107,668.99,o),
(553.192,655.275,cs),
(551.683,652.953,o),
(548.597,652.298,o),
(546.275,653.808,cs),
(543.952,655.317,o),
(543.298,658.402,o),
(544.808,660.725,cs),
(550.945,670.168,o),
(548.948,681.235,o),
(542.237,688.355,cs),
(537.407,693.479,o),
(530.188,696.462,o),
(521.822,695.068,cs),
(507.686,692.712,o),
(501.004,676.637,o),
(497.954,657.327,c),
(492.287,615.628,o),
(495.932,574.288,o),
(502.287,532.585,cs),
(511.359,473.043,o),
(526,412.402,o),
(526,351,cs),
(526,284.517,o),
(508.542,218.073,o),
(499.968,153.475,cs),
(495.143,117.117,o),
(493.022,80.96,o),
(497.939,44.78,c),
(500.96,25.648,o),
(507.598,10.1,o),
(521.822,6.932,c),
(530.747,5.445,o),
(538.387,8.941,o),
(543.198,14.73,cs),
(549.124,21.862,o),
(550.647,32.292,o),
(544.808,41.275,cs),
(543.298,43.598,o),
(543.953,46.683,o),
(546.275,48.192,cs),
(548.598,49.702,o),
(551.683,49.047,o),
(553.192,46.725,cs)
);
},
{
closed = 1;
nodes = (
(521,356,ls),
(523.77,356,o),
(526,353.77,o),
(526,351,cs),
(526,348.23,o),
(523.77,346,o),
(521,346,cs),
(75,346,ls),
(72.23,346,o),
(70,348.23,o),
(70,351,cs),
(70,353.77,o),
(72.23,356,o),
(75,356,cs)
);
}
);
width = 594;
},
{
layerId = "584B1CA6-921E-4923-A283-D75AE04BC333";
shapes = (
{
closed = 1;
nodes = (
(42.735,100.52,o),
(58.371,96.441,o),
(66.816,74.486,cs),
(69.651,67.114,o),
(71.234,58.819,o),
(71.689,51.675,c),
(72.581,51.761,l),
(79.152,53.221,o),
(78.849,57.018,o),
(79.018,58.086,c),
(81.591,77.016,o),
(80.44,114.619,o),
(76.587,143.077,cs),
(68.9,199.855,o),
(50,285.448,o),
(50,351,cs),
(50,424.238,o),
(66.635,495.54,o),
(73.571,538.916,cs),
(80.202,580.382,o),
(83.148,613.527,o),
(79.018,643.914,c),
(78.599,646.569,o),
(76.225,649.623,o),
(72.924,650.173,c),
(71.689,650.317,l),
(71.304,644.281,o),
(69.961,635.694,o),
(66.816,627.514,cs),
(58.371,605.559,o),
(42.735,601.48,o),
(31.757,618.369,cs),
(13.962,645.746,o),
(6.757,702.38,o),
(38.411,735.957,cs),
(49.787,748.024,o),
(63.884,752.026,o),
(77.076,749.827,cs),
(107.142,744.816,o),
(121.422,707.367,o),
(126.84,673.056,cs),
(127.124,671.116,ls),
(135.234,611.452,o),
(128.671,555.208,o),
(121.195,508.455,cs),
(111.352,446.899,o),
(100,403.165,o),
(100,351,cs),
(100,302.309,o),
(112.541,260.127,o),
(124.849,169.213,cs),
(130.425,128.027,o),
(133.898,80.716,o),
(127.124,30.884,cs),
(126.84,28.943,ls),
(121.215,-6.678,o),
(106.717,-41.26,o),
(77.419,-47.761,c),
(61.268,-50.452,o),
(48.277,-45.249,o),
(37.08,-32.494,cs),
(22.76,-16.181,o),
(-1.215,32.904,o),
(31.757,83.631,cs)
);
},
{
closed = 1;
nodes = (
(590.435,43.335,o),
(576.27,-11.649,o),
(559.932,-31.309,cs),
(547.985,-45.685,o),
(532.676,-50.11,o),
(518.239,-47.694,c),
(489.283,-41.26,o),
(474.785,-6.678,o),
(469.16,28.943,cs),
(468.876,30.884,ls),
(462.223,79.826,o),
(465.455,126.323,o),
(470.849,166.961,cs),
(480.66,240.883,o),
(496,284.14,o),
(496,351,cs),
(496,396.698,o),
(485.177,440.16,o),
(473.43,517.256,cs),
(466.605,562.048,o),
(461.247,614.994,o),
(468.876,671.116,cs),
(469.16,673.057,ls),
(474.578,707.367,o),
(488.858,744.816,o),
(518.924,749.827,cs),
(533.136,752.196,o),
(546.875,747.322,o),
(557.59,735.956,cs),
(572.295,720.357,o),
(598.542,671.137,o),
(564.243,618.369,cs),
(553.265,601.48,o),
(537.629,605.559,o),
(529.184,627.514,cs),
(526.349,634.886,o),
(524.766,643.181,o),
(524.311,650.317,c),
(523.076,650.173,l),
(516.495,649.076,o),
(517.169,645.096,o),
(516.982,643.914,c),
(514.092,622.653,o),
(516.251,579.27,o),
(521.258,546.407,cs),
(529.52,492.185,o),
(546,416.862,o),
(546,351,cs),
(546,268.019,o),
(524.213,179.263,o),
(519.175,141.304,cs),
(514.9,109.096,o),
(513.709,82.165,o),
(516.982,58.086,c),
(517.299,56.081,o),
(519.646,52.599,o),
(523.419,51.761,c),
(524.311,51.676,l),
(524.696,57.725,o),
(526.04,66.311,o),
(529.184,74.486,cs),
(537.629,96.441,o),
(553.265,100.52,o),
(564.243,83.631,cs)
);
},
{
closed = 1;
nodes = (
(521,401,ls),
(534.85,401,o),
(546,378.7,o),
(546,351,cs),
(546,323.3,o),
(534.85,301,o),
(521,301,cs),
(75,301,ls),
(61.15,301,o),
(50,323.3,o),
(50,351,cs),
(50,378.7,o),
(61.15,401,o),
(75,401,cs)
);
}
);
width = 594;
}
);
unicode = 72;
},
{
glyphname = J;
layers = (
{
layerId = "0F7E5E12-47E7-4249-B9AE-11F637CCDB2F";
shapes = (
{
closed = 1;
nodes = (
(40.406,570.648,o),
(33.581,601.307,o),
(38.745,629.233,cs),
(46.012,668.534,o),
(77.044,702.722,o),
(121.649,704.048,cs),
(150.494,704.93,o),
(189.342,683.627,o),
(224.435,664.514,cs),
(281.71,633.321,o),
(329.803,606.702,o),
(336.217,654.065,cs),
(340.423,686.231,o),
(357.599,704.05,o),
(381.425,704.05,cs),
(411.263,704.05,o),
(428.31,689.389,o),
(431.622,654.457,c),
(496.521,451.185,o),
(569.522,228.142,o),
(435.569,67.426,cs),
(384.226,6.769,o),
(311.353,-24.585,o),
(234.506,-24.585,cs),
(118.705,-24.585,o),
(10.305,83.378,o),
(41.524,189.855,cs),
(47.839,212.059,o),
(63.014,234.559,o),
(88.027,236.957,c),
(114.706,240.475,o),
(138.235,216.735,o),
(134.815,187.88,cs),
(134.489,185.129,o),
(132.012,183.177,o),
(129.262,183.503,cs),
(126.511,183.829,o),
(124.559,186.306,o),
(124.885,189.056,cs),
(127.563,211.657,o),
(109.81,229.744,o),
(89.069,227.013,c),
(70.06,225.19,o),
(56.983,207.655,o),
(51.126,187.061,cs),
(22.207,88.429,o),
(123.855,-14.585,o),
(234.506,-14.585,cs),
(308.589,-14.585,o),
(378.61,15.612,o),
(427.911,73.858,cs),
(557.634,229.497,o),
(487.643,446.113,o),
(421.946,651.884,c),
(418.914,682.652,o),
(406.603,694.05,o),
(381.425,694.05,cs),
(364.649,694.05,o),
(349.953,681.985,o),
(346.129,652.745,cs),
(338.207,594.249,o),
(279.327,623.232,o),
(219.652,655.732,cs),
(182.914,675.741,o),
(147.168,694.823,o),
(121.948,694.052,cs),
(82.926,692.893,o),
(55.138,662.891,o),
(48.578,627.415,cs),
(43.952,602.399,o),
(50.013,575.05,o),
(70.082,553.88,cs),
(71.988,551.87,o),
(71.904,548.717,o),
(69.894,546.812,cs),
(67.883,544.906,o),
(64.731,544.99,o),
(62.825,547,cs)
);
}
);
width = 546;
},
{
layerId = "584B1CA6-921E-4923-A283-D75AE04BC333";
shapes = (
{
closed = 1;
nodes = (
(27.699,534.792,o),
(8.689,583.344,o),
(20.214,645.668,cs),
(33.499,717.512,o),
(83.882,747.929,o),
(121.423,749.044,cs),
(152.486,749.994,o),
(193.48,727.501,o),
(228.613,708.366,cs),
(268.78,686.49,o),
(301.873,668.353,o),
(318.26,674.01,c),
(319.839,686.085,o),
(334.629,749.05,o),
(381.425,749.05,cs),
(411.459,749.05,o),
(441.114,735.311,o),
(449.91,673.643,c),
(509.789,486.093,o),
(599.122,213.158,o),
(444.528,27.679,cs),
(388.89,-38.054,o),
(312.545,-69.585,o),
(234.506,-69.585,cs),
(98.146,-69.585,o),
(-18.377,66.622,o),
(24.679,213.474,cs),
(35.115,250.168,o),
(58.284,279.137,o),
(87.171,281.907,c),
(115.451,285.635,o),
(156.188,263.833,o),
(155.136,191.462,c),
(154.176,176.937,l),
(150.982,149.984,o),
(137.561,133.428,o),
(124.085,139.816,cs),
(113.971,144.61,o),
(106.838,160.937,o),
(105.344,178.74,c),
(104.048,179.735,o),
(98.473,183.188,o),
(90.013,182.073,c),
(73.609,180.5,o),
(68.967,166.946,o),
(67.976,163.462,cs),
(52.286,109.95,o),
(148.883,30.415,o),
(234.506,30.415,cs),
(307.411,30.415,o),
(373.96,60.45,o),
(418.952,113.605,cs),
(525.293,241.191,o),
(477.532,401.183,o),
(402.77,635.482,c),
(402.147,644.091,l),
(402.106,644.52,o),
(402.054,644.902,o),
(402.042,644.965,c),
(402.817,642.878,l),
(402.739,642.997,o),
(398.503,649.05,o),
(381.425,649.05,cs),
(367.046,649.05,o),
(365.728,643.576,o),
(365.331,640.543,cs),
(351.31,537.008,o),
(272.073,581.055,o),
(215.475,611.88,cs),
(179.306,631.579,o),
(145.517,649.769,o),
(122.177,649.056,cs),
(87.579,648.028,o),
(69.719,622.479,o),
(67.256,611.631,c),
(67.528,610.633,o),
(69.283,605.029,o),
(75.464,597.641,c),
(78.116,594.666,l),
(90.367,581.743,o),
(95.028,551.615,o),
(88.566,527.114,cs),
(82.105,502.613,o),
(67.041,493.292,o),
(54.791,506.214,cs)
);
}
);
width = 546;
}
);
unicode = 74;
},
{
glyphname = K;
layers = (
{
layerId = "0F7E5E12-47E7-4249-B9AE-11F637CCDB2F";
shapes = (
{
closed = 1;
nodes = (
(597.741,534.116,o),
(468.223,367.884,o),
(293.83,374.003,cs),
(200.534,377.079,o),
(104,380.945,o),
(104,309,cs),
(104,306.23,o),
(101.77,304,o),
(99,304,cs),
(96.23,304,o),
(94,306.23,o),
(94,309,cs),
(94,393.065,o),
(205.516,386.92,o),
(294.175,383.997,cs),
(461.777,378.116,o),
(586.259,537.884,o),
(540.193,698.622,cs),
(539.43,701.285,o),
(540.96,704.043,o),
(543.623,704.806,cs),
(546.285,705.57,o),
(549.043,704.04,o),
(549.807,701.378,cs)
);
},
{
closed = 1;
nodes = (
(457.22,384,o),
(543.931,212.844,o),
(577.893,45.03,cs),
(582.019,25.429,o),
(587.635,10.092,o),
(602.02,6.895,cs),
(612.665,4.677,o),
(621.87,10.121,o),
(626.263,18.36,cs),
(629.906,25.194,o),
(630.095,33.717,o),
(624.904,41.133,cs),
(623.315,43.402,o),
(623.863,46.508,o),
(626.133,48.096,cs),
(628.402,49.685,o),
(631.508,49.137,o),
(633.096,46.867,cs),
(640.655,36.069,o),
(640.323,23.476,o),
(635.087,13.655,cs),
(628.857,1.971,o),
(615.478,-6.124,o),
(599.915,-2.881,cs),
(578.365,1.908,o),
(571.981,24.571,o),
(568.099,43.008,cs),
(534.069,211.156,o),
(448.78,374,o),
(294,374,cs),
(291.23,374,o),
(289,376.23,o),
(289,379,cs),
(289,381.77,o),
(291.23,384,o),
(294,384,cs)
);
},
{
closed = 1;
nodes = (
(39.577,48.578,o),
(42.526,49.696,o),
(45.052,48.56,cs),
(47.578,47.423,o),
(48.696,44.474,o),
(47.56,41.948,cs),
(43.891,33.796,o),
(45.002,25.312,o),
(49.247,18.711,cs),
(53.687,11.807,o),
(61.542,7,o),
(71,7,cs),
(78.573,7,o),
(85.242,10.447,o),
(89.842,15.812,cs),
(96.384,23.443,o),
(97.956,34.022,o),
(94,42.994,c),
(94,659.006,l),
(95.154,661.624,o),
(100.15,673.944,o),
(89.997,686.005,cs),
(85.393,691.474,o),
(78.658,695,o),
(71,695,cs),
(62.323,695,o),
(55.005,690.957,o),
(50.425,684.966,cs),
(45.224,678.163,o),
(43.578,668.899,o),
(47.56,660.052,cs),
(48.696,657.526,o),
(47.578,654.577,o),
(45.052,653.44,cs),
(42.526,652.304,o),
(39.577,653.422,o),
(38.44,655.948,cs),
(32.887,668.29,o),
(35.152,681.453,o),
(42.48,691.04,cs),
(48.871,699.399,o),
(59.069,705,o),
(71,705,cs),
(81.816,705,o),
(91.289,699.999,o),
(97.648,692.445,cs),
(105.681,682.901,o),
(108.806,669.207,o),
(104,657.192,c),
(104,44.806,l),
(107.503,36.048,o),
(107.489,21.032,o),
(97.433,9.303,cs),
(91.101,1.917,o),
(81.752,-3,o),
(71,-3,cs),
(58.049,-3,o),
(47.064,3.619,o),
(40.837,13.302,cs),
(34.889,22.55,o),
(33.282,34.588,o),
(38.44,46.052,cs)
);
}
);
width = 674;
},
{
layerId = "584B1CA6-921E-4923-A283-D75AE04BC333";
shapes = (
{
closed = 1;
nodes = (
(623.696,525.947,o),
(493.048,322.008,o),
(293.575,329.007,cs),
(219.641,331.445,o),
(145.325,334.855,o),
(123.838,304.142,c),
(123.838,299.112,o),
(121.186,259,o),
(99,259,cs),
(85.15,259,o),
(74,281.3,o),
(74,309,cs),
(74,438.587,o),
(180.911,432.735,o),
(294.425,428.993,cs),
(440.637,423.863,o),
(557.94,554.299,o),
(523.31,675.136,cs),
(516.423,699.168,o),
(520.552,729.605,o),
(532.568,743.38,cs),
(544.584,757.154,o),
(559.802,748.896,o),
(566.69,724.864,cs)
);
},
{
closed = 1;
nodes = (
(463.791,429,o),
(558.603,248.396,o),
(596.107,63.081,cs),
(598.237,52.967,o),
(598.606,52.839,o),
(603.676,51.713,c),
(604.324,51.624,l),
(604.463,54.652,o),
(605.273,63.587,o),
(608.657,73.062,cs),
(616.707,95.602,o),
(632.261,100.787,o),
(643.531,84.687,cs),
(662.453,57.655,o),
(663.98,9.927,o),
(647.776,-20.465,cs),
(635.304,-43.856,o),
(615.681,-51.329,o),
(598.239,-47.694,cs),
(568.055,-40.987,o),
(556.028,-4.232,o),
(549.959,24.597,cs),
(549.826,25.24,ls),
(519.506,175.056,o),
(442.443,329,o),
(294,329,cs),
(280.15,329,o),
(269,351.3,o),
(269,379,cs),
(269,406.7,o),
(280.15,429,o),
(294,429,cs)
);
},
{
closed = 1;
nodes = (
(33.683,98.037,o),
(49.429,99.695,o),
(59.724,81.165,cs),
(64.912,71.826,o),
(67.47,59.383,o),
(67.656,52.306,c),
(68.298,52.172,o),
(69.406,52,o),
(71,52,cs),
(72.089,52,o),
(73.091,52.1,o),
(74,52.268,c),
(74,649.731,l),
(73.114,649.896,o),
(72.113,650,o),
(71,650,cs),
(69.627,650,o),
(68.513,649.867,o),
(67.657,649.704,c),
(67.554,645.809,o),
(65.51,631.249,o),
(59.724,620.835,cs),
(49.43,602.305,o),
(33.683,603.962,o),
(24.418,624.552,cs),
(10.77,654.88,o),
(11.246,701.693,o),
(32.768,729.847,cs),
(43.989,744.525,o),
(58.374,750,o),
(71,750,cs),
(84.044,750,o),
(96.669,743.998,o),
(106.59,732.213,cs),
(118.148,718.482,o),
(134.573,685.429,o),
(124,646.565,c),
(124,55.397,l),
(125.957,48.176,o),
(133.254,0.883,o),
(106.232,-30.635,cs),
(95.804,-42.797,o),
(82.998,-48,o),
(71,-48,cs),
(55.651,-48,o),
(40.469,-40.215,o),
(29.698,-23.468,cs),
(18.285,-5.722,o),
(4.963,34.215,o),
(24.418,77.448,cs)
);
}
);
width = 674;
}
);
unicode = 75;
},
{
glyphname = L;
layers = (
{
layerId = "0F7E5E12-47E7-4249-B9AE-11F637CCDB2F";
shapes = (
{
closed = 1;
nodes = (
(234.088,659.151,o),
(232.301,656.552,o),
(229.578,656.048,cs),
(226.854,655.543,o),
(224.255,657.33,o),
(223.751,660.054,cs),
(219.128,685.015,o),
(193.94,710.984,o),
(166.514,710.984,cs),
(107.492,710.984,o),
(89.111,656.851,o),
(93.051,588.902,cs),
(102.2,420.153,o),
(191.102,254.749,o),
(149.997,88.272,c),
(142.881,53.707,o),
(125.906,17.713,o),
(89.83,12.076,cs),
(59.524,7.586,o),
(30.438,27.644,o),
(27.054,59.22,c),
(12.463,170.114,o),
(143.069,143.675,o),
(313.964,29.335,cs),
(403.946,-29.994,o),
(532.727,10.532,o),
(568.335,112.408,cs),
(569.249,115.023,o),
(572.09,116.392,o),
(574.705,115.478,cs),
(577.32,114.564,o),
(578.689,111.723,o),
(577.775,109.108,cs),
(539.972,0.951,o),
(403.761,-41.85,o),
(308.432,21.005,cs),
(270.992,46.054,o),
(17.884,205.558,o),
(36.99,60.345,c),
(39.717,34.894,o),
(63.386,18.267,o),
(88.305,21.959,cs),
(117.455,26.513,o),
(133.124,55.902,o),
(140.263,90.559,c),
(180.636,254.071,o),
(92.259,418.793,o),
(83.067,588.333,cs),
(78.99,658.654,o),
(99.265,720.984,o),
(166.514,720.984,cs),
(198.894,720.984,o),
(228.131,691.314,o),
(233.583,661.875,cs)
);
}
);
width = 626;
},
{
layerId = "584B1CA6-921E-4923-A283-D75AE04BC333";
shapes = (
{
closed = 1;
nodes = (
(256.921,652.356,o),
(250.338,623.699,o),
(237.351,614.077,cs),
(224.355,604.45,o),
(210.106,617.763,o),
(205.788,641.078,c),
(205.627,641.489,o),
(195.21,665.984,o),
(166.514,665.984,cs),
(111.884,665.984,o),
(111.638,616.015,o),
(112.902,594.196,cs),
(121.394,437.581,o),
(214.72,258.404,o),
(167.88,68.699,c),
(160.498,32.846,o),
(138.463,-25.417,o),
(90.974,-32.837,cs),
(56.895,-37.886,o),
(14.698,-17.024,o),
(7.708,48.212,c),
(-19.109,252.017,o),
(173.813,169.813,o),
(319.077,72.622,cs),
(405.748,15.476,o),
(524.738,59.789,o),
(552.565,139.405,cs),
(560.5,162.108,o),
(576.027,167.608,o),
(587.378,151.738,cs),
(598.73,135.868,o),
(601.48,104.814,o),
(593.545,82.111,cs),
(548.25,-47.481,o),
(402.697,-87.807,o),
(303.319,-22.281,cs),
(202.284,45.317,o),
(100.743,89.529,o),
(62.041,71.78,c),
(64.189,70.329,o),
(74.065,64.932,o),
(87.18,66.875,cs),
(111.667,70.701,o),
(119.188,94.739,o),
(122,108.398,cs),
(122.306,109.92,l),
(156.986,246.757,o),
(72.883,404.721,o),
(63.214,583.048,cs),
(57.99,673.163,o),
(83.835,765.984,o),
(166.514,765.984,cs),
(203.547,765.984,o),
(242.237,731.643,o),
(252.11,678.331,cs)
);
}
);
width = 626;
}
);
unicode = 76;
},
{
glyphname = M;
layers = (
{
layerId = "0F7E5E12-47E7-4249-B9AE-11F637CCDB2F";
shapes = (
{
closed = 1;
nodes = (
(37.296,35.552,o),
(39.795,37.475,o),
(42.542,37.117,cs),
(45.289,36.759,o),
(47.212,34.259,o),
(46.853,31.512,cs),
(44.067,10.153,o),
(62.697,-8.477,o),
(83.962,-5.704,c),
(102.577,-2.912,o),
(115.518,14.069,o),
(122.848,33.962,c),
(202.27,229.87,o),
(-20.576,441.794,o),
(80.255,638.036,cs),
(101.005,678.442,o),
(138.793,713.59,o),
(185.424,712.453,cs),
(231.905,711.32,o),
(267.418,676.275,o),
(290.192,638.319,cs),
(367.12,509.383,o),
(333.709,350.527,o),
(333.709,204.461,cs),
(333.709,168.582,o),
(346.739,137.758,o),
(371.517,137.758,cs),
(397.413,137.758,o),
(410.395,168.674,o),
(410.395,204.461,cs),
(410.395,350.527,o),
(376.984,509.383,o),
(453.915,638.324,cs),
(476.686,676.275,o),
(512.199,711.32,o),
(558.68,712.453,cs),
(606.266,713.614,o),
(642.954,676.723,o),
(663.83,638.074,c),
(763.515,442.078,o),
(541.945,229.565,o),
(620.131,34.099,c),
(628.557,14.085,o),
(641.499,-2.908,o),
(660.048,-5.691,c),
(681.406,-8.477,o),
(700.036,10.153,o),
(697.251,31.512,cs),
(696.893,34.259,o),
(698.816,36.759,o),
(701.562,37.117,cs),
(704.309,37.475,o),
(706.809,35.552,o),
(707.167,32.805,cs),
(710.798,4.963,o),
(686.576,-19.236,o),
(658.707,-15.601,c),
(634.296,-11.939,o),
(619.639,9.498,o),
(610.897,30.26,c),
(530.886,230.287,o),
(752.03,442.476,o),
(654.964,633.443,c),
(634.649,671.026,o),
(600.602,703.473,o),
(558.924,702.456,cs),
(517.522,701.447,o),
(484.663,670.135,o),
(462.493,633.185,cs),
(387.453,507.413,o),
(420.395,353.771,o),
(420.395,204.461,cs),
(420.395,168.012,o),
(407.148,127.758,o),
(371.517,127.758,cs),
(337.321,127.758,o),
(323.709,169.357,o),
(323.709,204.461,cs),
(323.709,353.771,o),
(356.65,507.413,o),
(281.61,633.185,cs),
(259.659,669.771,o),
(226.606,701.446,o),
(185.18,702.456,cs),
(143.909,703.463,o),
(109.08,672.276,o),
(89.151,633.467,cs),
(-9.095,442.258,o),
(213.301,230.469,o),
(132.173,30.355,c),
(124.567,9.708,o),
(109.692,-11.956,o),
(85.397,-15.601,c),
(57.159,-19.284,o),
(33.297,4.897,o),
(36.937,32.806,cs)
);
}
);
width = 744;
},
{
layerId = "584B1CA6-921E-4923-A283-D75AE04BC333";
shapes = (
{
closed = 1;
nodes = (
(21.201,71.583,o),
(34.804,87.532,o),
(48.206,80.54,cs),
(58.274,75.287,o),
(65.133,58.594,o),
(66.246,43.222,c),
(66.63,42.906,o),
(73.095,37.942,o),
(82.955,39.228,c),
(96.939,41.326,o),
(104.639,54.322,o),
(107.738,62.734,c),
(171.134,219.11,o),
(-48.69,445.903,o),
(67.266,671.581,cs),
(93.202,722.088,o),
(136.635,758.646,o),
(185.607,757.451,cs),
(235.643,756.231,o),
(275.379,718.374,o),
(301.932,674.119,cs),
(389.274,527.728,o),
(353.709,344.802,o),
(353.709,204.461,cs),
(353.709,193.47,o),
(357.6,182.758,o),
(371.517,182.758,cs),
(390.568,182.758,o),
(390.395,200.494,o),
(390.395,204.461,cs),
(390.395,344.802,o),
(354.83,527.728,o),
(442.172,674.119,cs),
(468.99,718.816,o),
(508.298,756.227,o),
(558.497,757.451,cs),
(610.27,758.714,o),
(651.671,718.431,o),
(676.66,671.932,c),
(791.739,446.684,o),
(573.317,217.701,o),
(634.846,63.879,c),
(638.579,55.013,o),
(648.219,41.168,o),
(661.149,39.228,c),
(668.133,38.317,o),
(674.867,40.758,o),
(677.859,43.222,c),
(678.258,48.735,o),
(681.934,73.255,o),
(695.9,80.54,cs),
(709.301,87.531,o),
(722.904,71.581,o),
(726.4,44.778,cs),
(739.495,-55.636,o),
(660.451,-60.891,o),
(657.653,-60.526,c),
(628.791,-56.197,o),
(609.331,-30.747,o),
(596.201,0.439,c),
(503.279,232.742,o),
(719.589,447.179,o),
(642.077,599.677,c),
(629.915,622.175,o),
(600.348,658.464,o),
(559.107,657.459,cs),
(521.387,656.539,o),
(492.629,628.044,o),
(474.234,597.385,cs),
(409.785,489.365,o),
(440.395,360.519,o),
(440.395,204.461,cs),
(440.395,144.773,o),
(418.573,82.758,o),
(371.517,82.758,cs),
(331.331,82.758,o),
(303.709,132.027,o),
(303.709,204.461,cs),
(303.709,360.519,o),
(334.319,489.365,o),
(269.87,597.385,cs),
(251.74,627.602,o),
(222.554,656.543,o),
(184.997,657.459,cs),
(147.578,658.371,o),
(117.61,630.046,o),
(102.141,599.923,cs),
(23.597,447.058,o),
(240.513,231.55,o),
(147.284,1.585,c),
(137.515,-24.932,o),
(116.876,-55.962,o),
(86.452,-60.526,c),
(53.975,-64.762,o),
(6.668,-39.834,o),
(17.705,44.78,cs)
);
}
);
width = 744;
}
);
unicode = 77;
},
{
glyphname = N;
layers = (
{
layerId = "0F7E5E12-47E7-4249-B9AE-11F637CCDB2F";
shapes = (
{
closed = 1;
nodes = (
(30.077,45.832,o),
(32.594,47.732,o),
(35.337,47.349,cs),
(38.081,46.965,o),
(39.98,44.448,o),
(39.597,41.705,cs),
(36.643,20.567,o),
(56.465,0.714,o),
(82.979,3.559,c),
(104.727,6.338,o),
(117.682,23.908,o),
(128.081,44.574,c),
(219.047,240.255,o),
(12.894,432.894,o),
(78.868,638.37,cs),
(91.884,677.527,o),
(119.919,715.916,o),
(165.354,714.787,cs),
(209.5,713.659,o),
(233.952,675.249,o),
(250.246,638.815,cs),
(330.532,455.189,o),
(333.198,248.873,o),
(413.463,65.294,cs),
(429.801,28.764,o),
(451.981,-3.784,o),
(490.636,-4.745,cs),
(529.149,-5.701,o),
(554.746,26.82,o),
(567.372,64.806,cs),
(632.056,266.264,o),
(425.349,461.196,o),
(518.593,661.775,cs),
(528.131,683.104,o),
(544.337,705.023,o),
(571.57,708.501,cs),
(601.924,711.894,o),
(630.289,688.044,o),
(624.842,658.818,cs),
(624.335,656.095,o),
(621.734,654.311,o),
(619.011,654.819,cs),
(616.288,655.326,o),
(614.504,657.927,o),
(615.012,660.65,cs),
(618.893,681.48,o),
(598.29,701.426,o),
(572.759,698.573,cs),
(550.945,695.786,o),
(536.837,678.076,o),
(527.706,657.66,cs),
(436.737,461.973,o),
(642.787,266.976,o),
(576.87,61.676,cs),
(563.854,22.519,o),
(535.819,-15.87,o),
(490.388,-14.742,cs),
(445.1,-13.616,o),
(420.643,24.746,o),
(404.326,61.231,cs),
(324.04,244.857,o),
(321.374,451.173,o),
(241.109,634.752,cs),
(224.749,671.333,o),
(202.564,703.833,o),
(165.102,704.791,cs),
(126.589,705.748,o),
(100.992,673.225,o),
(88.366,635.24,cs),
(23.738,433.957,o),
(230.342,240.836,o),
(137.048,40.15,c),
(126.494,19.174,o),
(111.467,-2.882,o),
(84.147,-6.372,c),
(52.466,-9.772,o),
(25.652,14.172,o),
(29.693,43.089,cs)
);
}
);
width = 654;
},
{
layerId = "584B1CA6-921E-4923-A283-D75AE04BC333";
shapes = (
{
closed = 1;
nodes = (
(14.296,82.534,o),
(28.036,98.008,o),
(41.375,90.551,cs),
(51.403,84.945,o),
(58.062,67.989,o),
(58.946,54.081,c),
(62.586,51.31,o),
(70.891,47.304,o),
(82.146,48.512,c),
(99.54,50.735,o),
(108.703,65.401,o),
(114.615,77.152,c),
(187.686,234.336,o),
(-13.325,427.41,o),
(62.685,664.142,cs),
(81.709,721.373,o),
(115.129,761.038,o),
(165.541,759.785,cs),
(213.615,758.556,o),
(243.484,716.683,o),
(264.4,669.917,cs),
(347.88,478.984,o),
(350.877,271.913,o),
(427.626,96.377,cs),
(440.393,67.829,o),
(458.977,41.044,o),
(490.823,40.253,cs),
(525.602,39.389,o),
(543.959,68.825,o),
(551.197,90.602,cs),
(602.764,251.205,o),
(398.222,464.406,o),
(504.686,693.423,cs),
(516.714,720.32,o),
(538.183,749.297,o),
(570.631,753.442,cs),
(605.39,757.328,o),
(660.359,733.531,o),
(643.353,642.272,cs),
(638.516,616.316,o),
(624.174,603.208,o),
(611.196,612.882,cs),
(602.53,619.342,o),
(596.832,634.282,o),
(595.598,648.476,c),
(593.987,649.703,o),
(585.636,654.965,o),
(573.62,653.622,cs),
(555.92,651.361,o),
(546.399,636.711,o),
(541.629,626.045,cs),
(467.504,466.593,o),
(669.27,273.282,o),
(593.053,35.904,cs),
(574.029,-21.328,o),
(540.609,-60.992,o),
(490.202,-59.739,cs),
(441.206,-58.522,o),
(411.243,-16.984,o),
(390.173,30.129,cs),
(306.692,221.062,o),
(303.695,428.133,o),
(226.946,603.669,cs),
(214.172,632.232,o),
(195.585,659.009,o),
(164.911,659.793,cs),
(130.181,660.656,o),
(111.779,631.22,o),
(104.541,609.444,cs),
(52.837,448.414,o),
(257.978,238.739,o),
(150.547,7.641,c),
(135.346,-22.572,o),
(119.765,-46.882,o),
(85.08,-51.314,c),
(49.127,-55.173,o),
(-1.635,-31.458,o),
(10.568,55.856,cs)
);
}
);
width = 654;
}
);
unicode = 78;
},
{
glyphname = O;
layers = (
{
layerId = "0F7E5E12-47E7-4249-B9AE-11F637CCDB2F";
shapes = (
{
closed = 1;
nodes = (
(34.505,539.75,o),
(138.879,711.41,o),
(295.95,711.41,cs),
(453.039,711.41,o),
(558.35,539.724,o),
(558.35,351.251,cs),
(558.35,161.723,o),
(453.032,-9.954,o),
(295.95,-9.954,cs),
(138.886,-9.954,o),
(34.505,161.697,o),
(34.505,351.251,cs)
);
},
{
closed = 1;
nodes = (
(24.505,159.953,o),
(130.224,-19.954,o),
(295.95,-19.954,cs),
(461.658,-19.954,o),
(568.35,159.927,o),
(568.35,351.251,cs),
(568.35,541.54,o),
(461.651,721.41,o),
(295.95,721.41,cs),
(130.231,721.41,o),
(24.505,541.514,o),
(24.505,351.251,cs)
);
}
);
width = 593;
},
{
layerId = "584B1CA6-921E-4923-A283-D75AE04BC333";
shapes = (
{
closed = 1;
nodes = (
(54.505,499.507,o),
(140.461,666.41,o),
(295.95,666.41,cs),
(451.571,666.41,o),
(538.35,499.316,o),
(538.35,351.251,cs),
(538.35,202.069,o),
(451.521,35.046,o),
(295.95,35.046,cs),
(140.51,35.046,o),
(54.505,201.878,o),
(54.505,351.251,cs)
);
},
{
closed = 1;
nodes = (
(4.505,119.773,o),
(128.6,-64.954,o),
(295.95,-64.954,cs),
(463.169,-64.954,o),
(588.35,119.581,o),
(588.35,351.251,cs),
(588.35,581.948,o),
(463.119,766.41,o),
(295.95,766.41,cs),
(128.649,766.41,o),
(4.505,581.757,o),
(4.505,351.251,cs)
);
}
);
width = 593;
}
);
unicode = 79;
},
{
glyphname = P;
leftMetricsKey = B;
rightMetricsKey = B;
layers = (
{
layerId = "0F7E5E12-47E7-4249-B9AE-11F637CCDB2F";
shapes = (
{
closed = 1;
nodes = (
(51.806,46.625,o),
(54.727,47.815,o),
(57.28,46.74,cs),
(59.833,45.665,o),
(61.023,42.745,o),
(59.948,40.192,cs),
(56.251,31.413,o),
(58.014,21.473,o),
(63.456,14.145,cs),
(68.02,7.997,o),
(74.984,3.943,o),
(83.104,3.943,cs),
(90.87,3.943,o),
(97.779,7.649,o),
(102.575,13.372,cs),
(109.369,21.479,o),
(110.942,32.456,o),
(106.896,41.072,c),
(106.896,675.565,ls),
(106.896,678.335,o),
(109.126,680.565,o),
(111.896,680.565,cs),
(114.666,680.565,o),
(116.896,678.335,o),
(116.896,675.565,cs),
(116.942,42.981,l),
(121.776,30.279,o),
(118.273,16.536,o),
(110.239,6.949,cs),
(103.793,-0.743,o),
(94.196,-6.057,o),
(83.104,-6.057,cs),
(71.439,-6.057,o),
(61.639,-0.184,o),
(55.427,8.183,cs),
(48.12,18.025,o),
(45.512,31.676,o),
(50.731,44.072,cs)
);
},
{
closed = 1;
nodes = (
(-17.628,566.707,o),
(138.964,723.718,o),
(301.035,725.809,cs),
(377.672,726.859,o),
(456.356,694.256,o),
(513.922,614.709,cs),
(552.564,560.401,o),
(568.341,504.858,o),
(567.291,451.321,cs),
(565.192,309.664,o),
(439.504,190.446,o),
(301.264,185.209,cs),
(236.132,183.109,o),
(167.989,206.256,o),
(108.424,263.732,cs),
(106.431,265.655,o),
(106.375,268.808,o),
(108.298,270.802,cs),
(110.221,272.795,o),
(113.375,272.851,o),
(115.368,270.928,cs),
(173.029,215.29,o),
(238.566,193.193,o),
(300.914,195.203,cs),
(434.175,200.252,o),
(555.278,315.486,o),
(557.293,451.493,cs),
(558.299,502.82,o),
(543.226,556.277,o),
(505.797,608.879,cs),
(450.228,685.666,o),
(374.666,716.817,o),
(301.168,715.81,cs),
(144.47,713.788,o),
(-5.372,562.309,o),
(63.121,374.962,cs),
(64.072,372.36,o),
(62.743,369.5,o),
(60.141,368.549,cs),
(57.54,367.598,o),
(54.68,368.927,o),
(53.728,371.528,cs)
);
}
);
width = 594;
},
{
layerId = "584B1CA6-921E-4923-A283-D75AE04BC333";
shapes = (
{
closed = 1;
nodes = (
(46.138,95.527,o),
(61.849,98.22,o),
(72.443,80.378,cs),
(77.761,71.421,o),
(80.634,59.129,o),
(81.058,49.236,c),
(81.888,49.067,o),
(82.903,48.943,o),
(84.104,48.943,cs),
(85.814,48.943,o),
(87.236,49.208,o),
(87.895,49.4,c),
(87.896,675.565,ls),
(87.896,703.265,o),
(99.046,725.565,o),
(112.896,725.565,cs),
(126.746,725.565,o),
(137.896,703.265,o),
(137.896,675.565,cs),
(138.023,54.036,l),
(146.573,8.824,o),
(129.076,-22.206,o),
(120.216,-32.779,cs),
(109.692,-45.336,o),
(96.622,-51.057,o),
(84.104,-51.057,cs),
(70.102,-51.057,o),
(56.685,-44.058,o),
(46.477,-30.309,cs),
(34.227,-13.81,o),
(18.792,30.579,o),
(37.217,74.339,cs)
);
},
{
closed = 1;
nodes = (
(-41.508,564.612,o),
(104.848,768.265,o),
(301.932,770.809,cs),
(379.95,771.877,o),
(462.781,739.004,o),
(525.222,652.72,cs),
(566.69,594.44,o),
(589.773,525.954,o),
(588.277,449.675,cs),
(585.678,274.305,o),
(448.461,145.742,o),
(302.506,140.213,cs),
(235.731,138.06,o),
(164.868,161.666,o),
(102.033,222.297,cs),
(89.559,234.334,o),
(84.361,264.108,o),
(90.38,289.057,cs),
(96.398,314.005,o),
(111.285,324.399,o),
(123.759,312.363,cs),
(178.15,259.88,o),
(240.967,238.242,o),
(301.665,240.199,cs),
(429.724,245.05,o),
(536.847,354.575,o),
(538.311,453.354,cs),
(538.867,481.724,o),
(531.1,522.238,o),
(496.637,570.674,cs),
(445.803,640.917,o),
(374.388,671.799,o),
(302.269,670.811,cs),
(170.626,669.112,o),
(25.969,549.467,o),
(79.605,402.757,cs),
(87.78,380.396,o),
(85.361,349.233,o),
(74.18,332.883,cs),
(63,316.534,o),
(47.418,321.373,o),
(39.244,343.733,cs)
);
}
);
width = 595;
}
);
unicode = 80;
},
{
glyphname = Q;
layers = (
{
layerId = "0F7E5E12-47E7-4249-B9AE-11F637CCDB2F";
shapes = (
{
closed = 1;
nodes = (
(35,541.617,o),
(152.963,717,o),
(329,717,cs),
(505.037,717,o),
(623,541.617,o),
(623,349,cs),
(623,156.364,o),
(505.023,-20,o),
(329,-20,cs),
(152.977,-20,o),
(35,156.364,o),
(35,349,cs)
);
},
{
closed = 1;
nodes = (
(25,153.636,o),
(145.023,-30,o),
(329,-30,cs),
(512.977,-30,o),
(633,153.636,o),
(633,349,cs),
(633,544.383,o),
(512.963,727,o),
(329,727,cs),
(145.037,727,o),
(25,544.383,o),
(25,349,cs)
);
},
{
closed = 1;
nodes = (
(207.23,279,o),
(205,276.77,o),
(205,274,cs),
(205,271.23,o),
(207.23,269,o),
(210,269,cs),
(246.922,269,o),
(280.138,246.269,o),
(294.389,212.068,cs),
(351.727,76.01,o),
(154.597,25.875,o),
(56.331,-81.603,cs),
(25.802,-114.168,o),
(21.79,-167.298,o),
(58.526,-178.778,cs),
(83.902,-186.501,o),
(104.716,-162.436,o),
(123.114,-147.912,cs),
(206.437,-81.06,o),
(312.764,-170.92,o),
(418.585,-178.983,cs),
(517.013,-187.185,o),
(608.24,-122.606,o),
(632.845,-26.237,cs),
(633.53,-23.553,o),
(631.921,-20.841,o),
(629.237,-20.155,cs),
(626.553,-19.47,o),
(623.841,-21.079,o),
(623.155,-23.763,cs),
(599.76,-115.394,o),
(512.987,-176.815,o),
(419.398,-169.016,cs),
(315.936,-161.133,o),
(205.392,-69.077,o),
(116.886,-140.088,cs),
(95.88,-156.671,o),
(80.699,-175.073,o),
(61.474,-169.222,cs),
(35.493,-161.103,o),
(34.942,-119.038,o),
(63.669,-88.397,cs),
(157.431,14.155,o),
(364.268,72.003,o),
(303.615,215.923,cs),
(287.862,253.731,o),
(251.077,279,o),
(210,279,cs)
);
}
);
width = 659;
},
{
layerId = "584B1CA6-921E-4923-A283-D75AE04BC333";
shapes = (
{
closed = 1;
nodes = (
(55,498.4,o),
(152.401,672,o),
(329,672,cs),
(505.599,672,o),
(603,498.4,o),
(603,349,cs),
(603,199.477,o),
(505.507,25,o),
(329,25,cs),
(152.493,25,o),
(55,199.477,o),
(55,349,cs)
);
},
{
closed = 1;
nodes = (
(5,110.523,o),
(145.507,-75,o),
(329,-75,cs),
(512.493,-75,o),
(653,110.523,o),
(653,349,cs),
(653,587.6,o),
(512.401,772,o),
(329,772,cs),
(145.599,772,o),
(5,587.6,o),
(5,349,cs)
);
},
{
closed = 1;
nodes = (
(196.15,324,o),
(185,301.7,o),
(185,274,cs),
(185,246.3,o),
(196.15,224,o),
(210,224,cs),
(246.162,224,o),
(271.853,201.05,o),
(279.839,181.884,cs),
(305.839,120.188,o),
(120.307,37.948,o),
(48.12,-41.007,cs),
(-33.537,-128.108,o),
(12.759,-209.844,o),
(56.19,-223.416,cs),
(85.25,-232.26,o),
(112.749,-203.479,o),
(129.244,-190.456,cs),
(206.455,-128.508,o),
(313.397,-215.99,o),
(417.959,-223.957,cs),
(515.3,-232.068,o),
(618.967,-170.322,o),
(650.265,-47.739,cs),
(656.564,-23.069,o),
(651.704,6.933,o),
(639.369,19.53,cs),
(627.034,32.128,o),
(612.033,22.409,o),
(605.735,-2.261,cs),
(605.009,-4.974,ls),
(586.271,-71.971,o),
(510.534,-131.585,o),
(419.996,-124.04,cs),
(317.471,-116.228,o),
(204.818,-22.076,o),
(110.756,-97.543,cs),
(88.21,-115.343,o),
(83.307,-120.884,o),
(77.164,-123.401,c),
(159.689,-37.369,o),
(403.946,42.557,o),
(318.161,246.116,cs),
(296.983,296.942,o),
(254.032,324,o),
(210,324,cs)
);
}
);
width = 659;
}
);
unicode = 81;
},
{
glyphname = R;
rightMetricsKey = B;
layers = (
{
layerId = "0F7E5E12-47E7-4249-B9AE-11F637CCDB2F";
shapes = (
{
closed = 1;
nodes = (
(60.411,47.54,o),
(63.316,48.767,o),
(65.882,47.724,cs),
(68.448,46.681,o),
(69.675,43.776,o),
(68.632,41.21,cs),
(64.766,31.695,o),
(67.02,21.606,o),
(73.051,14.426,cs),
(77.889,8.667,o),
(85.055,4.916,o),
(93.24,4.916,cs),
(101.384,4.916,o),
(108.068,8.625,o),
(112.426,14.266,cs),
(117.883,21.331,o),
(119.713,31.48,o),
(115.76,41.21,c),
(115.683,41.398,o),
(115.392,42.889,o),
(115.392,43.092,c),
(115.392,688.676,ls),
(115.392,691.446,o),
(117.622,693.676,o),
(120.392,693.676,cs),
(123.162,693.676,o),
(125.392,691.446,o),
(125.392,688.676,cs),
(125.431,43.933,l),
(130.203,31.173,o),
(127.746,17.741,o),
(120.34,8.153,cs),
(114.191,0.192,o),
(104.645,-5.084,o),
(93.24,-5.084,cs),
(81.876,-5.084,o),
(71.983,0.151,o),
(65.394,7.994,cs),
(57.216,17.73,o),
(53.973,31.697,o),
(59.368,44.974,cs)
);
},
{
closed = 1;
nodes = (
(31.184,626.858,o),
(165.156,733.882,o),
(295.02,727.595,cs),
(363.457,724.437,o),
(430.829,690.684,o),
(474.543,616.167,cs),
(497.961,576.347,o),
(507.606,537.438,o),
(507.606,499.478,cs),
(506.535,383.5,o),
(405.008,287.05,o),
(290.97,278.657,cs),
(232.131,274.444,o),
(170.166,293.444,o),
(116.921,344.81,cs),
(112.956,348.634,o),
(119.246,355.758,o),
(123.532,352.299,cs),
(500.524,48.011,ls),
(501.994,46.824,o),
(502.729,44.137,o),
(502.067,42.368,cs),
(498.717,33.417,o),
(500.596,24.321,o),
(505.737,17.904,cs),
(510.019,12.559,o),
(516.597,9.028,o),
(524.536,9.028,cs),
(534.291,9.028,o),
(542.047,14.373,o),
(545.95,21.932,cs),
(549.005,27.846,o),
(549.708,35.146,o),
(547.005,42.368,cs),
(546.034,44.962,o),
(547.341,47.832,o),
(549.935,48.803,cs),
(552.53,49.774,o),
(555.4,48.467,o),
(556.371,45.873,cs),
(560.072,35.983,o),
(559.174,25.744,o),
(554.836,17.343,cs),
(549.315,6.654,o),
(538.264,-0.972,o),
(524.536,-0.972,cs),
(513.516,-0.972,o),
(504.083,3.975,o),
(497.933,11.651,cs),
(490.628,20.768,o),
(488.268,33.483,o),
(491.594,42.368,c),
(117.252,344.517,l),
(123.864,352.007,l),
(175.048,302.628,o),
(234.223,284.62,o),
(290.246,288.631,cs),
(399.698,296.686,o),
(496.589,389.388,o),
(497.606,499.524,cs),
(497.606,535.626,o),
(488.453,572.789,o),
(465.92,611.102,cs),
(424.003,682.556,o),
(359.793,714.595,o),
(294.548,717.606,cs),
(169.616,723.654,o),
(42.512,620.966,o),
(72.042,468.607,cs),
(72.569,465.888,o),
(70.804,463.274,o),
(68.084,462.747,cs),
(65.365,462.22,o),
(62.751,463.985,o),
(62.224,466.705,cs)
);
}
);
width = 585;
},
{
layerId = "584B1CA6-921E-4923-A283-D75AE04BC333";
shapes = (
{
closed = 1;
nodes = (
(53.334,96.122,o),
(69.019,99.364,o),
(79.767,81.894,cs),
(85.158,73.131,o),
(88.161,60.938,o),
(88.7,50.491,c),
(89.642,50.226,o),
(91.22,49.916,o),
(93.24,49.916,cs),
(99.26,49.916,o),
(102.431,52.709,o),
(102.798,53.183,c),
(100.991,11.557,l),
(99.042,16.353,o),
(95.392,36.911,o),
(95.392,43.092,cs),
(95.392,688.676,ls),
(95.392,716.376,o),
(106.542,738.676,o),
(120.392,738.676,cs),
(134.242,738.676,o),
(145.392,716.376,o),
(145.392,688.676,cs),
(145.47,55.435,l),
(153.688,14.193,o),
(140.241,-17.465,o),
(129.968,-30.764,cs),
(119.199,-44.707,o),
(105.655,-50.084,o),
(93.24,-50.084,cs),
(79.704,-50.084,o),
(66.627,-43.887,o),
(56.436,-31.755,cs),
(44.31,-17.319,o),
(25.242,26.99,o),
(44.599,74.626,cs)
);
},
{
closed = 1;
nodes = (
(5.953,644.977,o),
(142.985,779.964,o),
(295.381,772.586,cs),
(365.607,769.346,o),
(437.849,734.533,o),
(486.438,651.705,cs),
(514.066,604.729,o),
(527.853,553.1,o),
(527.602,498.601,cs),
(526.195,346.191,o),
(411.232,242.488,o),
(291.52,233.677,cs),
(230.535,229.311,o),
(166.069,248.83,o),
(109.531,303.373,cs),
(84.702,327.325,o),
(104.185,415.407,o),
(129.748,394.774,cs),
(506.74,90.486,ls),
(515.743,83.22,o),
(521.233,68.848,o),
(522.41,54.164,c),
(523.079,54.041,o),
(524.246,54.028,o),
(524.536,54.028,c),
(527.235,54.25,l),
(527.601,59.329,o),
(529.683,73.633,o),
(536.707,84.148,cs),
(547.795,100.747,o),
(563.403,96.258,o),
(571.702,74.082,cs),
(581.343,48.321,o),
(582.176,11.587,o),
(567.783,-16.285,cs),
(555.649,-39.78,o),
(537.291,-45.972,o),
(524.536,-45.972,cs),
(494.136,-45.972,o),
(476.99,-16.423,o),
(472.582,10.221,c),
(111.036,302.041,l),
(131.253,393.443,l),
(178.817,347.558,o),
(235.039,329.697,o),
(289.706,333.611,cs),
(395.636,341.407,o),
(476.954,429.975,o),
(477.6,500.012,cs),
(477.6,515.977,o),
(473.584,542.307,o),
(454.028,575.559,cs),
(417.746,637.407,o),
(359.699,669.592,o),
(294.199,672.614,cs),
(183.625,677.967,o),
(69.937,591.527,o),
(90.443,485.727,cs),
(95.449,459.9,o),
(89.082,431.047,o),
(76.169,421.036,cs),
(63.255,411.024,o),
(48.829,423.757,o),
(43.823,449.585,cs)
);
}
);
width = 585;
}
);
unicode = 82;
},
{
glyphname = S;
layers = (
{
layerId = "0F7E5E12-47E7-4249-B9AE-11F637CCDB2F";
shapes = (
{
closed = 1;
nodes = (
(543.924,495.673,o),
(542.202,493.032,o),
(539.491,492.461,cs),
(536.781,491.89,o),
(534.139,493.613,o),
(533.568,496.324,cs),
(508.831,613.822,o),
(409.882,701.432,o),
(290.318,711.739,cs),
(172.359,722.086,o),
(67.304,645.626,o),
(76.369,541.877,cs),
(96.959,311.277,o),
(483.311,423.988,o),
(543.25,221.696,cs),
(584.18,87.057,o),
(449.208,-37.035,o),
(290.193,-18.77,cs),
(167.422,-4.892,o),
(65.971,83.726,o),
(37.137,204.403,cs),
(36.493,207.097,o),
(38.144,209.784,o),
(40.838,210.428,cs),
(43.532,211.072,o),
(46.22,209.421,o),
(46.863,206.727,cs),
(74.707,90.194,o),
(172.68,4.578,o),
(291.321,-8.834,cs),
(443.06,-26.263,o),
(572.491,91.13,o),
(533.672,218.821,cs),
(476.168,412.898,o),
(87.769,301.757,o),
(66.408,541.002,cs),
(56.581,653.466,o),
(169.843,732.345,o),
(291.185,721.701,cs),
(415.136,711.016,o),
(517.709,620.194,o),
(543.354,498.384,cs)
);
}
);
width = 582;
},
{
layerId = "584B1CA6-921E-4923-A283-D75AE04BC333";
shapes = (
{
closed = 1;
nodes = (
(566.876,491.228,o),
(560.927,462.022,o),
(548.163,451.272,cs),
(535.398,440.523,o),
(520.795,452.421,o),
(515.42,477.951,cs),
(496.447,568.073,o),
(410.381,656.361,o),
(289.669,666.767,cs),
(176.225,676.718,o),
(91.476,601.992,o),
(96.008,550.135,cs),
(112.026,370.733,o),
(495.08,464.743,o),
(559.895,245.992,cs),
(612.599,72.626,o),
(474.356,-84.973,o),
(289.344,-63.722,cs),
(167.334,-49.929,o),
(54.209,38.506,o),
(19.443,184.006,cs),
(13.472,209,o),
(18.724,238.736,o),
(31.221,250.679,cs),
(43.717,262.623,o),
(58.585,252.117,o),
(64.557,227.124,cs),
(86.47,135.415,o),
(172.768,49.617,o),
(292.177,36.118,cs),
(401.944,23.51,o),
(544.482,104.213,o),
(517.027,194.527,cs),
(465.474,368.518,o),
(72.525,244.288,o),
(46.77,532.739,cs),
(33.015,690.157,o),
(160.763,778.172,o),
(291.832,766.674,cs),
(414.637,756.088,o),
(530.093,665.944,o),
(561.502,516.757,cs)
);
}
);
width = 582;
}
);
unicode = 83;
},
{
glyphname = T;
layers = (
{
layerId = "0F7E5E12-47E7-4249-B9AE-11F637CCDB2F";
shapes = (
{
closed = 1;
nodes = (
(21.556,654.48,o),
(31.098,668.257,o),
(43.762,678.81,c),
(135.786,758.564,o),
(250.234,642,o),
(354,642,cs),
(457.603,642,o),
(573.301,758.507,o),
(664.201,678.841,c),
(676.902,668.257,o),
(686.444,654.48,o),
(691.743,638.581,cs),
(692.619,635.953,o),
(691.209,633.132,o),
(688.581,632.256,cs),
(685.953,631.38,o),
(683.132,632.791,o),
(682.256,635.419,cs),
(677.556,649.52,o),
(669.098,661.743,o),
(657.752,671.199,c),
(570.707,747.486,o),
(464.452,632,o),
(354,632,cs),
(243.713,632,o),
(138.206,747.429,o),
(50.201,671.159,c),
(38.902,661.743,o),
(30.444,649.52,o),
(25.743,635.419,cs),
(24.867,632.791,o),
(22.047,631.381,o),
(19.419,632.257,cs),
(16.791,633.133,o),
(15.38,635.953,o),
(16.257,638.581,cs)
);
},
{
closed = 1;
nodes = (
(349,636,ls),
(349,638.77,o),
(351.23,641,o),
(354,641,cs),
(356.77,641,o),
(359,638.77,o),
(359,636,cs),
(359,0,ls),
(359,-2.77,o),
(356.77,-5,o),
(354,-5,cs),
(351.23,-5,o),
(349,-2.77,o),
(349,0,cs)
);
}
);
width = 708;
},
{
layerId = "584B1CA6-921E-4923-A283-D75AE04BC333";
shapes = (
{
closed = 1;
nodes = (
(9.146,691.576,o),
(23.433,709.524,o),
(37.222,721.016,c),
(136.316,806.897,o),
(249.867,687,o),
(354,687,cs),
(458.116,687,o),
(572.758,806.921,o),
(670.825,720.975,c),
(684.907,709.239,o),
(699.127,690.758,o),
(707.801,664.735,cs),
(715.484,641.687,o),
(712.391,610.763,o),
(700.867,595.397,cs),
(689.344,580.032,o),
(673.881,586.217,o),
(666.199,609.265,cs),
(665.146,612.424,o),
(661.434,620.476,o),
(651.175,629.025,c),
(571.503,698.851,o),
(463.436,587,o),
(354,587,cs),
(243.912,587,o),
(137.605,699.035,o),
(56.778,628.984,c),
(47.045,620.873,o),
(43.157,613.331,o),
(41.801,609.265,cs),
(34.119,586.217,o),
(18.656,580.032,o),
(7.132,595.397,cs),
(-4.391,610.763,o),
(-7.484,641.687,o),
(0.199,664.735,cs)
);
},
{
closed = 1;
nodes = (
(329,636,ls),
(329,663.7,o),
(340.15,686,o),
(354,686,cs),
(367.85,686,o),
(379,663.7,o),
(379,636,cs),
(379,0,ls),
(379,-27.7,o),
(367.85,-50,o),
(354,-50,cs),
(340.15,-50,o),
(329,-27.7,o),
(329,0,cs)
);
}
);
width = 708;
}
);
unicode = 84;
},
{
glyphname = U;
layers = (
{
layerId = "0F7E5E12-47E7-4249-B9AE-11F637CCDB2F";
shapes = (
{
closed = 1;
nodes = (
(52.124,665.679,o),
(54.202,680.1,o),
(61.783,690.301,cs),
(68.701,699.608,o),
(80.356,705.634,o),
(93.57,703.909,c),
(116.665,701.344,o),
(126.975,676.056,o),
(126.975,655.504,cs),
(126.975,470.959,o),
(14.617,292.918,o),
(97.499,125.109,cs),
(148.349,22.392,o),
(229.184,-27.052,o),
(345.969,-15.882,cs),
(440.354,-7.762,o),
(509.171,40.787,o),
(550.828,125.116,cs),
(634.487,292.432,o),
(507.903,472.095,o),
(507.903,655.504,cs),
(507.903,670.596,o),
(513.59,684.701,o),
(522.827,693.987,cs),
(531.538,702.744,o),
(543.596,707.316,o),
(556.577,703.775,cs),
(564.346,701.731,o),
(570.546,697.298,o),
(574.746,691.564,cs),
(582.924,680.395,o),
(583.36,664.471,o),
(573.688,652.381,cs),
(571.958,650.218,o),
(568.824,649.869,o),
(566.661,651.6,cs),
(564.498,653.33,o),
(564.149,656.465,o),
(565.88,658.628,cs),
(572.627,667.062,o),
(572.285,677.999,o),
(566.678,685.656,cs),
(563.823,689.553,o),
(559.566,692.649,o),
(553.99,694.116,cs),
(545.035,696.558,o),
(536.561,693.613,o),
(529.917,686.935,cs),
(522.72,679.7,o),
(517.903,668.215,o),
(517.903,655.504,cs),
(517.903,472.77,o),
(645.739,292.576,o),
(559.788,120.677,cs),
(516.635,33.317,o),
(444.8,-17.417,o),
(346.873,-25.84,cs),
(225.744,-37.427,o),
(141.107,14.481,o),
(88.536,120.675,cs),
(3.877,292.082,o),
(116.975,473.913,o),
(116.975,655.504,cs),
(116.975,670.558,o),
(110.042,692.018,o),
(92.371,693.982,c),
(82.988,695.206,o),
(74.774,691.015,o),
(69.81,684.336,cs),
(64.363,677.007,o),
(63.015,666.964,o),
(68.348,658.077,cs),
(69.773,655.701,o),
(69.008,652.642,o),
(66.633,651.217,cs),
(64.258,649.791,o),
(61.198,650.556,o),
(59.773,652.932,cs)
);
}
);
width = 639;
},
{
layerId = "584B1CA6-921E-4923-A283-D75AE04BC333";
shapes = (
{
closed = 1;
nodes = (
(24.5,656.353,o),
(36.475,708.128,o),
(51.842,728.804,cs),
(64.168,745.389,o),
(80.557,750.671,o),
(94.525,748.849,c),
(105.049,747.679,o),
(115.596,741.898,o),
(124.299,731.367,cs),
(137.132,715.838,o),
(146.975,689.246,o),
(146.975,655.504,cs),
(146.975,458.219,o),
(42.035,297.263,o),
(110.783,158.07,cs),
(155.437,67.87,o),
(229.754,18.037,o),
(345.323,29.091,cs),
(438.514,37.107,o),
(501.437,84.983,o),
(537.574,158.139,cs),
(606.124,295.237,o),
(487.903,455.967,o),
(487.903,655.504,cs),
(487.903,696.292,o),
(502.768,722.693,o),
(515.145,735.135,cs),
(527.843,747.899,o),
(543.324,752.67,o),
(558.625,748.497,cs),
(567.904,746.055,o),
(577.265,740.204,o),
(584.809,729.902,cs),
(606.742,699.95,o),
(606.389,642.299,o),
(583.034,613.105,cs),
(571.29,598.423,o),
(555.925,605.514,o),
(548.584,629.003,cs),
(546.082,637.009,o),
(545.042,645.421,o),
(544.979,649.702,c),
(541.809,649.087,o),
(539.306,647.463,o),
(538.062,646.212,c),
(541.371,490.687,o),
(671.227,284.022,o),
(573.036,87.643,cs),
(524.605,-10.401,o),
(447.085,-62.248,o),
(347.531,-70.812,cs),
(225.199,-82.513,o),
(134.021,-31,o),
(75.242,87.733,cs),
(-19.598,279.755,o),
(94,495.101,o),
(96.866,647.185,c),
(95.813,647.91,o),
(94.091,648.745,o),
(91.511,649.032,c),
(88.837,649.17,l),
(88.818,648.109,o),
(88.373,635.753,o),
(83.265,623.495,cs),
(74.399,602.216,o),
(58.695,599.36,o),
(48.056,617.093,cs)
);
}
);
width = 639;
}
);
unicode = 85;
},
{
glyphname = V;
layers = (
{
layerId = "0F7E5E12-47E7-4249-B9AE-11F637CCDB2F";
shapes = (
{
closed = 1;
nodes = (
(23.101,667.813,o),
(24.986,680.443,o),
(31.663,689.925,cs),
(37.982,698.899,o),
(48.546,705,o),
(61,705,cs),
(71.454,705,o),
(80.658,700.327,o),
(87.003,693.19,cs),
(95.514,683.616,o),
(98.902,669.558,o),
(94.24,657.905,c),
(275.007,43.698,l),
(274.929,39.589,o),
(274.941,6,o),
(312,6,cs),
(333.203,6,o),
(349.364,24.295,o),
(348.993,43.702,c),
(530.667,657.8,l),
(525.9,670.18,o),
(528.793,683.015,o),
(536.35,692.132,cs),
(542.781,699.889,o),
(552.613,705,o),
(564,705,cs),
(577.18,705,o),
(588.249,697.611,o),
(594.253,687.331,cs),
(599.496,678.352,o),
(600.984,666.998,o),
(596.642,656.143,cs),
(595.614,653.571,o),
(592.715,652.329,o),
(590.143,653.358,cs),
(587.571,654.386,o),
(586.329,657.285,o),
(587.358,659.857,cs),
(590.464,667.623,o),
(589.432,675.755,o),
(585.617,682.288,cs),
(581.22,689.818,o),
(573.269,695,o),
(564,695,cs),
(555.704,695,o),
(548.654,691.305,o),
(544.049,685.75,cs),
(537.746,678.146,o),
(536.461,667.617,o),
(541.347,658.448,c),
(358.993,42.166,l),
(358.539,16.783,o),
(337.485,-4,o),
(312,-4,cs),
(286.514,-4,o),
(265.459,16.785,o),
(265.031,42.175,c),
(83.691,658.331,l),
(86.363,663.958,o),
(89.344,675.506,o),
(79.529,686.546,cs),
(74.942,691.706,o),
(68.405,695,o),
(61,695,cs),
(51.946,695,o),
(44.366,690.596,o),
(39.839,684.168,cs),
(35.108,677.45,o),
(33.729,668.563,o),
(37.56,660.052,cs),
(38.696,657.526,o),
(37.578,654.577,o),
(35.052,653.44,cs),
(32.526,652.304,o),
(29.577,653.422,o),
(28.44,655.948,cs)
);
}
);
width = 625;
},
{
layerId = "584B1CA6-921E-4923-A283-D75AE04BC333";
shapes = (
{
closed = 1;
nodes = (
(1.367,653.554,o),
(0.795,698.727,o),
(21.277,727.814,cs),
(32.847,744.245,o),
(48.134,750,o),
(61,750,cs),
(73.615,750,o),
(85.796,744.388,o),
(95.521,733.449,cs),
(106.184,721.455,o),
(120.442,694.606,o),
(116.059,664.628,c),
(294.924,56.882,l),
(296.066,55.837,o),
(302.262,51,o),
(312,51,cs),
(319.649,51,o),
(325.946,54.02,o),
(329.051,56.861,c),
(508.648,663.741,l),
(506.622,690.599,o),
(515.881,717.995,o),
(527.287,731.755,cs),
(538.136,744.842,o),
(551.686,750,o),
(564,750,cs),
(579.744,750,o),
(595.42,741.242,o),
(606.195,722.789,cs),
(616.656,704.875,o),
(627.822,667.515,o),
(611.522,626.765,cs),
(602.87,605.135,o),
(587.198,601.652,o),
(576.383,618.956,cs),
(570.954,627.643,o),
(567.927,639.786,o),
(567.38,649.646,c),
(566.547,649.835,o),
(565.421,650,o),
(564,650,c),
(562.668,649.941,l),
(377.679,24.849,l),
(373.482,-18.365,o),
(337.08,-49,o),
(312,-49,cs),
(284.418,-49,o),
(251.413,-27.61,o),
(246.309,24.928,c),
(62.361,649.94,l),
(61,650,l),
(59.52,650,o),
(58.409,649.849,o),
(57.656,649.699,c),
(57.554,645.812,o),
(55.51,631.25,o),
(49.724,620.835,cs),
(39.43,602.305,o),
(23.683,603.963,o),
(14.418,624.552,cs)
);
}
);
width = 625;
}
);
unicode = 86;
},
{
glyphname = W;
layers = (
{
layerId = "0F7E5E12-47E7-4249-B9AE-11F637CCDB2F";
shapes = (
{
closed = 1;
nodes = (
(765.618,660.631,o),
(763.128,658.695,o),
(760.38,659.039,cs),
(757.631,659.382,o),
(755.695,661.872,o),
(756.039,664.62,cs),
(758.671,685.677,o),
(740.148,705.48,o),
(718.707,702.05,cs),
(700.573,699.46,o),
(687.531,681.864,o),
(679.639,662.135,cs),
(600.457,466.16,o),
(803.666,254.08,o),
(702.449,57.719,cs),
(682.079,17.998,o),
(644.661,-18.126,o),
(597.886,-15.999,c),
(551.325,-14.94,o),
(515.046,19.867,o),
(492.709,57.434,cs),
(414.765,187.002,o),
(449,345.649,o),
(449,492,cs),
(449,525.946,o),
(426.796,558,o),
(401,558,cs),
(374.252,558,o),
(353,526.014,o),
(353,492,cs),
(353,345.649,o),
(387.235,187.002,o),
(309.298,57.445,cs),
(286.954,19.867,o),
(250.675,-14.94,o),
(204.227,-15.995,c),
(157.339,-18.126,o),
(119.92,17.998,o),
(99.553,57.714,cs),
(-1.666,254.08,o),
(201.543,466.16,o),
(122.358,662.143,cs),
(114.469,681.864,o),
(101.427,699.46,o),
(83.21,702.063,cs),
(61.852,705.48,o),
(43.329,685.677,o),
(45.961,664.62,cs),
(46.305,661.872,o),
(44.369,659.382,o),
(41.62,659.039,cs),
(38.872,658.695,o),
(36.382,660.631,o),
(36.039,663.38,cs),
(32.671,690.323,o),
(56.148,716.52,o),
(84.707,711.95,cs),
(108.573,708.54,o),
(123.531,686.136,o),
(131.639,665.865,cs),
(212.474,465.799,o),
(9.648,253.955,o),
(108.449,62.282,cs),
(128.079,24.002,o),
(162.661,-7.874,o),
(203.886,-6.001,c),
(245.325,-5.059,o),
(279.046,26.133,o),
(300.709,62.566,cs),
(376.765,188.998,o),
(343,342.351,o),
(343,492,cs),
(343,527.986,o),
(365.748,568,o),
(401,568,cs),
(435.204,568,o),
(459,528.054,o),
(459,492,cs),
(459,342.351,o),
(425.235,188.998,o),
(501.298,62.555,cs),
(522.954,26.133,o),
(556.675,-5.059,o),
(598.227,-6.005,c),
(639.339,-7.874,o),
(673.92,24.002,o),
(693.553,62.286,cs),
(792.352,253.955,o),
(589.526,465.799,o),
(670.358,665.857,cs),
(678.469,686.136,o),
(693.427,708.54,o),
(717.21,711.937,cs),
(745.852,716.52,o),
(769.329,690.323,o),
(765.961,663.38,cs)
);
}
);
width = 792;
},
{
layerId = "584B1CA6-921E-4923-A283-D75AE04BC333";
shapes = (
{
closed = 1;
nodes = (
(781.894,625,o),
(768.373,608.774,o),
(754.937,615.493,cs),
(744.845,620.538,o),
(737.873,637.074,o),
(736.62,653.218,c),
(735.594,654.091,o),
(729.312,658.651,o),
(719.887,657.143,cs),
(705.428,655.077,o),
(698.293,642.195,o),
(694.483,632.669,cs),
(630.577,474.502,o),
(830.561,247.511,o),
(715.429,24.155,cs),
(690.228,-24.987,o),
(647.025,-63.24,o),
(597.574,-60.992,c),
(549.253,-59.894,o),
(507.497,-22.983,o),
(480.965,21.64,cs),
(392.638,168.468,o),
(428.995,355.42,o),
(428.995,490.501,c),
(428.852,491.152,o),
(422.566,513,o),
(401,513,cs),
(383.288,513,o),
(374.09,496.005,o),
(373.004,490.884,c),
(373.004,355.388,o),
(409.359,168.465,o),
(321.035,21.64,cs),
(295.355,-21.549,o),
(254.297,-59.859,o),
(204.426,-60.992,c),
(155.473,-63.217,o),
(111.692,-24.831,o),
(86.571,24.155,cs),
(-28.561,247.511,o),
(171.423,474.502,o),
(107.517,632.67,cs),
(103.083,643.754,o),
(95.315,655.257,o),
(82.113,657.143,cs),
(75.425,658.213,o),
(69.967,656.443,o),
(66.007,653.7,c),
(65.38,653.219,l),
(64.735,644.919,o),
(60.268,622.095,o),
(47.063,615.493,cs),
(33.627,608.775,o),
(20.106,625,o),
(16.746,651.873,cs),
(4.315,751.321,o),
(85.358,756.941,o),
(85.781,756.873,c),
(114.486,752.772,o),
(134.659,724.89,o),
(146.483,695.33,cs),
(239.161,465.953,o),
(40.566,252.72,o),
(121.453,95.8,cs),
(136.473,66.51,o),
(165.907,37.281,o),
(203.716,38.996,c),
(241.581,39.857,o),
(271.068,68.261,o),
(288.965,98.36,cs),
(354.494,207.292,o),
(323,331.735,o),
(323,492,cs),
(323,568.88,o),
(364.618,613,o),
(401,613,cs),
(436.042,613,o),
(479,569.362,o),
(479,492,cs),
(479,331.735,o),
(447.506,207.292,o),
(513.09,98.268,cs),
(530.932,68.261,o),
(560.419,39.857,o),
(598.568,38.987,c),
(636.093,37.281,o),
(665.527,66.51,o),
(680.571,95.845,cs),
(761.434,252.72,o),
(562.839,465.953,o),
(655.478,695.235,cs),
(667.341,724.891,o),
(687.515,752.772,o),
(716.113,756.857,cs),
(748.098,761.975,o),
(795.651,735.052,o),
(785.254,651.873,cs)
);
}
);
width = 792;
}
);
unicode = 87;
},
{
glyphname = X;
layers = (
{
layerId = "0F7E5E12-47E7-4249-B9AE-11F637CCDB2F";
shapes = (
{
closed = 1;
nodes = (
(13.026,667.815,o),
(15.046,682.883,o),
(23.017,693.128,cs),
(30.016,702.124,o),
(41.773,707.655,o),
(54.869,704.924,c),
(75.867,701.218,o),
(83.079,676.895,o),
(85.921,658.888,c),
(112.273,512.939,o),
(148.044,356,o),
(277,356,cs),
(404.95,356,o),
(440.724,512.918,o),
(467.061,658.78,c),
(470.034,677.611,o),
(477.483,701.316,o),
(498.98,704.895,c),
(513.677,707.957,o),
(526.211,700.828,o),
(532.675,690.133,cs),
(538.724,680.123,o),
(539.635,666.726,o),
(532.192,655.275,cs),
(530.683,652.953,o),
(527.597,652.298,o),
(525.275,653.808,cs),
(522.952,655.317,o),
(522.298,658.402,o),
(523.808,660.725,cs),
(528.953,668.641,o),
(528.388,677.892,o),
(524.116,684.96,cs),
(519.584,692.46,o),
(511.083,697.202,o),
(500.822,695.068,c),
(484.35,692.323,o),
(479.117,671.017,o),
(476.92,657.112,c),
(451.276,515.082,o),
(415.05,346,o),
(277,346,cs),
(137.957,346,o),
(101.728,515.061,o),
(76.061,657.22,c),
(74.006,670.235,o),
(68.809,692.309,o),
(52.98,695.105,c),
(43.829,697.012,o),
(35.8,693.273,o),
(30.909,686.988,cs),
(25.292,679.768,o),
(24.04,669.519,o),
(30.096,660.867,cs),
(31.685,658.598,o),
(31.137,655.492,o),
(28.867,653.904,cs),
(26.598,652.315,o),
(23.492,652.863,o),
(21.904,655.133,cs)
);
},
{
closed = 1;
nodes = (
(23.492,49.137,o),
(26.598,49.685,o),
(28.867,48.096,cs),
(31.137,46.508,o),
(31.685,43.402,o),
(30.096,41.133,cs),
(24.403,33,o),
(25.182,23.764,o),
(29.891,16.802,cs),
(34.63,9.796,o),
(43.251,5.276,o),
(52.855,6.866,c),
(68.645,10.581,o),
(73.885,30.997,o),
(76.065,44.8,cs),
(104.578,215.879,o),
(109.74,433.999,o),
(277,433.999,cs),
(443.282,433.999,o),
(449.405,215.884,o),
(476.939,44.779,cs),
(479.226,30.296,o),
(484.527,10.559,o),
(500.822,6.931,c),
(510.599,5.302,o),
(518.869,9.659,o),
(523.527,16.494,cs),
(528.315,23.516,o),
(529.191,32.993,o),
(523.808,41.274,cs),
(522.298,43.597,o),
(522.953,46.682,o),
(525.275,48.191,cs),
(527.598,49.701,o),
(530.683,49.047,o),
(532.192,46.724,cs),
(539.975,34.751,o),
(538.632,20.898,o),
(531.79,10.861,cs),
(525.111,1.062,o),
(513.097,-5.253,o),
(498.915,-2.882,c),
(477.567,1.862,o),
(470.079,24.106,o),
(467.062,43.212,cs),
(438.595,220.114,o),
(432.718,423.999,o),
(277,423.999,cs),
(120.26,423.999,o),
(115.422,220.119,o),
(85.939,43.219,cs),
(83.028,24.782,o),
(75.75,1.98,o),
(54.822,-2.933,c),
(40.749,-5.279,o),
(28.369,1.203,o),
(21.607,11.199,cs),
(14.818,21.238,o),
(13.597,35,o),
(21.904,46.867,cs)
);
}
);
width = 554;
},
{
layerId = "584B1CA6-921E-4923-A283-D75AE04BC333";
shapes = (
{
closed = 1;
nodes = (
(-14.647,654.622,o),
(-3.523,710.309,o),
(13.447,732.121,cs),
(25.905,748.132,o),
(42.349,752.695,o),
(56.394,749.769,c),
(87.68,744.248,o),
(100.497,700.492,o),
(104.677,674.019,c),
(104.514,674.982,l),
(129.726,535.346,o),
(159.878,401,o),
(277,401,cs),
(393.058,401,o),
(423.237,535.141,o),
(448.486,674.982,c),
(448.323,674.019,l),
(452.617,701.213,o),
(465.632,744.44,o),
(497.667,749.779,c),
(514.261,753.236,o),
(532.454,745.725,o),
(544.332,726.071,cs),
(560.415,699.458,o),
(563.699,649.84,o),
(543.243,618.369,cs),
(532.265,601.48,o),
(516.629,605.559,o),
(508.184,627.514,cs),
(505.35,634.884,o),
(503.764,643.181,o),
(503.307,650.366,c),
(502.333,650.221,l),
(498.548,649.59,o),
(497.295,648.038,o),
(497.099,647.788,c),
(496.763,647.358,o),
(496.413,646.645,o),
(495.677,641.981,c),
(470.354,501.732,o),
(429.77,301,o),
(277,301,cs),
(123.268,301,o),
(82.679,501.551,o),
(57.323,641.981,c),
(56.515,647.098,o),
(56.014,647.936,o),
(55.783,648.241,c),
(55.607,648.475,o),
(54.603,649.702,o),
(51.606,650.231,c),
(50.676,650.374,l),
(50.537,647.35,o),
(49.728,638.414,o),
(46.343,628.938,cs),
(38.293,606.397,o),
(22.739,601.213,o),
(11.469,617.313,cs)
);
},
{
closed = 1;
nodes = (
(22.739,100.787,o),
(38.293,95.602,o),
(46.343,73.062,cs),
(49.071,65.425,o),
(50.423,57.104,o),
(50.672,51.673,c),
(51.501,51.741,l),
(54.876,52.535,o),
(55.976,54.452,o),
(56.046,54.575,c),
(56.207,54.857,o),
(56.643,55.768,o),
(57.222,59.433,cs),
(84.847,225.187,o),
(94.478,478.999,o),
(277,478.999,cs),
(458.562,478.999,o),
(469.102,225.21,o),
(495.819,59.186,cs),
(496.538,54.632,o),
(497.214,52.916,o),
(502.418,51.76,c),
(503.311,51.679,l),
(503.696,57.72,o),
(505.039,66.307,o),
(508.184,74.484,cs),
(516.629,96.44,o),
(532.265,100.519,o),
(543.243,83.63,cs),
(565.498,49.391,o),
(559.056,-2.272,o),
(542.445,-26.64,cs),
(529.706,-45.329,o),
(512.174,-50.194,o),
(497.582,-47.762,c),
(464.824,-40.483,o),
(452.753,-0.143,o),
(448.181,28.811,cs),
(418.852,211.071,o),
(417.345,378.999,o),
(277,378.999,cs),
(135.527,378.999,o),
(135.156,210.831,o),
(104.778,28.565,cs),
(100.367,0.629,o),
(88.052,-40.319,o),
(56.499,-47.744,c),
(37.936,-50.837,o),
(22.78,-43.788,o),
(10.887,-26.206,cs),
(-6.467,-0.546,o),
(-11.359,52.076,o),
(11.469,84.687,cs)
);
}
);
width = 554;
}
);
unicode = 88;
},
{
glyphname = Y;
layers = (
{
layerId = "0F7E5E12-47E7-4249-B9AE-11F637CCDB2F";
shapes = (
{
closed = 1;
nodes = (
(75.493,667.46,o),
(77.191,681.039,o),
(84.049,690.888,cs),
(90.683,700.414,o),
(102.305,706.698,o),
(115.552,704.969,c),
(138.068,702.468,o),
(147,677.759,o),
(147,658,cs),
(147,615.19,o),
(133.65,574.304,o),
(119.876,534.583,cs),
(100.355,478.289,o),
(79.883,424.221,o),
(91.901,366.989,cs),
(113.229,261.317,o),
(223.192,203,o),
(338,203,cs),
(451.795,203,o),
(561.769,261.308,o),
(583.103,367.008,cs),
(595.113,424.2,o),
(574.708,478.104,o),
(555.124,534.583,cs),
(541.35,574.304,o),
(528,615.19,o),
(528,658,cs),
(528,672.667,o),
(533.539,686.38,o),
(542.544,695.392,cs),
(550.996,703.852,o),
(562.688,708.268,o),
(575.272,704.835,cs),
(584.257,702.471,o),
(591.066,696.824,o),
(595.02,689.702,cs),
(600.875,679.154,o),
(600.392,665.487,o),
(591.904,654.877,cs),
(590.174,652.714,o),
(587.04,652.365,o),
(584.877,654.096,cs),
(582.714,655.826,o),
(582.365,658.96,o),
(584.096,661.123,cs),
(589.953,668.445,o),
(590.239,677.711,o),
(586.277,684.848,cs),
(583.623,689.628,o),
(579.03,693.506,o),
(572.684,695.176,cs),
(564.114,697.514,o),
(556,694.712,o),
(549.618,688.324,cs),
(542.666,681.366,o),
(538,670.281,o),
(538,658,cs),
(538,617.091,o),
(550.759,577.692,o),
(564.572,537.86,cs),
(584.026,481.758,o),
(605.476,424.888,o),
(592.901,365.011,cs),
(570.231,252.692,o),
(454.205,193,o),
(338,193,cs),
(220.808,193,o),
(104.771,252.683,o),
(82.103,364.992,cs),
(69.52,424.909,o),
(91.038,481.943,o),
(110.428,537.859,cs),
(124.241,577.692,o),
(137,617.09,o),
(137,658,cs),
(137,672.173,o),
(131.32,693.156,o),
(114.353,695.042,c),
(105.068,696.253,o),
(96.967,691.939,o),
(92.256,685.173,cs),
(87.394,678.193,o),
(86.312,668.865,o),
(91.287,660.572,cs),
(92.713,658.197,o),
(91.948,655.138,o),
(89.572,653.712,cs),
(87.197,652.287,o),
(84.138,653.052,o),
(82.713,655.428,cs)
);
},
{
closed = 1;
nodes = (
(586,423.77,o),
(588.23,426,o),
(591,426,cs),
(593.77,426,o),
(596,423.77,o),
(596,421,cs),
(596,370.156,o),
(615.255,316.795,o),
(631.339,261.607,cs),
(644.672,215.855,o),
(655.521,169.352,o),
(648.951,124.301,cs),
(636.653,37.193,o),
(562.677,-32.32,o),
(476.454,-22.97,cs),
(411.919,-15.799,o),
(364.508,36.633,o),
(308.003,61.416,cs),
(208.513,104.758,o),
(93.481,87.622,o),
(35.201,-2.711,cs),
(33.7,-5.038,o),
(30.617,-5.703,o),
(28.289,-4.201,cs),
(25.962,-2.7,o),
(25.297,0.383,o),
(26.799,2.711,cs),
(88.519,98.378,o),
(209.487,115.242,o),
(312.003,70.581,cs),
(369.572,45.332,o),
(416.056,-6.198,o),
(477.539,-13.029,cs),
(557.323,-21.68,o),
(627.347,42.807,o),
(639.052,125.722,cs),
(645.285,168.46,o),
(635.054,213.117,o),
(621.738,258.809,cs),
(605.993,312.838,o),
(586,368.235,o),
(586,421,cs)
);
}
);
width = 676;
},
{
layerId = "584B1CA6-921E-4923-A283-D75AE04BC333";
shapes = (
{
closed = 1;
nodes = (
(48.865,656.472,o),
(58.353,706.792,o),
(73.571,728.645,cs),
(85.959,746.435,o),
(102.773,751.7,o),
(116.507,749.909,c),
(126.863,748.758,o),
(137.29,743.008,o),
(145.875,732.076,cs),
(158.433,716.086,o),
(167,689.594,o),
(167,658,cs),
(167,597.568,o),
(148.429,544.448,o),
(135.695,507.727,cs),
(115.665,449.964,o),
(103.118,418.361,o),
(110.182,384.716,cs),
(124.984,311.383,o),
(218.134,248,o),
(338,248,cs),
(456.822,248,o),
(550.01,311.352,o),
(564.884,385.039,cs),
(571.638,417.201,o),
(561.266,444.394,o),
(539.305,507.727,cs),
(525.319,548.06,o),
(508,600.345,o),
(508,658,cs),
(508,698.424,o),
(522.755,724.424,o),
(534.892,736.572,cs),
(547.315,749.006,o),
(562.416,753.622,o),
(577.32,749.557,cs),
(588.089,746.723,o),
(599.207,739.149,o),
(607.38,724.427,cs),
(627.067,688.963,o),
(619.609,638.549,o),
(601.25,615.6,cs),
(589.505,600.919,o),
(574.14,608.011,o),
(566.8,631.5,cs),
(564.277,639.574,o),
(563.313,647.9,o),
(563.274,650.537,c),
(562.581,650.404,o),
(560.309,649.729,o),
(558.449,648.167,c),
(559.708,632.515,o),
(565.476,607.726,o),
(580.391,564.716,cs),
(599.336,510.083,o),
(628.711,430.748,o),
(611.116,346.961,cs),
(582.247,203.929,o),
(450.814,148,o),
(338,148,cs),
(224.611,148,o),
(92.815,203.619,o),
(63.884,346.961,cs),
(46.045,431.909,o),
(77.596,515.653,o),
(94.609,564.715,cs),
(106.97,600.361,o),
(115.425,626.955,o),
(116.648,649.315,c),
(116.607,649.335,o),
(115.519,649.866,o),
(113.493,650.092,c),
(110.528,650.478,o),
(112.085,640.101,o),
(106.206,625.991,cs),
(97.339,604.711,o),
(81.635,601.856,o),
(70.995,619.589,cs)
);
},
{
closed = 1;
nodes = (
(566,448.7,o),
(577.15,471,o),
(591,471,cs),
(604.85,471,o),
(616,448.7,o),
(616,421,cs),
(616,393.672,o),
(626.347,360.157,o),
(648.137,285.386,cs),
(660.997,241.259,o),
(677.75,177.86,o),
(668.059,111.414,cs),
(650.808,-10.78,o),
(560.438,-77.121,o),
(475.63,-67.925,cs),
(406.248,-60.216,o),
(349.653,-2.58,o),
(304.679,17.146,cs),
(206.13,60.078,o),
(97.47,39.77,o),
(46.314,-39.521,cs),
(35.367,-56.489,o),
(19.724,-52.523,o),
(11.24,-30.629,cs),
(2.755,-8.734,o),
(4.738,22.553,o),
(15.686,39.521,cs),
(84.53,146.23,o),
(211.87,159.922,o),
(315.338,114.847,cs),
(377.176,87.725,o),
(410.452,39.471,o),
(478.353,31.927,cs),
(559.562,23.121,o),
(613.192,90.78,o),
(620,139,cs),
(623.056,159.952,o),
(618.729,187.712,o),
(604.939,235.03,cs),
(590.113,285.906,o),
(566,355.856,o),
(566,421,cs)
);
}
);
width = 676;
}
);
unicode = 89;
},
{
glyphname = Z;
layers = (
{
layerId = "0F7E5E12-47E7-4249-B9AE-11F637CCDB2F";
shapes = (
{
closed = 1;
nodes = (
(65.657,669.219,o),
(68.875,680.834,o),
(75.589,689.639,cs),
(84.515,701.345,o),
(99.695,708.16,o),
(115.981,704.903,cs),
(138.869,700.325,o),
(150.054,677.432,o),
(161.216,660.689,c),
(240.238,536.789,o),
(420.757,536.744,o),
(500.766,660.66,c),
(511.415,678.085,o),
(523.698,700.439,o),
(546.019,704.903,cs),
(575.692,710.837,o),
(600.041,683.032,o),
(593.6,655.625,c),
(35.673,42.735,l),
(32.353,21.777,o),
(50.947,3.688,o),
(72.019,7.903,cs),
(89.17,11.333,o),
(99.082,28.541,o),
(110.758,47.647,cs),
(205.716,199.784,o),
(428.284,199.784,o),
(523.254,47.627,cs),
(534.461,29.289,o),
(544.18,11.463,o),
(561.981,7.903,cs),
(571.79,5.941,o),
(580.81,8.794,o),
(587.451,14.516,cs),
(595.412,21.375,o),
(599.957,32.37,o),
(598.063,44.21,cs),
(597.625,46.945,o),
(599.475,49.5,o),
(602.21,49.937,cs),
(604.945,50.375,o),
(607.5,48.525,o),
(607.937,45.79,cs),
(610.395,30.431,o),
(604.496,16.002,o),
(593.978,6.94,cs),
(585.128,-0.685,o),
(573.011,-4.501,o),
(560.019,-1.903,cs),
(537.17,2.667,o),
(525.082,25.459,o),
(514.758,42.353,cs),
(423.716,188.216,o),
(210.284,188.216,o),
(119.254,42.373,cs),
(108.461,24.711,o),
(96.18,2.537,o),
(73.98,-1.903,cs),
(44.308,-7.837,o),
(19.959,19.968,o),
(26.4,47.375,c),
(584.327,660.265,l),
(587.647,681.223,o),
(569.053,699.311,o),
(547.98,695.097,cs),
(530.83,691.667,o),
(520.917,674.46,o),
(509.2,655.288,c),
(425.243,525.256,o),
(235.762,525.211,o),
(152.812,655.269,c),
(140.742,673.373,o),
(131.907,691.519,o),
(114.019,695.097,cs),
(101.74,697.553,o),
(90.313,692.456,o),
(83.541,683.575,cs),
(78.475,676.933,o),
(76.056,668.216,o),
(77.903,658.981,cs),
(78.446,656.264,o),
(76.697,653.64,o),
(73.98,653.097,cs),
(71.264,652.554,o),
(68.64,654.303,o),
(68.097,657.019,cs)
);
}
);
width = 634;
},
{
layerId = "584B1CA6-921E-4923-A283-D75AE04BC333";
shapes = (
{
closed = 1;
nodes = (
(41.111,682.815,o),
(55.72,715.127,o),
(65.857,728.42,cs),
(79.721,746.602,o),
(99.171,753.415,o),
(117.488,749.752,cs),
(145.178,744.214,o),
(159.958,716.056,o),
(172.212,697.675,c),
(172.424,697.35,l),
(244.312,584.636,o),
(416.649,584.403,o),
(489.693,697.532,c),
(489.431,697.115,l),
(507.016,725.89,o),
(521.224,745.094,o),
(544.512,749.752,cs),
(578.665,756.582,o),
(635.965,729.663,o),
(608.26,622.111,c),
(43.036,1.176,l),
(51.251,58.233,l),
(51.383,58.029,o),
(57.604,50.17,o),
(70.512,52.752,cs),
(82.952,55.24,o),
(89.17,67.335,o),
(99.37,84.023,cs),
(201.505,247.659,o),
(432.495,247.659,o),
(534.73,83.86,cs),
(547.113,63.599,o),
(551.245,55.2,o),
(563.488,52.752,cs),
(568.741,51.701,o),
(573.49,52.515,o),
(577.175,54.292,c),
(578.51,55.009,l),
(578.858,62.798,o),
(584.074,85.385,o),
(595.381,92.621,cs),
(608.572,101.063,o),
(622.589,86.621,o),
(626.811,60.238,cs),
(635.47,6.118,o),
(611.881,-25.478,o),
(600.606,-35.192,cs),
(588.146,-45.927,o),
(573.117,-49.673,o),
(558.512,-46.752,cs),
(541.624,-43.374,o),
(526.205,-31.392,o),
(503.37,5.977,cs),
(419.505,140.341,o),
(214.495,140.341,o),
(130.73,6.14,cs),
(113.015,-22.85,o),
(98.97,-42.055,o),
(75.487,-46.752,cs),
(41.335,-53.582,o),
(-15.965,-26.663,o),
(11.74,80.888,c),
(576.964,701.824,l),
(568.749,644.767,l),
(568.617,644.97,o),
(562.396,652.83,o),
(549.487,650.248,cs),
(537.048,647.76,o),
(530.826,635.669,o),
(520.569,618.885,c),
(520.307,618.467,l),
(429.351,477.597,o),
(231.688,477.363,o),
(141.576,618.65,c),
(141.788,618.325,l),
(129.117,637.331,o),
(125.298,647.691,o),
(112.512,650.248,cs),
(107.043,651.342,o),
(101.97,650.423,o),
(98.048,648.43,c),
(97.478,648.108,l),
(96.807,639.128,o),
(92.894,620.064,o),
(82.285,611.576,cs),
(69.425,601.288,o),
(54.932,613.711,o),
(49.788,639.43,cs)
);
}
);
width = 634;
}
);
unicode = 90;
},
{
glyphname = registered;
layers = (
{
layerId = "0F7E5E12-47E7-4249-B9AE-11F637CCDB2F";
shapes = (
{
closed = 1;
nodes = (
(29.467,46.493,o),
(32.387,47.683,o),
(34.94,46.608,cs),
(37.493,45.533,o),
(38.683,42.613,o),
(37.608,40.06,cs),
(34.12,31.774,o),
(35.679,23.056,o),
(40.517,16.62,cs),
(44.834,10.879,o),
(51.734,7,o),
(60,7,cs),
(68.958,7,o),
(76.326,11.56,o),
(80.524,18.12,cs),
(84.964,25.059,o),
(85.442,33.57,o),
(82,40.943,c),
(82,680,ls),
(82,682.77,o),
(84.23,685,o),
(87,685,cs),
(89.77,685,o),
(92,682.77,o),
(92,680,cs),
(92.039,42.867,l),
(96.084,32.301,o),
(94.423,21.287,o),
(88.948,12.73,cs),
(83.008,3.448,o),
(72.543,-3,o),
(60,-3,cs),
(48.443,-3,o),
(38.639,2.477,o),
(32.524,10.611,cs),
(25.692,19.699,o),
(23.432,32.16,o),
(28.392,43.94,cs)
);
},
{
closed = 1;
nodes = (
(-3.639,716.518,o),
(313.257,832.288,o),
(444.206,628.703,cs),
(594.346,394.811,o),
(289.993,136.353,o),
(83.643,323.295,cs),
(81.59,325.154,o),
(81.435,328.304,o),
(83.295,330.357,cs),
(85.154,332.41,o),
(88.304,332.565,o),
(90.357,330.705,cs),
(288.007,151.647,o),
(579.654,399.189,o),
(435.794,623.297,cs),
(310.743,817.712,o),
(7.64,707.482,o),
(37.957,477.654,cs),
(38.32,474.908,o),
(36.4,472.405,o),
(33.654,472.043,cs),
(30.908,471.681,o),
(28.405,473.6,o),
(28.043,476.346,cs)
);
},
{
closed = 1;
nodes = (
(188.732,446.032,o),
(378.024,416.313,o),
(444.53,275.116,cs),
(494.908,166.3,o),
(483.684,1.174,o),
(602.823,6.997,c),
(622.848,7.436,o),
(675.986,16.814,o),
(679.005,83.227,cs),
(679.131,85.994,o),
(681.46,88.121,o),
(684.227,87.995,cs),
(686.994,87.869,o),
(689.121,85.54,o),
(688.995,82.773,cs),
(686.882,36.29,o),
(649.884,-1.936,o),
(603.242,-2.994,c),
(474.785,-9.21,o),
(484.2,165.626,o),
(435.477,270.869,cs),
(371.975,405.687,o),
(191.267,433.968,o),
(90.695,323.632,cs),
(88.829,321.584,o),
(85.679,321.439,o),
(83.632,323.305,cs),
(81.584,325.171,o),
(81.439,328.321,o),
(83.305,330.368,cs)
);
}
);
width = 605;
},
{
layerId = "584B1CA6-921E-4923-A283-D75AE04BC333";
shapes = (
{
closed = 1;
nodes = (
(22.799,95.395,o),
(38.509,98.088,o),
(49.103,80.246,cs),
(54.445,71.25,o),
(57.195,58.985,o),
(57.486,52.192,c),
(57.69,52.153,o),
(58.514,52,o),
(60,52,cs),
(61.252,52,o),
(61.916,52.097,o),
(62,52.114,c),
(62,680,ls),
(62,707.7,o),
(73.15,730,o),
(87,730,cs),
(100.85,730,o),
(112,707.7,o),
(112,680,cs),
(112.019,54.568,l),
(119.119,18.425,o),
(108.697,-10.583,o),
(100.129,-23.974,cs),
(88.518,-42.118,o),
(72.693,-48,o),
(60,-48,cs),
(46.247,-48,o),
(32.844,-41.542,o),
(22.676,-28.018,cs),
(10.12,-11.316,o),
(-3.889,32.011,o),
(13.877,74.207,cs)
);
},
{
closed = 1;
nodes = (
(-30.459,762.062,o),
(311.683,888.823,o),
(455.353,665.461,cs),
(630.343,392.856,o),
(311.201,68.997,o),
(76.685,281.455,cs),
(64.069,292.884,o),
(58.513,322.399,o),
(64.227,347.631,cs),
(69.942,372.863,o),
(84.699,383.975,o),
(97.315,372.545,cs),
(266.998,218.823,o),
(540.055,406.754,o),
(424.647,586.539,cs),
(311.432,762.553,o),
(34.982,657.978,o),
(57.173,489.755,cs),
(60.706,462.972,o),
(52.769,435.721,o),
(39.378,428.654,cs),
(25.986,421.588,o),
(12.36,437.461,o),
(8.827,464.245,cs)
);
},
{
closed = 1;
nodes = (
(184.866,491.396,o),
(383.204,466.502,o),
(458.271,307.128,cs),
(515.702,183.076,o),
(494.637,46.769,o),
(602.556,51.991,c),
(638.245,52.802,o),
(657.322,78.578,o),
(659.198,88.516,c),
(659.103,87.527,l),
(660.357,115.113,o),
(672.47,135.303,o),
(686.263,132.795,cs),
(700.057,130.287,o),
(710.151,106.06,o),
(708.897,78.473,cs),
(704.792,-11.847,o),
(645.834,-47.03,o),
(603.444,-47.991,c),
(463.617,-54.757,o),
(464.825,145.787,o),
(421.803,238.715,cs),
(366.796,355.498,o),
(195.134,388.604,o),
(99.024,283.162,cs),
(86.881,269.84,o),
(71.742,278.667,o),
(65.081,302.953,cs),
(58.42,327.239,o),
(62.834,357.516,o),
(74.977,370.838,cs)
);
}
);
width = 605;
}
);
unicode = 174;
},
{
glyphname = two;
layers = (
{
layerId = "0F7E5E12-47E7-4249-B9AE-11F637CCDB2F";
shapes = (
{
closed = 1;
nodes = (
(30.663,545.101,o),
(154.506,729.398,o),
(328.528,710.972,cs),
(444.252,698.683,o),
(526.751,587.958,o),
(495.809,478.632,cs),
(489.345,456.006,o),
(479.772,436.613,o),
(465.585,419.489,c),
(25.622,40.404,l),
(22.554,19.63,o),
(41.069,1.555,o),
(62.137,4.924,c),
(79.671,8.264,o),
(90.171,26.685,o),
(101.781,45.683,c),
(199.735,199.756,o),
(426.261,199.795,o),
(523.196,45.718,c),
(535.235,27.659,o),
(544.137,8.491,o),
(562.79,4.937,c),
(570.944,3.633,o),
(578.873,5.517,o),
(585.381,9.571,cs),
(596.197,16.308,o),
(602.75,28.757,o),
(600.097,42.019,cs),
(599.554,44.736,o),
(601.303,47.36,o),
(604.019,47.903,cs),
(606.736,48.446,o),
(609.36,46.697,o),
(609.903,43.98,cs),
(613.481,26.089,o),
(604.524,9.713,o),
(590.668,1.082,cs),
(582.251,-4.16,o),
(571.902,-6.648,o),
(561.137,-4.925,c),
(536.635,-0.258,o),
(526.05,23.413,o),
(514.768,40.337,c),
(421.739,188.204,o),
(204.265,188.244,o),
(110.243,40.355,c),
(99.578,22.903,o),
(87.217,-0.476,o),
(63.863,-4.925,c),
(33.631,-9.762,o),
(9.66,17.692,o),
(16.479,45.705,c),
(458.396,426.49,l),
(471.731,442.78,o),
(480.379,461.026,o),
(486.189,481.361,cs),
(515.249,584.042,o),
(437.748,689.317,o),
(327.473,701.028,cs),
(161.494,718.602,o),
(43.337,542.899,o),
(124.368,397.433,cs),
(125.716,395.013,o),
(124.853,391.98,o),
(122.433,390.632,cs),
(120.013,389.284,o),
(116.98,390.147,o),
(115.632,392.567,cs)
);
}
);
width = 626;
},
{
layerId = "584B1CA6-921E-4923-A283-D75AE04BC333";
shapes = (
{
closed = 1;
nodes = (
(7.18,530.345,o),
(117.151,778.395,o),
(329.324,755.93,cs),
(471.379,740.844,o),
(551.726,593.062,o),
(512.731,455.282,cs),
(503.783,423.962,o),
(491.002,399.136,o),
(473.411,378.389,c),
(30.892,-2.919,l),
(41.327,56.057,l),
(41.572,55.677,o),
(47.935,47.747,o),
(60.818,49.808,c),
(73.001,52.128,o),
(80.293,65.53,o),
(90.545,82.302,c),
(195.566,247.491,o),
(430.4,247.694,o),
(534.555,82.144,c),
(534.277,82.572,l),
(546.903,63.633,o),
(550.825,52.352,o),
(564.182,49.808,c),
(569.105,49.02,o),
(575.146,50.11,o),
(579.307,52.325,c),
(580.537,53.034,l),
(581.174,61.554,o),
(584.989,80.843,o),
(595.715,89.424,cs),
(608.575,99.711,o),
(623.068,87.288,o),
(628.212,61.57,cs),
(639.712,4.068,o),
(607.03,-35.203,o),
(595.458,-42.412,cs),
(584.637,-49.152,o),
(572.271,-51.8,o),
(559.818,-49.808,c),
(529.879,-44.105,o),
(516.192,-15.276,o),
(503.723,3.428,cs),
(503.446,3.856,ls),
(417.6,140.306,o),
(208.434,140.509,o),
(121.643,4,c),
(112.89,-10.323,o),
(94.412,-44.24,o),
(65.182,-49.808,c),
(30.022,-55.434,o),
(-26.823,-28.163,o),
(2.403,81.42,c),
(450.343,467.398,l),
(454.862,472.886,o),
(464.173,486.884,o),
(469.269,504.718,cs),
(486.26,564.754,o),
(419.27,646.237,o),
(326.677,656.07,cs),
(202.413,669.227,o),
(70.2,551.587,o),
(136.699,432.209,cs),
(147.006,413.706,o),
(147.856,382.215,o),
(138.605,361.601,cs),
(129.353,340.987,o),
(113.608,339.288,o),
(103.301,357.791,cs)
);
}
);
width = 626;
}
);
unicode = 50;
},
{
glyphname = a;
layers = (
{
layerId = "0F7E5E12-47E7-4249-B9AE-11F637CCDB2F";
shapes = (
{
closed = 1;
nodes = (
(71.726,462.438,o),
(146.716,521.028,o),
(233.052,520,cs),
(346.934,518.974,o),
(435.211,422.418,o),
(426,309.835,c),
(426,52.005,l),
(424.555,48.649,o),
(417.326,30.654,o),
(433.076,15.236,cs),
(438.846,9.589,o),
(446.79,6,o),
(456,6,cs),
(466.871,6,o),
(476.14,11.468,o),
(481.844,19.665,cs),
(487.875,28.334,o),
(489.836,39.947,o),
(485.358,51.143,cs),
(484.329,53.715,o),
(485.571,56.614,o),
(488.143,57.642,cs),
(490.715,58.671,o),
(493.614,57.429,o),
(494.642,54.857,cs),
(500.419,40.414,o),
(497.922,25.264,o),
(490.052,13.953,cs),
(482.635,3.294,o),
(470.426,-4,o),
(456,-4,cs),
(444.12,-4,o),
(433.68,0.652,o),
(426.081,8.09,cs),
(414.325,19.599,o),
(409.526,37.652,o),
(416,53.837,c),
(416,310.206,l),
(424.898,417.55,o),
(340.979,509.027,o),
(232.94,510,cs),
(151.286,510.972,o),
(80.274,455.563,o),
(59.84,376.745,cs),
(59.145,374.063,o),
(56.426,372.464,o),
(53.745,373.16,cs),
(51.064,373.855,o),
(49.465,376.573,o),
(50.16,379.255,cs)
);
},
{
closed = 1;
nodes = (
(426,91.133,o),
(111.807,278.415,o),
(49.32,170.482,cs),
(-2.344,82.463,o),
(98.121,-29.324,o),
(232.05,-4.091,cs),
(323.117,13.535,o),
(395.564,83.053,o),
(416.123,174.101,cs),
(416.733,176.803,o),
(419.399,178.487,o),
(422.101,177.877,cs),
(424.803,177.267,o),
(426.487,174.601,o),
(425.877,171.899,cs),
(404.437,76.947,o),
(328.883,4.465,o),
(233.938,-13.911,cs),
(91.708,-40.708,o),
(-15.573,79.679,o),
(40.68,175.518,cs),
(110.181,295.564,o),
(416,98.871,o),
(416,310,cs),
(416,312.77,o),
(418.23,315,o),
(421,315,cs),
(423.77,315,o),
(426,312.77,o),
(426,310,cs)
);
}
);
width = 523;
},
{
layerId = "584B1CA6-921E-4923-A283-D75AE04BC333";
shapes = (
{
closed = 1;
nodes = (
(59.858,505.359,o),
(143.867,566.062,o),
(233.131,565,cs),
(368.462,563.781,o),
(456.809,438.824,o),
(446,306.715,c),
(446,53.029,l),
(446.232,52.911,o),
(450.145,51,o),
(456,51,cs),
(460.284,51,o),
(463.792,52.139,o),
(464.996,52.796,c),
(464.884,65.873,o),
(467.704,81.357,o),
(474.383,92.044,cs),
(485.198,109.348,o),
(500.87,105.865,o),
(509.522,84.235,cs),
(522.783,51.08,o),
(520.514,4.917,o),
(500.537,-23.794,cs),
(487.991,-41.826,o),
(471.138,-49,o),
(456,-49,cs),
(442.218,-49,o),
(429.187,-43.621,o),
(418.588,-33.246,cs),
(403.885,-18.852,o),
(383.282,16.872,o),
(396,64.861,c),
(396,314.477,l),
(403.157,385.546,o),
(330.365,464.122,o),
(232.851,465,cs),
(150.488,465.98,o),
(91.195,408.987,o),
(77.194,354.983,cs),
(70.819,330.392,o),
(55.788,320.861,o),
(43.492,333.611,cs),
(31.197,346.362,o),
(26.431,376.424,o),
(32.806,401.016,cs)
);
},
{
closed = 1;
nodes = (
(446,23.776,o),
(118.779,234.371,o),
(61.276,135.048,cs),
(36.896,93.512,o),
(130.697,21.947,o),
(230.592,40.768,cs),
(322.201,58.498,o),
(383.209,127.123,o),
(398.216,193.579,cs),
(403.916,218.824,o),
(418.667,229.969,o),
(431.29,218.569,cs),
(443.912,207.168,o),
(449.485,177.666,o),
(443.784,152.421,cs),
(416.791,32.877,o),
(329.799,-40.498,o),
(235.376,-58.774,cs),
(53.489,-93.042,o),
(-43.521,87.867,o),
(28.724,210.952,cs),
(99.797,333.714,o),
(396,176.662,o),
(396,310,cs),
(396,337.7,o),
(407.15,360,o),
(421,360,cs),
(434.85,360,o),
(446,337.7,o),
(446,310,cs)
);
}
);
width = 523;
}
);
unicode = 97;
},
{
glyphname = b;
layers = (
{
layerId = "0F7E5E12-47E7-4249-B9AE-11F637CCDB2F";
shapes = (
{
closed = 1;
nodes = (
(109.239,415.642,o),
(196.91,523.838,o),
(314.909,514.244,cs),
(432.831,503.698,o),
(500.407,383.305,o),
(502.279,259.741,cs),
(505.086,130.61,o),
(436.696,1.648,o),
(314.887,-8.902,cs),
(168.264,-21.36,o),
(69.867,133.475,o),
(92.359,292.793,cs)
);
},
{
closed = 1;
nodes = (
(80.213,135.229,o),
(176.696,-10.608,o),
(314.033,1.061,cs),
(427.944,10.928,o),
(495.042,132.526,o),
(492.281,259.556,cs),
(490.441,380.95,o),
(424.385,494.414,o),
(314.059,504.28,cs),
(203.73,513.25,o),
(118.793,411.718,o),
(102.263,291.413,cs)
);
},
{
closed = 1;
nodes = (
(99,-1,ls),
(99,-3.77,o),
(96.77,-6,o),
(94,-6,cs),
(91.23,-6,o),
(89,-3.77,o),
(89,-1,cs),
(89,646.996,l),
(90.475,650.418,o),
(97.226,667.397,o),
(83.064,683.212,cs),
(77.192,689.769,o),
(68.789,694,o),
(59,694,cs),
(48.599,694,o),
(39.558,689.221,o),
(33.531,681.949,cs),
(25.977,672.836,o),
(23.298,660.01,o),
(28.577,648.014,cs),
(29.692,645.478,o),
(28.549,642.539,o),
(26.014,641.423,cs),
(23.478,640.308,o),
(20.539,641.451,o),
(19.423,643.986,cs),
(12.516,659.684,o),
(16.047,676.526,o),
(25.832,688.331,cs),
(33.62,697.727,o),
(45.4,704,o),
(59,704,cs),
(71.77,704,o),
(82.842,698.449,o),
(90.513,689.883,cs),
(101.098,678.063,o),
(105.157,660.551,o),
(99,645.158,c)
);
}
);
width = 536;
},
{
layerId = "584B1CA6-921E-4923-A283-D75AE04BC333";
shapes = (
{
closed = 1;
nodes = (
(94.457,460.026,o),
(196.329,568.91,o),
(315.581,559.214,cs),
(434.968,548.537,o),
(519.817,422.968,o),
(522.268,261.146,c),
(522.256,261.804,l),
(525.955,91.656,o),
(438.611,-43.214,o),
(315.535,-53.874,cs),
(153.399,-67.65,o),
(46.274,114.598,o),
(73.206,305.361,cs)
);
},
{
closed = 1;
nodes = (
(104.231,157.12,o),
(190.739,35.613,o),
(313.382,46.033,cs),
(426.029,55.79,o),
(474.173,171.48,o),
(472.304,257.46,c),
(472.292,258.118,l),
(471.031,341.288,o),
(422.248,449.575,o),
(313.449,459.305,cs),
(204.311,468.178,o),
(133.575,367.334,o),
(121.395,278.694,cs)
);
},
{
closed = 1;
nodes = (
(119,-1,ls),
(119,-28.7,o),
(107.85,-51,o),
(94,-51,cs),
(80.15,-51,o),
(69,-28.7,o),
(69,-1,cs),
(69,646.872,l),
(68.333,647.252,o),
(64.161,649,o),
(59,649,cs),
(54.892,649,o),
(51.323,648.033,o),
(48.972,646.886,c),
(49.239,638.557,o),
(47.844,621.362,o),
(40.516,608.464,cs),
(30.118,590.165,o),
(14.382,592.174,o),
(5.232,612.969,cs),
(-10.406,648.51,o),
(-6.581,699.785,o),
(16.768,727.954,cs),
(28.871,742.555,o),
(44.307,749,o),
(59,749,cs),
(73.871,749,o),
(87.91,742.56,o),
(98.976,730.204,cs),
(112.896,714.66,o),
(130.991,678.51,o),
(119,634.054,c)
);
}
);
width = 536;
}
);
unicode = 98;
},
{
glyphname = c;
layers = (
{
layerId = "0F7E5E12-47E7-4249-B9AE-11F637CCDB2F";
shapes = (
{
closed = 1;
nodes = (
(426.659,433.802,o),
(426.224,430.679,o),
(424.013,429.01,cs),
(421.802,427.341,o),
(418.679,427.776,o),
(417.01,429.987,cs),
(380.786,477.959,o),
(330.172,508,o),
(269,508,cs),
(146.977,508,o),
(65,385.636,o),
(65,252,cs),
(65,117.351,o),
(146.987,-5,o),
(269,-5,cs),
(330.13,-5,o),
(380.773,26.004,o),
(417.04,73.053,cs),
(418.731,75.246,o),
(421.859,75.651,o),
(424.053,73.96,cs),
(426.246,72.269,o),
(426.651,69.141,o),
(424.96,66.948,cs),
(387.227,17.997,o),
(333.87,-15,o),
(269,-15,cs),
(139.013,-15,o),
(55,114.649,o),
(55,252,cs),
(55,388.364,o),
(139.023,518,o),
(269,518,cs),
(333.828,518,o),
(387.214,486.041,o),
(424.99,436.013,cs)
);
}
);
width = 482;
},
{
layerId = "584B1CA6-921E-4923-A283-D75AE04BC333";
shapes = (
{
closed = 1;
nodes = (
(446.35,459.396,o),
(449.491,428.491,o),
(441.845,405.395,cs),
(434.198,382.299,o),
(418.745,376.018,o),
(407.198,391.311,cs),
(375.034,433.906,o),
(328.066,463,o),
(269,463,cs),
(146.493,463,o),
(85,342.522,o),
(85,252,cs),
(85,160.39,o),
(146.559,40,o),
(269,40,cs),
(327.883,40,o),
(375.004,69.927,o),
(407.395,111.948,cs),
(419.015,127.022,o),
(434.437,120.449,o),
(441.974,97.21,cs),
(449.511,73.97,o),
(446.224,43.126,o),
(434.605,28.052,cs),
(392.996,-25.927,o),
(336.117,-60,o),
(269,-60,cs),
(139.441,-60,o),
(35,71.61,o),
(35,252,cs),
(35,431.478,o),
(139.507,563,o),
(269,563,cs),
(335.934,563,o),
(392.966,530.094,o),
(434.802,474.689,cs)
);
}
);
width = 482;
}
);
unicode = 99;
},
{
glyphname = d;
layers = (
{
layerId = "0F7E5E12-47E7-4249-B9AE-11F637CCDB2F";
shapes = (
{
closed = 1;
nodes = (
(455.787,135.229,o),
(359.304,-10.608,o),
(221.967,1.061,cs),
(108.056,10.928,o),
(40.958,132.526,o),
(43.719,259.556,cs),
(45.559,380.95,o),
(111.615,494.414,o),
(221.941,504.28,cs),
(332.27,513.25,o),
(417.207,411.718,o),
(433.737,291.413,cs)
);
},
{
closed = 1;
nodes = (
(426.761,415.642,o),
(339.09,523.838,o),
(221.091,514.244,cs),
(103.169,503.698,o),
(35.593,383.305,o),
(33.721,259.741,cs),
(30.914,130.61,o),
(99.304,1.648,o),
(221.113,-8.902,cs),
(367.736,-21.36,o),
(466.133,133.475,o),
(443.641,292.793,cs)
);
},
{
closed = 1;
nodes = (
(515.461,56.549,o),
(512.522,57.692,o),
(509.986,56.576,cs),
(507.451,55.461,o),
(506.308,52.522,o),
(507.423,49.986,cs),
(512.361,38.764,o),
(510.336,26.831,o),
(503.879,17.874,cs),
(497.907,9.588,o),
(488.243,4,o),
(477,4,cs),
(466.831,4,o),
(458.151,8.568,o),
(452.257,15.571,cs),
(439.071,31.236,o),
(445.505,47.536,o),
(447,51.004,c),
(447,699,ls),
(447,701.77,o),
(444.77,704,o),
(442,704,cs),
(439.23,704,o),
(437,701.77,o),
(437,699,cs),
(437,52.846,l),
(431.025,37.908,o),
(434.682,20.921,o),
(444.606,9.131,cs),
(452.296,-0.005,o),
(463.729,-6,o),
(477,-6,cs),
(491.707,-6,o),
(504.281,1.33,o),
(511.991,12.027,cs),
(520.373,23.655,o),
(523.033,39.34,o),
(516.577,54.014,cs)
);
}
);
width = 536;
},
{
layerId = "584B1CA6-921E-4923-A283-D75AE04BC333";
shapes = (
{
closed = 1;
nodes = (
(431.769,157.12,o),
(345.261,35.613,o),
(222.618,46.033,cs),
(109.971,55.79,o),
(61.827,171.48,o),
(63.696,257.46,c),
(63.708,258.118,l),
(64.969,341.288,o),
(113.752,449.575,o),
(222.551,459.305,cs),
(331.689,468.178,o),
(402.425,367.334,o),
(414.605,278.694,cs)
);
},
{
closed = 1;
nodes = (
(441.543,460.026,o),
(339.671,568.91,o),
(220.419,559.214,cs),
(101.032,548.537,o),
(16.183,422.968,o),
(13.732,261.146,c),
(13.744,261.804,l),
(10.045,91.656,o),
(97.389,-43.214,o),
(220.465,-53.874,cs),
(382.601,-67.65,o),
(489.726,114.598,o),
(462.794,305.361,cs)
);
},
{
closed = 1;
nodes = (
(521.618,105.826,o),
(505.882,107.835,o),
(495.484,89.536,cs),
(488.155,76.636,o),
(486.761,59.439,o),
(487.028,51.116,c),
(485.229,50.157,o),
(481.465,49,o),
(477,49,cs),
(472.666,49,o),
(469.188,50.082,o),
(467,51.139,c),
(467,699,ls),
(467,726.7,o),
(455.85,749,o),
(442,749,cs),
(428.15,749,o),
(417,726.7,o),
(417,699,cs),
(417,64.025,l),
(405.349,21.389,o),
(422.239,-14.687,o),
(435.664,-30.637,cs),
(446.955,-44.051,o),
(461.553,-51,o),
(477,-51,cs),
(492.442,-51,o),
(509.471,-43.771,o),
(522.184,-26.134,cs),
(543.739,3.769,o),
(545.259,52.098,o),
(530.768,85.031,cs)
);
}
);
width = 536;
}
);
unicode = 100;
},
{
glyphname = e;
layers = (
{
layerId = "0F7E5E12-47E7-4249-B9AE-11F637CCDB2F";
shapes = (
{
closed = 1;
nodes = (
(434.542,72.995,o),
(356.836,-1.659,o),
(259.64,-14.959,cs),
(132.169,-31.407,o),
(52.241,56.426,o),
(40.027,173.485,cs),
(36.51,207.771,o),
(94.214,219.594,o),
(151.536,229.921,cs),
(264.129,250.205,o),
(417.3,269.987,o),
(435.064,377.799,cs),
(448.594,462.846,o),
(356.711,525.376,o),
(259.883,509.079,cs),
(183.098,495.297,o),
(120.594,463.062,o),
(74.445,373.711,cs),
(23.334,274.436,o),
(44.056,140.255,o),
(78.319,81.519,cs),
(79.715,79.127,o),
(78.912,76.077,o),
(76.519,74.681,cs),
(74.127,73.285,o),
(71.077,74.088,o),
(69.681,76.481,cs),
(33.944,137.745,o),
(12.666,275.564,o),
(65.557,378.294,cs),
(113.406,470.938,o),
(178.902,504.703,o),
(258.143,518.926,cs),
(363.453,536.651,o),
(459.379,466.989,o),
(444.936,376.201,cs),
(425.743,259.723,o),
(261.81,239.626,o),
(153.309,220.079,cs),
(90.421,208.749,o),
(47.547,198.171,o),
(49.973,174.519,cs),
(61.758,61.574,o),
(137.831,-20.593,o),
(258.322,-5.046,cs),
(351.164,7.658,o),
(425.458,79.005,o),
(442.078,171.881,cs),
(442.566,174.607,o),
(445.154,176.41,o),
(447.881,175.922,cs),
(450.607,175.434,o),
(452.41,172.846,o),
(451.922,170.119,cs)
);
}
);
width = 488;
},
{
layerId = "584B1CA6-921E-4923-A283-D75AE04BC333";
shapes = (
{
closed = 1;
nodes = (
(447.938,27.859,o),
(356.548,-46.768,o),
(260.61,-59.896,cs),
(134.951,-76.11,o),
(36.779,8.044,o),
(20.519,163.869,cs),
(11.649,250.343,o),
(91.686,264.26,o),
(150.18,274.798,cs),
(204.45,284.576,o),
(402.597,309.749,o),
(416.216,392.405,cs),
(421.913,428.211,o),
(335.303,476.667,o),
(261.235,464.2,cs),
(184.762,450.474,o),
(128.041,418.785,o),
(87.417,340.131,cs),
(48.827,265.178,o),
(63.17,163.419,o),
(90.27,116.963,cs),
(100.785,98.936,o),
(101.995,67.492,o),
(92.981,46.46,cs),
(83.968,25.429,o),
(68.246,23.01,o),
(57.73,41.037,cs),
(12.418,118.716,o),
(-11.088,288.201,o),
(52.597,411.896,cs),
(105.905,515.11,o),
(177.075,549.496,o),
(256.834,563.812,cs),
(375.254,583.744,o),
(485.807,500.027,o),
(463.784,361.595,cs),
(440.619,221.013,o),
(299.765,201.342,o),
(154.666,175.202,cs),
(119.318,168.833,o),
(90.553,162.742,o),
(74.851,155.083,c),
(88.264,104.457,o),
(140.278,24.785,o),
(257.342,39.89,cs),
(345.333,51.931,o),
(409.449,117.543,o),
(422.944,185.11,cs),
(423.462,187.848,ls),
(428.129,213.928,o),
(442.384,227.41,o),
(455.424,218.076,cs),
(468.464,208.742,o),
(475.205,180.232,o),
(470.538,154.152,cs)
);
}
);
width = 488;
}
);
unicode = 101;
},
{
glyphname = f;
layers = (
{
layerId = "0F7E5E12-47E7-4249-B9AE-11F637CCDB2F";
shapes = (
{
closed = 1;
nodes = (
(95,2,ls),
(95,-0.77,o),
(92.77,-3,o),
(90,-3,cs),
(87.23,-3,o),
(85,-0.77,o),
(85,2,cs),
(84.994,524.565,l),
(67.767,616.361,o),
(135.905,701.9,o),
(228.849,704.998,cs),
(297.148,707.067,o),
(357.268,662.542,o),
(373.851,596.213,cs),
(374.523,593.525,o),
(372.9,590.821,o),
(370.213,590.149,cs),
(367.525,589.478,o),
(364.821,591.1,o),
(364.149,593.787,cs),
(348.732,655.458,o),
(292.852,696.933,o),
(229.159,695.003,cs),
(142.327,692.108,o),
(78.217,611.854,o),
(95,525.477,c)
);
},
{
closed = 1;
nodes = (
(229,498,ls),
(231.77,498,o),
(234,495.77,o),
(234,493,cs),
(234,490.23,o),
(231.77,488,o),
(229,488,cs),
(20,488,ls),
(17.23,488,o),
(15,490.23,o),
(15,493,cs),
(15,495.77,o),
(17.23,498,o),
(20,498,cs)
);
}
);
width = 340;
},
{
layerId = "584B1CA6-921E-4923-A283-D75AE04BC333";
shapes = (
{
closed = 1;
nodes = (
(115,2,ls),
(115,-25.7,o),
(103.85,-48,o),
(90,-48,cs),
(76.15,-48,o),
(65,-25.7,o),
(65,2,cs),
(65,517.009,l),
(53.231,589.678,o),
(94.278,745.516,o),
(228.621,749.994,cs),
(295.748,752.028,o),
(368.264,709.749,o),
(391.361,617.361,cs),
(397.555,592.585,o),
(392.568,562.666,o),
(380.18,550.279,cs),
(367.793,537.891,o),
(352.833,547.864,o),
(346.639,572.639,cs),
(337.736,608.251,o),
(294.252,651.972,o),
(229.398,650.006,cs),
(186.83,648.587,o),
(97.589,607.615,o),
(115,535.196,c)
);
},
{
closed = 1;
nodes = (
(229,543,ls),
(242.85,543,o),
(254,520.7,o),
(254,493,cs),
(254,465.3,o),
(242.85,443,o),
(229,443,cs),
(20,443,ls),
(6.15,443,o),
(-5,465.3,o),
(-5,493,cs),
(-5,520.7,o),
(6.15,543,o),
(20,543,cs)
);
}
);
width = 340;
}
);
unicode = 102;
},
{
glyphname = g;
layers = (
{
layerId = "0F7E5E12-47E7-4249-B9AE-11F637CCDB2F";
shapes = (
{
closed = 1;
nodes = (
(61.22,416.938,o),
(148.565,526.282,o),
(268.426,516.982,cs),
(389.244,506.656,o),
(456.982,384.142,o),
(458.999,258.115,cs),
(462.024,127.008,o),
(393.357,-2.625,o),
(268.418,-13.982,cs),
(120.772,-26.372,o),
(20.826,130.137,o),
(44.047,292.685,cs)
);
},
{
closed = 1;
nodes = (
(31.174,131.863,o),
(129.228,-15.628,o),
(267.547,-4.021,cs),
(384.643,6.625,o),
(451.976,128.992,o),
(449,257.92,cs),
(447.017,381.858,o),
(380.756,497.344,o),
(267.613,507.015,cs),
(155.434,515.718,o),
(70.779,413.062,o),
(53.95,291.293,cs)
);
},
{
closed = 1;
nodes = (
(524.246,445.744,o),
(521.117,445.353,o),
(518.93,447.053,cs),
(516.744,448.754,o),
(516.353,451.883,o),
(518.053,454.07,cs),
(524.959,462.949,o),
(525.261,474.492,o),
(520.465,483.626,cs),
(517.116,490.007,o),
(511.331,495.091,o),
(503.745,497.16,cs),
(491.566,500.317,o),
(479.913,495.689,o),
(471.404,485.952,cs),
(463.873,477.335,o),
(459,464.85,o),
(459,451,cs),
(459,39,ls),
(459,7.141,o),
(479.641,-11.343,o),
(507.093,-28.421,cs),
(537.205,-47.155,o),
(575.335,-64.102,o),
(594.242,-94.353,cs),
(639.259,-166.59,o),
(583.127,-261.616,o),
(488.48,-270.977,cs),
(368.96,-282.214,o),
(293.838,-153.717,o),
(183.152,-135.928,cs),
(92.797,-120.383,o),
(7.261,-177.681,o),
(-14.137,-267.163,cs),
(-14.781,-269.857,o),
(-17.469,-271.507,o),
(-20.163,-270.863,cs),
(-22.857,-270.219,o),
(-24.507,-267.531,o),
(-23.863,-264.837,cs),
(-1.261,-170.319,o),
(89.203,-109.617,o),
(184.821,-126.068,cs),
(298.225,-144.294,o),
(373.001,-271.79,o),
(487.52,-261.023,cs),
(574.954,-252.376,o),
(626.7,-165.345,o),
(585.758,-99.647,cs),
(568.539,-72.097,o),
(534.131,-57.019,o),
(501.811,-36.912,cs),
(473.92,-19.561,o),
(449,1.521,o),
(449,39,cs),
(449,451,ls),
(449,467.128,o),
(454.659,481.988,o),
(463.874,492.533,cs),
(474.371,504.544,o),
(489.727,511.125,o),
(506.316,506.824,cs),
(516.828,503.957,o),
(524.773,496.935,o),
(529.32,488.275,cs),
(535.762,476.003,o),
(535.485,460.194,o),
(525.947,447.93,cs)
);
}
);
width = 556;
},
{
layerId = "584B1CA6-921E-4923-A283-D75AE04BC333";
shapes = (
{
closed = 1;
nodes = (
(46.439,461.139,o),
(147.847,571.36,o),
(269.067,561.954,cs),
(391.51,551.489,o),
(476.362,423.651,o),
(478.987,259.599,c),
(478.973,260.305,l),
(482.952,87.916,o),
(395.138,-47.494,o),
(269.092,-58.952,cs),
(105.73,-72.661,o),
(-2.775,111.572,o),
(24.904,305.322,cs)
);
},
{
closed = 1;
nodes = (
(55.197,153.379,o),
(143.509,30.597,o),
(266.865,40.948,cs),
(382.862,51.494,o),
(431.048,168.084,o),
(429.027,255.695,c),
(429.013,256.401,l),
(427.638,342.349,o),
(378.49,452.511,o),
(267.031,462.038,cs),
(156.153,470.64,o),
(85.561,368.861,o),
(73.067,278.471,cs)
);
},
{
closed = 1;
nodes = (
(535.519,408.941,l),
(523.869,393.962,o),
(508.46,400.661,o),
(500.971,423.962,cs),
(497.833,433.723,o),
(496.681,444.657,o),
(497.046,453.119,c),
(490.429,453.462,o),
(484.016,450.378,o),
(480.054,445.844,cs),
(479.284,444.963,o),
(479.002,444.512,o),
(479,444.509,c),
(479,43.495,l),
(481.585,38.859,o),
(489.929,28.731,o),
(511.877,15.077,cs),
(540.712,-2.862,o),
(583.834,-23.102,o),
(605.631,-57.979,cs),
(665.927,-154.733,o),
(603.324,-304.655,o),
(489.204,-315.942,cs),
(366.412,-327.486,o),
(288.866,-198.014,o),
(181.927,-180.828,cs),
(95.375,-165.937,o),
(21.025,-221.368,o),
(4.18,-285.084,cs),
(3.553,-287.573,ls),
(-2.422,-312.562,o),
(-17.292,-323.058,o),
(-29.786,-311.107,cs),
(-42.281,-299.155,o),
(-47.529,-269.416,o),
(-41.553,-244.427,cs),
(-13.197,-125.846,o),
(87.351,-64.188,o),
(186.072,-81.172,cs),
(301.821,-99.775,o),
(376.534,-226.425,o),
(486.796,-216.058,cs),
(546.793,-210.124,o),
(578.663,-165.667,o),
(580.022,-148.948,c),
(579.594,-145.188,o),
(575.143,-137.263,o),
(574.369,-136.021,cs),
(564.84,-120.775,o),
(543.489,-109.315,o),
(497.026,-80.41,cs),
(468.413,-62.61,o),
(429,-32.678,o),
(429,39,cs),
(429,451,ls),
(429,490.106,o),
(442.789,518.412,o),
(455.224,532.641,cs),
(470.293,549.885,o),
(489.558,556.421,o),
(508.296,551.563,cs),
(521.333,548.008,o),
(533.322,538.942,o),
(542.134,522.156,cs),
(554.461,498.676,o),
(562.611,453.269,o),
(540.268,415.902,c)
);
}
);
width = 556;
}
);
unicode = 103;
},
{
glyphname = h;
layers = (
{
layerId = "0F7E5E12-47E7-4249-B9AE-11F637CCDB2F";
shapes = (
{
closed = 1;
nodes = (
(68,149.278,o),
(86.997,301.591,o),
(173.927,423.9,cs),
(216.299,483.423,o),
(278.713,534.135,o),
(353.2,529.996,cs),
(430.804,526.892,o),
(493.892,463.804,o),
(497,386,c),
(497,2,ls),
(497,-0.77,o),
(494.77,-3,o),
(492,-3,cs),
(489.23,-3,o),
(487,-0.77,o),
(487,2,cs),
(487,385.877,l),
(484.066,458.237,o),
(425.169,517.109,o),
(352.722,520.008,cs),
(283.286,523.865,o),
(223.7,476.577,o),
(182.075,418.103,cs),
(97.003,298.409,o),
(78,148.722,o),
(78,2,cs),
(78,-0.77,o),
(75.77,-3,o),
(73,-3,cs),
(70.23,-3,o),
(68,-0.77,o),
(68,2,cs)
);
},
{
closed = 1;
nodes = (
(-7.29,660.263,o),
(-5.037,675.078,o),
(2.583,686.324,cs),
(10.093,697.408,o),
(22.794,705,o),
(38,705,cs),
(51.181,705,o),
(62.753,699.273,o),
(70.587,690.418,cs),
(80.77,678.91,o),
(84.615,662.115,o),
(78,647.08,c),
(78,2,ls),
(78,-0.77,o),
(75.77,-3,o),
(73,-3,cs),
(70.23,-3,o),
(68,-0.77,o),
(68,2,cs),
(68,648,l),
(68,648.234,o),
(68.329,649.8,o),
(68.423,650.014,c),
(73.798,662.229,o),
(70.914,674.958,o),
(63.098,683.792,cs),
(57.1,690.571,o),
(48.23,695,o),
(38,695,cs),
(26.31,695,o),
(16.618,689.211,o),
(10.862,680.715,cs),
(5.044,672.129,o),
(3.264,660.803,o),
(7.642,649.857,cs),
(8.671,647.285,o),
(7.429,644.386,o),
(4.857,643.358,cs),
(2.285,642.329,o),
(-0.614,643.571,o),
(-1.642,646.143,cs)
);
}
);
width = 562;
},
{
layerId = "584B1CA6-921E-4923-A283-D75AE04BC333";
shapes = (
{
closed = 1;
nodes = (
(48,159.795,o),
(68.997,328.768,o),
(163.631,461.916,cs),
(209.405,526.218,o),
(275.596,579.319,o),
(353.597,574.985,cs),
(434.499,571.749,o),
(512.99,503.674,o),
(517,387.853,c),
(517,2,ls),
(517,-25.7,o),
(505.85,-48,o),
(492,-48,cs),
(478.15,-48,o),
(467,-25.7,o),
(467,2,cs),
(467.002,383.414,l),
(464.938,412.518,o),
(427.438,472.012,o),
(352.306,475.019,cs),
(286.404,478.681,o),
(230.595,433.782,o),
(192.384,380.106,cs),
(115.003,271.232,o),
(98,138.205,o),
(98,2,cs),
(98,-25.7,o),
(86.85,-48,o),
(73,-48,cs),
(59.15,-48,o),
(48,-25.7,o),
(48,2,cs)
);
},
{
closed = 1;
nodes = (
(-29.455,649.097,o),
(-27.885,694.583,o),
(-8.122,723.75,cs),
(4.755,742.756,o),
(22.378,750,o),
(38,750,cs),
(53.273,750,o),
(67.855,743.393,o),
(79.143,730.635,cs),
(92.581,715.446,o),
(111.388,678.711,o),
(98,634.871,c),
(98,2,ls),
(98,-25.7,o),
(86.85,-48,o),
(73,-48,cs),
(59.15,-48,o),
(48,-25.7,o),
(48,2,cs),
(48,648.008,l),
(46.366,648.76,o),
(42.747,650,o),
(38,650,cs),
(33.289,650,o),
(29.469,648.772,o),
(27.998,647.97,c),
(28.105,635.56,o),
(25.429,619.856,o),
(18.617,608.957,cs),
(7.802,591.653,o),
(-7.87,595.135,o),
(-16.522,616.765,cs)
);
}
);
width = 562;
}
);
unicode = 104;
},
{
glyphname = i;
layers = (
{
layerId = "0F7E5E12-47E7-4249-B9AE-11F637CCDB2F";
shapes = (
{
closed = 1;
nodes = (
(105.194,675,o),
(116,654.873,o),
(116,629,cs),
(116,604.061,o),
(105.155,583,o),
(87,583,cs),
(69.78,583,o),
(58,604.171,o),
(58,629,cs),
(58,654.763,o),
(69.74,675,o),
(87,675,cs)
);
},
{
closed = 1;
nodes = (
(60.26,685,o),
(48,655.237,o),
(48,629,cs),
(48,603.829,o),
(60.22,573,o),
(87,573,cs),
(114.845,573,o),
(126,603.939,o),
(126,629,cs),
(126,655.127,o),
(114.806,685,o),
(87,685,cs)
);
},
{
closed = 1;
nodes = (
(49.45,449.52,o),
(52.366,448.319,o),
(54.923,449.385,cs),
(57.48,450.45,o),
(58.681,453.366,o),
(57.615,455.923,cs),
(53.176,466.578,o),
(55.131,477.98,o),
(61.229,486.553,cs),
(66.913,494.543,o),
(76.12,500,o),
(87,500,cs),
(96.664,500,o),
(105.077,495.673,o),
(110.837,489.014,cs),
(118.389,480.286,o),
(121.296,467.712,o),
(116.385,455.923,c),
(115.661,452.705,o),
(116.214,455.22,o),
(116,454,c),
(116,47.869,l),
(109.915,33.265,o),
(113.798,16.924,o),
(123.816,5.802,cs),
(131.374,-2.59,o),
(142.402,-8,o),
(155,-8,cs),
(169.136,-8,o),
(181.206,-1.211,o),
(188.683,8.853,cs),
(196.859,19.858,o),
(199.515,34.765,o),
(193.615,48.923,cs),
(192.55,51.48,o),
(189.634,52.681,o),
(187.077,51.615,cs),
(184.52,50.55,o),
(183.319,47.634,o),
(184.385,45.077,cs),
(188.855,34.348,o),
(186.839,23.14,o),
(180.655,14.817,cs),
(174.992,7.194,o),
(165.849,2,o),
(155,2,cs),
(145.341,2,o),
(136.978,6.13,o),
(131.246,12.494,cs),
(123.677,20.898,o),
(120.665,33.197,o),
(125.615,45.077,c),
(126.339,48.295,o),
(125.786,45.78,o),
(126,47,c),
(126,453.132,l),
(132.038,467.623,o),
(128.258,484.162,o),
(118.4,495.557,cs),
(110.863,504.27,o),
(99.752,510,o),
(87,510,cs),
(72.662,510,o),
(60.51,502.793,o),
(53.081,492.349,cs),
(45.124,481.164,o),
(42.525,466.14,o),
(48.385,452.077,cs)
);
}
);
width = 232;
},
{
layerId = "584B1CA6-921E-4923-A283-D75AE04BC333";
shapes = (
{
closed = 1;
nodes = (
(89.561,629.815,l),
(91.466,629.528,o),
(92.339,629.074,o),
(92.419,629.034,c),
(91.702,628.667,o),
(89.804,628,o),
(87,628,cs),
(84.188,628,o),
(82.478,628.746,o),
(81.923,629.035,c),
(82.599,629.376,o),
(84.405,630,o),
(87,630,c)
);
},
{
closed = 1;
nodes = (
(55.875,730,o),
(28,691.128,o),
(28,629,cs),
(28,568.42,o),
(55.545,528,o),
(87,528,cs),
(120.006,528,o),
(146,569.353,o),
(146,629,cs),
(146,690.204,o),
(119.679,730,o),
(87,730,cs)
);
},
{
closed = 1;
nodes = (
(42.661,400.711,o),
(58.365,397.856,o),
(69.005,415.589,cs),
(76.698,428.41,o),
(78.107,445.842,o),
(78.102,453.258,c),
(80.633,454.323,o),
(83.636,455,o),
(87,455,cs),
(91.578,455,o),
(94.909,453.712,o),
(96,453.193,c),
(96,59.305,l),
(83.591,15.693,o),
(102.138,-19.847,o),
(115.397,-34.568,cs),
(126.349,-46.727,o),
(140.331,-53,o),
(155,-53,cs),
(169.809,-53,o),
(186.213,-46.357,o),
(198.628,-29.645,cs),
(219.684,-1.303,o),
(221.984,45.942,o),
(208.205,79.009,cs),
(199.339,100.289,o),
(183.635,103.144,o),
(172.995,85.411,cs),
(164.799,71.75,o),
(163.953,53.494,o),
(163.995,48.686,c),
(161.431,47.653,o),
(158.396,47,o),
(155,47,cs),
(150.255,47,o),
(146.881,48.307,o),
(146,48.708,c),
(146,441.712,l),
(158.138,484.45,o),
(140.325,520.322,o),
(127.129,535.576,cs),
(116.1,548.324,o),
(101.92,555,o),
(87,555,cs),
(71.883,555,o),
(55.231,547.862,o),
(42.779,530.358,cs),
(22.55,501.921,o),
(20.012,455.068,o),
(33.794,421.991,cs)
);
}
);
width = 232;
}
);
unicode = 105;
},
{
glyphname = j;
layers = (
{
layerId = "0F7E5E12-47E7-4249-B9AE-11F637CCDB2F";
shapes = (
{
closed = 1;
nodes = (
(81.806,685,o),
(93,655.127,o),
(93,629,cs),
(93,603.939,o),
(81.845,573,o),
(54,573,cs),
(27.22,573,o),
(15,603.829,o),
(15,629,cs),
(15,655.237,o),
(27.26,685,o),
(54,685,cs)
);
},
{
closed = 1;
nodes = (
(36.74,675,o),
(25,654.763,o),
(25,629,cs),
(25,604.171,o),
(36.78,583,o),
(54,583,cs),
(72.155,583,o),
(83,604.061,o),
(83,629,cs),
(83,654.873,o),
(72.194,675,o),
(54,675,cs)
);
},
{
closed = 1;
nodes = (
(-361.249,-170.271,o),
(-270.765,-110.651,o),
(-175.184,-126.067,cs),
(-61.121,-145.417,o),
(12.58,-271.829,o),
(127.52,-261.023,cs),
(214.954,-252.376,o),
(266.7,-165.345,o),
(225.758,-99.647,cs),
(208.496,-72.028,o),
(173.963,-56.674,o),
(141.608,-36.392,cs),
(113.829,-18.979,o),
(89,2.068,o),
(89,39.012,cs),
(91,451,ls),
(91,464.99,o),
(86.029,477.584,o),
(78.37,486.209,cs),
(69.881,495.769,o),
(58.329,500.29,o),
(46.316,497.176,cs),
(38.126,494.943,o),
(32.063,489.264,o),
(28.852,482.234,cs),
(24.786,473.333,o),
(25.387,462.504,o),
(31.947,454.07,cs),
(33.647,451.883,o),
(33.256,448.754,o),
(31.07,447.053,cs),
(28.883,445.353,o),
(25.754,445.744,o),
(24.053,447.93,cs),
(14.997,459.574,o),
(14.29,474.422,o),
(19.755,486.388,cs),
(24.103,495.906,o),
(32.414,503.75,o),
(43.745,506.84,cs),
(60.124,511.086,o),
(75.359,504.661,o),
(85.848,492.849,cs),
(95.228,482.285,o),
(101,467.288,o),
(101,450.988,cs),
(99,39,ls),
(99,7.7,o),
(119.524,-10.747,o),
(146.919,-27.919,cs),
(177.076,-46.823,o),
(215.301,-64.047,o),
(234.242,-94.353,cs),
(279.259,-166.59,o),
(223.127,-261.616,o),
(128.48,-270.977,cs),
(9.394,-282.173,o),
(-66.812,-154.594,o),
(-176.796,-135.936,cs),
(-267.235,-121.349,o),
(-352.751,-177.729,o),
(-374.137,-267.163,cs),
(-374.781,-269.857,o),
(-377.469,-271.507,o),
(-380.163,-270.863,cs),
(-382.857,-270.219,o),
(-384.507,-267.531,o),
(-383.863,-264.837,cs)
);
}
);
width = 246;
},
{
layerId = "584B1CA6-921E-4923-A283-D75AE04BC333";
shapes = (
{
closed = 1;
nodes = (
(86.679,730,o),
(113,690.204,o),
(113,629,cs),
(113,569.353,o),
(87.006,528,o),
(54,528,cs),
(22.545,528,o),
(-5,568.42,o),
(-5,629,cs),
(-5,691.128,o),
(22.875,730,o),
(54,730,cs)
);
},
{
closed = 1;
nodes = (
(54,630,l),
(51.405,630,o),
(49.599,629.376,o),
(48.923,629.035,c),
(49.478,628.746,o),
(51.188,628,o),
(54,628,cs),
(56.804,628,o),
(58.702,628.667,o),
(59.419,629.034,c),
(59.339,629.074,o),
(58.466,629.528,o),
(56.561,629.815,c)
);
},
{
closed = 1;
nodes = (
(-373.195,-125.836,o),
(-272.76,-65.231,o),
(-173.939,-81.17,cs),
(-58.421,-100.767,o),
(16.694,-226.41,o),
(126.796,-216.058,cs),
(186.793,-210.124,o),
(218.663,-165.667,o),
(220.022,-148.948,c),
(219.595,-145.188,o),
(215.143,-137.263,o),
(214.369,-136.021,cs),
(204.761,-120.648,o),
(183.223,-108.976,o),
(136.786,-79.867,cs),
(108.28,-61.998,o),
(69,-32.054,o),
(69,39.243,cs),
(70.967,444.551,l),
(66.863,449.316,o),
(61.719,452.799,o),
(54.873,453.124,c),
(52.953,453.118,l),
(53.211,447.159,o),
(52.732,435.482,o),
(49.029,423.962,cs),
(41.539,400.661,o),
(26.131,393.962,o),
(14.48,408.941,cs),
(-0.77,428.549,o),
(-15.215,471.925,o),
(5.845,518.034,cs),
(15.554,539.29,o),
(30.03,548.38,o),
(41.703,551.563,cs),
(61.383,556.665,o),
(79.909,549.387,o),
(94.374,533.097,cs),
(107.699,518.092,o),
(120.999,491.034,o),
(120.999,450.757,cs),
(119.023,43.821,l),
(121.106,40.103,o),
(129.071,29.765,o),
(151.74,15.555,cs),
(180.628,-2.553,o),
(223.814,-23.072,o),
(245.631,-57.979,cs),
(305.927,-154.733,o),
(243.324,-304.655,o),
(129.204,-315.942,cs),
(6.177,-327.509,o),
(-70.844,-199.019,o),
(-178.062,-180.83,cs),
(-264.475,-166.892,o),
(-338.936,-221.243,o),
(-355.822,-285.091,cs),
(-356.447,-287.573,ls),
(-362.423,-312.562,o),
(-377.292,-323.058,o),
(-389.787,-311.107,cs),
(-402.282,-299.155,o),
(-407.53,-269.416,o),
(-401.553,-244.427,cs)
);
}
);
width = 246;
}
);
unicode = 106;
},
{
glyphname = k;
layers = (
{
layerId = "0F7E5E12-47E7-4249-B9AE-11F637CCDB2F";
shapes = (
{
closed = 1;
nodes = (
(98.022,1.918,ls),
(98.022,-0.852,o),
(95.792,-3.082,o),
(93.022,-3.082,cs),
(90.252,-3.082,o),
(88.022,-0.852,o),
(88.022,1.918,cs),
(88.022,235.963,ls),
(88.022,391.502,o),
(190.818,533.338,o),
(328.883,508.506,cs),
(397.141,496.635,o),
(448.854,434.932,o),
(432.656,369.136,cs),
(398.111,218.125,o),
(98.022,309.439,o),
(98.022,135.247,cs),
(98.022,132.477,o),
(95.792,130.247,o),
(93.022,130.247,cs),
(90.252,130.247,o),
(88.022,132.477,o),
(88.022,135.247,cs),
(88.022,319.672,o),
(390.395,228.978,o),
(422.917,371.406,cs),
(437.5,430.537,o),
(390.93,487.565,o),
(327.155,498.656,cs),
(195.947,522.255,o),
(98.022,385.631,o),
(98.022,235.963,cs)
);
},
{
closed = 1;
nodes = (
(12.558,660.643,o),
(15.091,675.872,o),
(23.205,687.217,cs),
(30.783,697.814,o),
(43.208,705,o),
(58,705,cs),
(71.884,705,o),
(83.98,698.646,o),
(91.806,688.979,cs),
(101.068,677.537,o),
(104.327,661.452,o),
(98,647.074,c),
(98,2,ls),
(98,-0.77,o),
(95.77,-3,o),
(93,-3,cs),
(90.23,-3,o),
(88,-0.77,o),
(88,2,cs),
(88,649.089,l),
(89.67,652.6,o),
(96.185,667.675,o),
(84.034,682.687,cs),
(78.044,690.086,o),
(68.774,695,o),
(58,695,cs),
(46.625,695,o),
(37.145,689.519,o),
(31.339,681.4,cs),
(25.144,672.737,o),
(23.147,661.095,o),
(27.642,649.857,cs),
(28.671,647.285,o),
(27.429,644.386,o),
(24.857,643.358,cs),
(22.285,642.329,o),
(19.386,643.571,o),
(18.358,646.143,cs)
);
},
{
closed = 1;
nodes = (
(347.451,288.079,o),
(432.782,247.491,o),
(432.782,168.819,cs),
(432.782,111.936,o),
(444.159,55.999,o),
(465.967,3.847,cs),
(467.036,1.292,o),
(465.839,-1.626,o),
(463.283,-2.695,cs),
(460.727,-3.763,o),
(457.81,-2.566,o),
(456.741,-0.011,cs),
(434.427,53.35,o),
(422.782,110.598,o),
(422.782,168.819,cs),
(422.782,237.865,o),
(346.968,277.848,o),
(264.608,263.649,cs),
(261.879,263.178,o),
(259.302,264.997,o),
(258.832,267.726,cs),
(258.361,270.456,o),
(260.18,273.033,o),
(262.909,273.503,cs)
);
}
);
width = 507;
},
{
layerId = "584B1CA6-921E-4923-A283-D75AE04BC333";
shapes = (
{
closed = 1;
nodes = (
(118.022,1.918,ls),
(118.022,-25.782,o),
(106.872,-48.082,o),
(93.022,-48.082,cs),
(79.172,-48.082,o),
(68.022,-25.782,o),
(68.022,1.918,cs),
(68.022,235.963,ls),
(68.022,424.145,o),
(183.397,579.794,o),
(330.228,553.386,cs),
(401.676,540.96,o),
(480.653,471.83,o),
(450.211,348.166,c),
(450.516,349.449,l),
(410.728,175.522,o),
(118.022,243.823,o),
(118.022,135.247,cs),
(118.022,107.547,o),
(106.872,85.247,o),
(93.022,85.247,cs),
(79.172,85.247,o),
(68.022,107.547,o),
(68.022,135.247,cs),
(68.022,375.208,o),
(380.28,280.708,o),
(405.195,391.7,c),
(405.353,392.336,l),
(405.5,394.043,o),
(396.76,441.438,o),
(325.824,453.775,cs),
(205.79,475.363,o),
(118.022,355.856,o),
(118.022,235.963,cs)
);
},
{
closed = 1;
nodes = (
(-9.842,650.065,o),
(-7.54,696.639,o),
(12.947,725.286,cs),
(25.624,743.013,o),
(42.601,750,o),
(58,750,cs),
(74.075,750,o),
(89.476,742.679,o),
(101.057,728.372,cs),
(113.857,712.561,o),
(130.79,675.881,o),
(118,634.719,c),
(118,2,ls),
(118,-25.7,o),
(106.85,-48,o),
(93,-48,cs),
(79.15,-48,o),
(68,-25.7,o),
(68,2,cs),
(68,648.004,l),
(67.243,648.374,o),
(63.461,650,o),
(58,650,cs),
(53.424,650,o),
(49.669,648.846,o),
(47.998,647.963,c),
(48.105,635.573,o),
(45.433,619.862,o),
(38.617,608.957,cs),
(27.802,591.653,o),
(12.13,595.135,o),
(3.478,616.765,cs)
);
},
{
closed = 1;
nodes = (
(350.129,333.653,o),
(452.782,293.962,o),
(452.782,168.819,cs),
(452.782,125.37,o),
(461.392,79.764,o),
(480.531,33.996,cs),
(489.417,12.747,o),
(488.017,-18.665,o),
(477.393,-36.436,cs),
(466.768,-54.207,o),
(451.062,-51.407,o),
(442.177,-30.159,cs),
(417.194,29.585,o),
(402.782,97.164,o),
(402.782,168.819,c),
(402.782,169.081,o),
(379.57,238.358,o),
(265.906,218.761,cs),
(252.107,216.382,o),
(240.041,236.684,o),
(238.851,264.282,cs),
(237.662,291.879,o),
(247.813,316.012,o),
(261.612,318.391,cs)
);
}
);
width = 507;
}
);
unicode = 107;
},
{
glyphname = l;
layers = (
{
layerId = "0F7E5E12-47E7-4249-B9AE-11F637CCDB2F";
shapes = (
{
closed = 1;
nodes = (
(12.084,661.827,o),
(15.564,678.356,o),
(25.291,689.903,cs),
(32.964,699.011,o),
(44.501,705,o),
(58,705,cs),
(71.215,705,o),
(82.811,699.244,o),
(90.647,690.351,cs),
(100.785,678.845,o),
(104.602,662.083,o),
(98,647.08,c),
(98,2,ls),
(98,-0.77,o),
(95.77,-3,o),
(93,-3,cs),
(90.23,-3,o),
(88,-0.77,o),
(88,2,cs),
(88,649.089,l),
(89.64,652.537,o),
(96.598,668.469,o),
(83.144,683.74,cs),
(77.145,690.548,o),
(68.256,695,o),
(58,695,cs),
(47.606,695,o),
(38.808,690.427,o),
(32.939,683.46,cs),
(25.51,674.641,o),
(22.783,662.006,o),
(27.642,649.857,cs),
(28.671,647.285,o),
(27.429,644.386,o),
(24.857,643.358,cs),
(22.285,642.329,o),
(19.386,643.571,o),
(18.358,646.143,cs)
);
}
);
width = 168;
},
{
layerId = "584B1CA6-921E-4923-A283-D75AE04BC333";
shapes = (
{
closed = 1;
nodes = (
(-11.069,653.134,o),
(-6.175,702.935,o),
(16.355,729.679,cs),
(28.325,743.887,o),
(43.477,750,o),
(58,750,cs),
(73.311,750,o),
(87.931,743.36,o),
(99.234,730.531,cs),
(112.642,715.314,o),
(131.361,678.579,o),
(118,634.864,c),
(118,2,ls),
(118,-25.7,o),
(106.85,-48,o),
(93,-48,cs),
(79.15,-48,o),
(68,-25.7,o),
(68,2,cs),
(68,648.007,l),
(66.408,648.743,o),
(62.781,650,o),
(58,650,cs),
(53.846,650,o),
(50.308,649.063,o),
(47.998,647.964,c),
(48.105,635.572,o),
(45.433,619.862,o),
(38.617,608.957,cs),
(27.802,591.652,o),
(12.13,595.135,o),
(3.478,616.765,cs)
);
}
);
width = 168;
}
);
unicode = 108;
},
{
glyphname = m;
layers = (
{
layerId = "0F7E5E12-47E7-4249-B9AE-11F637CCDB2F";
shapes = (
{
closed = 1;
nodes = (
(85,144.512,o),
(110.078,289.573,o),
(186.789,410.695,cs),
(218.965,460.971,o),
(264.117,508.774,o),
(325.612,513.985,cs),
(405.976,520.247,o),
(466,455.908,o),
(466,374,cs),
(466,2,ls),
(466,-0.77,o),
(463.77,-3,o),
(461,-3,cs),
(458.23,-3,o),
(456,-0.77,o),
(456,2,cs),
(456,374,ls),
(456,451.04,o),
(400.024,509.753,o),
(326.422,504.018,cs),
(269.883,499.226,o),
(227.035,455.029,o),
(195.224,405.325,cs),
(119.922,286.427,o),
(95,143.488,o),
(95,2,cs),
(95,-0.77,o),
(92.77,-3,o),
(90,-3,cs),
(87.23,-3,o),
(85,-0.77,o),
(85,2,cs)
);
},
{
closed = 1;
nodes = (
(13.286,470.947,o),
(17.845,485.242,o),
(27.295,494.899,cs),
(34.507,502.27,o),
(44.603,507,o),
(56,507,cs),
(68.825,507,o),
(79.833,500.994,o),
(87.009,491.886,cs),
(94.462,482.427,o),
(97.745,469.664,o),
(95,457.586,c),
(95,2,ls),
(95,-0.77,o),
(92.77,-3,o),
(90,-3,cs),
(87.23,-3,o),
(85,-0.77,o),
(85,2,cs),
(85,458.581,l),
(86.303,463.899,o),
(87.541,475.053,o),
(79.154,485.697,cs),
(73.77,492.531,o),
(65.605,497,o),
(56,497,cs),
(47.459,497,o),
(39.888,493.47,o),
(34.443,487.906,cs),
(27.298,480.604,o),
(23.928,469.933,o),
(26.824,459.316,cs),
(27.553,456.643,o),
(25.988,453.905,o),
(23.315,453.176,cs),
(20.643,452.447,o),
(17.905,454.012,o),
(17.176,456.684,cs)
);
},
{
closed = 1;
nodes = (
(456,144.512,o),
(481.078,289.588,o),
(558.789,410.695,cs),
(590.965,460.971,o),
(636.117,508.774,o),
(697.612,513.985,cs),
(777.954,520.245,o),
(838.402,455.927,o),
(838,373.988,c),
(838,2,ls),
(838,-0.77,o),
(835.77,-3,o),
(833,-3,cs),
(830.23,-3,o),
(828,-0.77,o),
(828,2,cs),
(828,374.025,l),
(828.378,451.021,o),
(772.046,509.755,o),
(698.422,504.018,cs),
(641.883,499.226,o),
(599.035,455.029,o),
(567.208,405.3,cs),
(490.922,286.412,o),
(466,143.488,o),
(466,2,cs),
(466,-0.77,o),
(463.77,-3,o),
(461,-3,cs),
(458.23,-3,o),
(456,-0.77,o),
(456,2,cs)
);
}
);
width = 904;
},
{
layerId = "584B1CA6-921E-4923-A283-D75AE04BC333";
shapes = (
{
closed = 1;
nodes = (
(65,157.665,o),
(92.889,316.792,o),
(175.609,447.401,cs),
(210.644,502.144,o),
(259.516,553.411,o),
(324.984,558.959,cs),
(409.727,565.562,o),
(486,499.669,o),
(486,374,cs),
(486,2,ls),
(486,-25.7,o),
(474.85,-48,o),
(461,-48,cs),
(447.15,-48,o),
(436,-25.7,o),
(436,2,cs),
(436,374,ls),
(436,403.873,o),
(414.095,465.827,o),
(327.058,459.045,cs),
(274.484,454.589,o),
(235.356,413.856,o),
(206.491,368.756,cs),
(137.111,259.208,o),
(115,130.335,o),
(115,2,cs),
(115,-25.7,o),
(103.85,-48,o),
(90,-48,cs),
(76.15,-48,o),
(65,-25.7,o),
(65,2,cs)
);
},
{
closed = 1;
nodes = (
(-11.489,476.376,o),
(3.083,519.155,o),
(19.493,535.926,cs),
(30.288,546.959,o),
(43.326,552,o),
(56,552,cs),
(71.07,552,o),
(85.471,544.978,o),
(96.477,531.009,cs),
(107.222,517.37,o),
(120.078,489.787,o),
(115,451.234,c),
(115,2,ls),
(115,-25.7,o),
(103.85,-48,o),
(90,-48,cs),
(76.15,-48,o),
(65,-25.7,o),
(65,2,cs),
(65,450.027,l),
(63.196,450.935,o),
(60.05,452,o),
(56,452,cs),
(52.066,452,o),
(48.693,451,o),
(46.69,449.936,c),
(45.554,435.692,o),
(41.179,421.968,o),
(33.971,414.105,cs),
(21.812,400.841,o),
(6.685,409.74,o),
(0.053,434.057,cs)
);
},
{
closed = 1;
nodes = (
(436,157.761,o),
(463.931,316.995,o),
(547.609,447.401,cs),
(582.644,502.144,o),
(631.516,553.411,o),
(696.984,558.959,cs),
(781.724,565.562,o),
(858.618,499.685,o),
(858,373.754,c),
(858,2,ls),
(858,-25.7,o),
(846.85,-48,o),
(833,-48,cs),
(819.15,-48,o),
(808,-25.7,o),
(808,2,cs),
(808,374.246,l),
(808.167,408.166,o),
(786.124,465.829,o),
(699.058,459.045,cs),
(646.483,454.589,o),
(607.355,413.856,o),
(578.366,368.56,cs),
(508.068,259.005,o),
(486,130.239,o),
(486,2,cs),
(486,-25.7,o),
(474.85,-48,o),
(461,-48,cs),
(447.15,-48,o),
(436,-25.7,o),
(436,2,cs)
);
}
);
width = 904;
}
);
unicode = 109;
},
{
glyphname = n;
layers = (
{
layerId = "0F7E5E12-47E7-4249-B9AE-11F637CCDB2F";
shapes = (
{
closed = 1;
nodes = (
(86,146.284,o),
(104.999,294.592,o),
(188.917,412.886,cs),
(230.313,471.446,o),
(290.705,520.103,o),
(363.208,516.996,cs),
(439.772,513.892,o),
(500.942,452.816,o),
(504,376.1,c),
(504,2,ls),
(504,-0.77,o),
(501.77,-3,o),
(499,-3,cs),
(496.23,-3,o),
(494,-0.77,o),
(494,2,cs),
(494,375.876,l),
(491.067,447.237,o),
(434.168,504.111,o),
(362.785,507.005,cs),
(295.294,509.897,o),
(237.686,464.554,o),
(197.077,407.107,cs),
(115,291.408,o),
(95.999,145.716,o),
(95.999,2,cs),
(95.999,-0.77,o),
(93.769,-3,o),
(90.999,-3,cs),
(88.229,-3,o),
(85.999,-0.77,o),
(86,2,cs)
);
},
{
closed = 1;
nodes = (
(12.422,464.386,o),
(15.218,479.688,o),
(23.501,490.93,cs),
(30.963,501.058,o),
(42.929,508,o),
(57,508,cs),
(69.541,508,o),
(80.321,502.815,o),
(87.813,494.688,cs),
(98.385,483.22,o),
(102.226,466.064,o),
(96,451.121,c),
(96,2,ls),
(96,-0.77,o),
(93.77,-3,o),
(91,-3,cs),
(88.23,-3,o),
(86,-0.77,o),
(86,2,cs),
(86,453.036,l),
(87.627,456.647,o),
(94.259,472.942,o),
(80.461,487.91,cs),
(74.834,494.013,o),
(66.708,498,o),
(57,498,cs),
(46.38,498,o),
(37.287,492.783,o),
(31.552,484.999,cs),
(25.192,476.367,o),
(23.096,464.77,o),
(27.615,453.923,cs),
(28.681,451.366,o),
(27.48,448.45,o),
(24.923,447.385,cs),
(22.366,446.319,o),
(19.45,447.52,o),
(18.385,450.077,cs)
);
}
);
width = 569;
},
{
layerId = "584B1CA6-921E-4923-A283-D75AE04BC333";
shapes = (
{
closed = 1;
nodes = (
(66,156.886,o),
(87.024,321.784,o),
(178.563,450.821,cs),
(223.422,514.279,o),
(287.587,565.243,o),
(363.521,561.989,cs),
(444.956,558.688,o),
(519.994,492.045,o),
(524,377.878,c),
(524,2,ls),
(524,-25.7,o),
(512.85,-48,o),
(499,-48,cs),
(485.15,-48,o),
(474,-25.7,o),
(474,2,cs),
(474.002,373.389,l),
(471.993,401.486,o),
(436.424,459.013,o),
(362.464,462.011,cs),
(298.413,464.757,o),
(244.578,421.721,o),
(207.403,369.131,cs),
(132.976,264.216,o),
(116,135.114,o),
(116,2,cs),
(116,-25.7,o),
(104.85,-48,o),
(91,-48,cs),
(77.15,-48,o),
(66,-25.7,o),
(66,2,cs)
);
},
{
closed = 1;
nodes = (
(-10.258,453.718,o),
(-7.176,501.291,o),
(13.489,529.337,cs),
(25.8,546.047,o),
(42.048,553,o),
(57,553,cs),
(71.538,553,o),
(85.212,547.014,o),
(96.056,535.251,cs),
(110.015,520.108,o),
(128.568,483.872,o),
(116,439.631,c),
(116,2,ls),
(116,-25.7,o),
(104.85,-48,o),
(91,-48,cs),
(77.15,-48,o),
(66,-25.7,o),
(66,2,cs),
(66,451.348,l),
(65.133,451.734,o),
(61.793,453,o),
(57,453,cs),
(52.825,453,o),
(49.359,451.921,o),
(47.97,451.188,c),
(48.106,443.853,o),
(46.701,426.416,o),
(39.005,413.589,cs),
(28.365,395.856,o),
(12.661,398.711,o),
(3.794,419.991,cs)
);
}
);
width = 569;
}
);
unicode = 110;
},
{
glyphname = o;
layers = (
{
layerId = "0F7E5E12-47E7-4249-B9AE-11F637CCDB2F";
shapes = (
{
closed = 1;
nodes = (
(376.997,509.063,o),
(456.029,388.64,o),
(459,255.927,cs),
(460.981,119.247,o),
(379.916,-7.064,o),
(255.923,-9.001,cs),
(129.003,-10.939,o),
(44.018,116.299,o),
(45.999,255.926,cs),
(47.979,391.54,o),
(132.884,512.938,o),
(255.92,511,cs)
);
},
{
closed = 1;
nodes = (
(125.115,523.062,o),
(38.021,394.46,o),
(36,256.072,cs),
(33.981,113.701,o),
(120.996,-21.061,o),
(256.078,-18.999,cs),
(388.083,-16.936,o),
(471.018,116.753,o),
(468.998,256.113,cs),
(465.97,391.36,o),
(385.002,518.937,o),
(256.079,521,cs)
);
}
);
width = 505;
},
{
layerId = "584B1CA6-921E-4923-A283-D75AE04BC333";
shapes = (
{
closed = 1;
nodes = (
(440.542,148.618,o),
(370.054,37.784,o),
(255.807,35.999,cs),
(138.605,34.209,o),
(64.452,146.189,o),
(65.99,254.562,cs),
(67.543,360.94,o),
(142.516,467.786,o),
(255.802,466.002,cs),
(368.8,464.194,o),
(436.723,356.417,o),
(439.012,254.165,cs)
);
},
{
closed = 1;
nodes = (
(485.503,419.656,o),
(395.473,563.77,o),
(256.198,565.998,cs),
(114.834,568.225,o),
(18.433,423.399,o),
(16.01,257.439,cs),
(13.573,85.618,o),
(110.627,-66.221,o),
(256.193,-63.998,cs),
(399.587,-61.758,o),
(491.555,90.731,o),
(488.984,257.843,cs)
);
}
);
width = 505;
}
);
unicode = 111;
},
{
glyphname = p;
layers = (
{
layerId = "0F7E5E12-47E7-4249-B9AE-11F637CCDB2F";
shapes = (
{
closed = 1;
nodes = (
(100.213,374.771,o),
(196.696,520.608,o),
(334.033,508.939,cs),
(447.944,499.072,o),
(515.042,377.474,o),
(512.281,250.444,cs),
(510.441,129.049,o),
(444.385,15.586,o),
(334.059,5.72,cs),
(223.73,-3.25,o),
(138.793,98.282,o),
(122.263,218.587,cs)
);
},
{
closed = 1;
nodes = (
(129.239,94.357,o),
(216.91,-13.838,o),
(334.909,-4.244,cs),
(452.831,6.302,o),
(520.407,126.694,o),
(522.279,250.259,cs),
(525.086,379.39,o),
(456.696,508.352,o),
(334.887,518.902,cs),
(188.264,531.36,o),
(89.867,376.525,o),
(112.359,217.207,cs)
);
},
{
closed = 1;
nodes = (
(40.539,453.451,o),
(43.478,452.308,o),
(46.014,453.423,cs),
(48.549,454.539,o),
(49.692,457.478,o),
(48.577,460.014,cs),
(43.17,472.3,o),
(46.112,485.465,o),
(54.091,494.608,cs),
(60.112,501.508,o),
(68.915,506,o),
(79,506,cs),
(104.554,506,o),
(109,478.261,o),
(109,458,cs),
(109,-189,ls),
(109,-191.77,o),
(111.23,-194,o),
(114,-194,cs),
(116.77,-194,o),
(119,-191.77,o),
(119,-189,cs),
(119,458,ls),
(119,484.474,o),
(111.055,516,o),
(79,516,cs),
(65.828,516,o),
(54.342,510.105,o),
(46.557,501.183,cs),
(36.285,489.412,o),
(32.304,472.166,o),
(39.423,455.986,cs)
);
}
);
width = 556;
},
{
layerId = "584B1CA6-921E-4923-A283-D75AE04BC333";
shapes = (
{
closed = 1;
nodes = (
(124.231,352.88,o),
(210.739,474.387,o),
(333.382,463.967,cs),
(446.029,454.21,o),
(494.173,338.52,o),
(492.304,252.54,c),
(492.292,251.882,l),
(491.031,168.712,o),
(442.248,60.425,o),
(333.449,50.695,cs),
(224.311,41.822,o),
(153.575,142.666,o),
(141.395,231.306,cs)
);
},
{
closed = 1;
nodes = (
(114.457,49.974,o),
(216.329,-58.91,o),
(335.581,-49.214,cs),
(454.968,-38.537,o),
(539.817,87.032,o),
(542.269,248.854,c),
(542.256,248.196,l),
(545.955,418.344,o),
(458.611,553.214,o),
(335.535,563.874,cs),
(173.399,577.65,o),
(66.274,395.402,o),
(93.206,204.639,cs)
);
},
{
closed = 1;
nodes = (
(34.382,404.174,o),
(50.118,402.165,o),
(60.516,420.464,cs),
(67.84,433.355,o),
(69.24,450.544,o),
(68.972,458.893,c),
(70.418,459.5,l),
(72.94,460.433,o),
(75.831,461,o),
(79,461,cs),
(85.505,461,o),
(88.63,458.697,o),
(89,458,c),
(89,-189,ls),
(89,-216.7,o),
(100.15,-239,o),
(114,-239,cs),
(127.85,-239,o),
(139,-216.7,o),
(139,-189,cs),
(139,458,ls),
(139,495.377,o),
(127.931,561,o),
(79,561,cs),
(64.634,561,o),
(49.75,554.864,o),
(37.895,541.279,cs),
(23.675,524.983,o),
(2.838,475.864,o),
(25.232,424.969,cs)
);
}
);
width = 556;
}
);
unicode = 112;
},
{
glyphname = q;
layers = (
{
layerId = "0F7E5E12-47E7-4249-B9AE-11F637CCDB2F";
shapes = (
{
closed = 1;
nodes = (
(426.761,94.358,o),
(339.09,-13.838,o),
(221.091,-4.244,cs),
(103.169,6.302,o),
(35.593,126.695,o),
(33.721,250.259,cs),
(30.914,379.39,o),
(99.304,508.352,o),
(221.113,518.902,cs),
(367.736,531.36,o),
(466.133,376.525,o),
(443.641,217.207,cs)
);
},
{
closed = 1;
nodes = (
(455.787,374.771,o),
(359.304,520.608,o),
(221.967,508.939,cs),
(108.056,499.072,o),
(40.958,377.474,o),
(43.719,250.444,cs),
(45.559,129.049,o),
(111.615,15.586,o),
(221.941,5.72,cs),
(332.27,-3.25,o),
(417.207,98.282,o),
(433.737,218.587,cs)
);
},
{
closed = 1;
nodes = (
(515.461,453.451,o),
(512.522,452.308,o),
(509.986,453.423,cs),
(507.451,454.539,o),
(506.308,457.478,o),
(507.423,460.014,cs),
(513.201,473.145,o),
(509.44,487.298,o),
(500.185,496.443,cs),
(494.264,502.292,o),
(486.166,506,o),
(477,506,cs),
(467.848,506,o),
(459.917,502.304,o),
(454.128,496.476,cs),
(444.451,486.734,o),
(441.485,471.788,o),
(447,458.996,c),
(447,-189,ls),
(447,-191.77,o),
(444.77,-194,o),
(442,-194,cs),
(439.23,-194,o),
(437,-191.77,o),
(437,-189,cs),
(436.968,457.151,l),
(430.674,474.054,o),
(435.571,491.984,o),
(447.034,503.524,cs),
(454.585,511.125,o),
(465.025,516,o),
(477,516,cs),
(488.96,516,o),
(499.54,511.137,o),
(507.213,503.557,cs),
(519.109,491.803,o),
(524.192,473.294,o),
(516.577,455.986,cs)
);
}
);
width = 556;
},
{
layerId = "584B1CA6-921E-4923-A283-D75AE04BC333";
shapes = (
{
closed = 1;
nodes = (
(441.543,49.974,o),
(339.671,-58.91,o),
(220.419,-49.214,cs),
(101.032,-38.537,o),
(16.183,87.032,o),
(13.732,248.854,c),
(13.744,248.196,l),
(10.045,418.344,o),
(97.389,553.214,o),
(220.465,563.874,cs),
(382.601,577.65,o),
(489.726,395.402,o),
(462.794,204.639,cs)
);
},
{
closed = 1;
nodes = (
(431.769,352.88,o),
(345.261,474.387,o),
(222.618,463.967,cs),
(109.971,454.21,o),
(61.827,338.52,o),
(63.696,252.54,c),
(63.708,251.882,l),
(64.969,168.712,o),
(113.752,60.425,o),
(222.551,50.695,cs),
(331.689,41.822,o),
(402.425,142.666,o),
(414.605,231.306,cs)
);
},
{
closed = 1;
nodes = (
(521.618,404.174,o),
(505.882,402.165,o),
(495.484,420.464,cs),
(489.407,431.161,o),
(486.624,446.295,o),
(487.028,458.893,c),
(486.711,459.057,o),
(482.754,461,o),
(477,461,cs),
(472.661,461,o),
(469.015,459.917,o),
(467,458.857,c),
(467,-189,ls),
(467,-216.7,o),
(455.85,-239,o),
(442,-239,cs),
(428.15,-239,o),
(417,-216.7,o),
(417,-189,cs),
(417,446.165,l),
(411.632,466.514,o),
(411.863,516.998,o),
(439.341,544.662,cs),
(450.358,555.752,o),
(463.649,561,o),
(477,561,cs),
(490.901,561,o),
(504.095,555.375,o),
(514.771,544.829,cs),
(531.057,528.738,o),
(556.813,484.163,o),
(530.768,424.969,cs)
);
}
);
width = 556;
}
);
unicode = 113;
},
{
glyphname = r;
leftMetricsKey = n;
layers = (
{
layerId = "0F7E5E12-47E7-4249-B9AE-11F637CCDB2F";
shapes = (
{
closed = 1;
nodes = (
(85,144.519,o),
(110.08,288.577,o),
(186.789,409.695,cs),
(218.965,459.971,o),
(264.117,507.774,o),
(325.612,512.985,cs),
(405.673,519.223,o),
(472.223,452.673,o),
(465.985,372.612,cs),
(465.77,369.85,o),
(463.373,367.8,o),
(460.612,368.015,cs),
(457.85,368.23,o),
(455.8,370.627,o),
(456.015,373.388,cs),
(461.777,447.327,o),
(400.328,508.777,o),
(326.422,503.018,cs),
(269.883,498.226,o),
(227.035,454.029,o),
(195.224,404.325,cs),
(119.92,285.423,o),
(95,143.481,o),
(95,2,cs),
(95,-0.77,o),
(92.77,-3,o),
(90,-3,cs),
(87.23,-3,o),
(85,-0.77,o),
(85,2,cs)
);
},
{
closed = 1;
nodes = (
(13.612,469.345,o),
(17.145,482.53,o),
(25.256,492.011,cs),
(32.576,500.566,o),
(43.541,506,o),
(56,506,cs),
(69.611,506,o),
(81.236,499.505,o),
(88.382,489.43,cs),
(94.875,480.275,o),
(97.548,468.311,o),
(95,456.59,c),
(95,2,ls),
(95,-0.77,o),
(92.77,-3,o),
(90,-3,cs),
(87.23,-3,o),
(85,-0.77,o),
(85,2,cs),
(85,457.555,l),
(86.232,462.857,o),
(87.426,473.493,o),
(80.225,483.645,cs),
(74.932,491.107,o),
(66.333,496,o),
(56,496,cs),
(46.535,496,o),
(38.32,491.897,o),
(32.855,485.51,cs),
(26.858,478.501,o),
(24.12,468.682,o),
(26.838,458.262,cs),
(27.537,455.582,o),
(25.942,452.861,o),
(23.262,452.162,cs),
(20.582,451.463,o),
(17.861,453.058,o),
(17.162,455.738,cs)
);
}
);
width = 502;
},
{
layerId = "584B1CA6-921E-4923-A283-D75AE04BC333";
shapes = (
{
closed = 1;
nodes = (
(65,157.772,o),
(92.928,315.853,o),
(175.609,446.401,cs),
(210.644,501.144,o),
(259.516,552.411,o),
(324.984,557.959,cs),
(409.976,564.581,o),
(495.888,496.025,o),
(485.702,365.301,cs),
(483.569,337.931,o),
(470.835,319.331,o),
(457.15,323.596,cs),
(443.466,327.862,o),
(434.165,353.33,o),
(436.298,380.699,cs),
(437.672,398.33,o),
(427.019,465.834,o),
(327.058,458.045,cs),
(274.484,453.589,o),
(235.356,412.856,o),
(206.491,367.756,cs),
(137.072,258.147,o),
(115,130.228,o),
(115,2,cs),
(115,-25.7,o),
(103.85,-48,o),
(90,-48,cs),
(76.15,-48,o),
(65,-25.7,o),
(65,2,cs)
);
},
{
closed = 1;
nodes = (
(-10.112,472.003,o),
(-0.222,512.453,o),
(16.441,531.929,cs),
(28.097,545.552,o),
(42.673,551,o),
(56,551,cs),
(71.871,551,o),
(87.309,543.474,o),
(98.708,527.404,cs),
(108.766,513.223,o),
(119.751,486.112,o),
(115,450.348,c),
(115,2,ls),
(115,-25.7,o),
(103.85,-48,o),
(90,-48,cs),
(76.15,-48,o),
(65,-25.7,o),
(65,2,cs),
(65,449.141,l),
(64.502,449.403,o),
(61.154,451,o),
(56,451,cs),
(52.315,451,o),
(49.098,450.191,o),
(46.682,449.066,c),
(46.525,442.556,o),
(42.848,422.358,o),
(33.564,412.671,cs),
(21.285,399.858,o),
(6.242,409.313,o),
(-0.165,433.871,cs)
);
}
);
width = 502;
}
);
unicode = 114;
},
{
glyphname = s;
layers = (
{
layerId = "0F7E5E12-47E7-4249-B9AE-11F637CCDB2F";
shapes = (
{
closed = 1;
nodes = (
(433.668,407.742,o),
(433.198,404.623,o),
(430.97,402.978,cs),
(428.742,401.332,o),
(425.623,401.802,o),
(423.978,404.03,cs),
(376.943,467.723,o),
(301.452,505,o),
(222,505,cs),
(128.819,505,o),
(42.52,451.19,o),
(55.935,373.803,c),
(66.262,305.981,o),
(144.782,284.059,o),
(222.608,274.963,cs),
(319.849,263.056,o),
(431.686,226.876,o),
(437.988,132.35,cs),
(445.21,34.327,o),
(332.991,-27.532,o),
(221.23,-9.94,cs),
(142.745,2.291,o),
(76.602,47.139,o),
(30.91,112.124,cs),
(29.317,114.39,o),
(29.858,117.497,o),
(32.124,119.09,cs),
(34.39,120.683,o),
(37.497,120.142,o),
(39.09,117.876,cs),
(83.397,54.861,o),
(147.255,11.709,o),
(222.774,-0.06,cs),
(327.162,-16.492,o),
(434.779,39.813,o),
(428.011,131.667,cs),
(422.314,217.124,o),
(320.151,252.944,o),
(221.419,265.034,cs),
(145.249,273.937,o),
(57.705,296.007,o),
(46.073,372.148,c),
(31.456,456.719,o),
(123.091,515,o),
(222,515,cs),
(304.548,515,o),
(383.057,476.277,o),
(432.022,409.97,cs)
);
}
);
width = 479;
},
{
layerId = "584B1CA6-921E-4923-A283-D75AE04BC333";
shapes = (
{
closed = 1;
nodes = (
(453.485,432.872,o),
(456.466,401.904,o),
(448.701,378.967,cs),
(440.936,356.03,o),
(425.452,350.067,o),
(413.984,365.598,cs),
(371.327,423.361,o),
(299.669,460,o),
(222,460,cs),
(146.37,460,o),
(83.454,423.397,o),
(74.62,389.388,c),
(74.778,388.48,l),
(74.975,387.149,o),
(80.697,336.601,o),
(223.493,319.911,cs),
(401.823,298.074,o),
(452.174,222.693,o),
(457.757,138.949,cs),
(468.729,-9.966,o),
(336.122,-73.118,o),
(220.058,-54.849,cs),
(139.76,-42.335,o),
(70.088,3.744,o),
(20.512,74.252,cs),
(9.225,90.305,o),
(6.6,121.402,o),
(14.626,143.976,cs),
(22.652,166.55,o),
(38.201,171.801,o),
(49.488,155.748,cs),
(89.912,98.256,o),
(150.24,56.335,o),
(223.952,44.847,cs),
(336.653,27.107,o),
(410.419,95.524,o),
(408.243,125.051,cs),
(407.028,143.27,o),
(372.838,201.437,o),
(220.507,220.089,cs),
(143.125,229.134,o),
(43.187,253.037,o),
(27.091,358.389,c),
(27.372,356.664,l),
(4.987,486.173,o),
(105.671,560,o),
(222,560,cs),
(305.972,560,o),
(388.471,520.912,o),
(442.016,448.402,cs)
);
}
);
width = 479;
}
);
unicode = 115;
},
{
glyphname = t;
layers = (
{
layerId = "0F7E5E12-47E7-4249-B9AE-11F637CCDB2F";
shapes = (
{
closed = 1;
nodes = (
(85,676,ls),
(85,678.77,o),
(87.23,681,o),
(90,681,cs),
(92.77,681,o),
(95,678.77,o),
(95,676,cs),
(95,159,l),
(95,158.949,o),
(94.917,158.091,o),
(94.907,158.041,c),
(78.497,74.06,o),
(141.247,-5.107,o),
(227.154,-8.002,cs),
(289.845,-9.931,o),
(344.73,30.534,o),
(360.149,92.213,cs),
(360.821,94.9,o),
(363.525,96.522,o),
(366.213,95.851,cs),
(368.9,95.179,o),
(370.523,92.475,o),
(369.851,89.787,cs),
(353.297,23.571,o),
(294.273,-20.072,o),
(226.839,-17.997,cs),
(134.743,-14.893,o),
(67.545,70.119,o),
(85,159.446,c)
);
},
{
closed = 1;
nodes = (
(334,498,ls),
(336.77,498,o),
(339,495.77,o),
(339,493,cs),
(339,490.23,o),
(336.77,488,o),
(334,488,cs),
(20,488,ls),
(17.23,488,o),
(15,490.23,o),
(15,493,cs),
(15,495.77,o),
(17.23,498,o),
(20,498,cs)
);
}
);
width = 406;
},
{
layerId = "584B1CA6-921E-4923-A283-D75AE04BC333";
shapes = (
{
closed = 1;
nodes = (
(65,676,ls),
(65,703.7,o),
(76.15,726,o),
(90,726,cs),
(103.85,726,o),
(115,703.7,o),
(115,676,cs),
(115,148.584,l),
(97.771,78.619,o),
(185.701,38.399,o),
(227.384,36.994,cs),
(291.222,35.03,o),
(333.73,77.722,o),
(342.639,113.361,cs),
(348.833,138.136,o),
(363.792,148.109,o),
(376.18,135.721,cs),
(388.568,123.334,o),
(393.554,93.415,o),
(387.361,68.639,cs),
(362.725,-29.904,o),
(282.729,-64.721,o),
(226.597,-62.994,cs),
(131.593,-59.791,o),
(41.76,26.725,o),
(65,167.137,c)
);
},
{
closed = 1;
nodes = (
(334,543,ls),
(347.85,543,o),
(359,520.7,o),
(359,493,cs),
(359,465.3,o),
(347.85,443,o),
(334,443,cs),
(20,443,ls),
(6.15,443,o),
(-5,465.3,o),
(-5,493,cs),
(-5,520.7,o),
(6.15,543,o),
(20,543,cs)
);
}
);
width = 406;
}
);
unicode = 116;
},
{
glyphname = u;
layers = (
{
layerId = "0F7E5E12-47E7-4249-B9AE-11F637CCDB2F";
shapes = (
{
closed = 1;
nodes = (
(43.725,466.077,o),
(43.769,479.715,o),
(48.927,490.759,cs),
(55.678,505.216,o),
(71.253,515.273,o),
(90.062,512.029,cs),
(115.689,507.37,o),
(125.956,479.814,o),
(127.952,456.87,cs),
(135.009,387.307,o),
(101.994,320.779,o),
(94.135,252.993,cs),
(77.464,107.855,o),
(177.413,-22.413,o),
(308.374,-8.932,cs),
(424.835,3.581,o),
(489.842,125.281,o),
(489.842,253.564,cs),
(489.842,500.15,ls),
(489.842,502.92,o),
(492.072,505.15,o),
(494.842,505.15,cs),
(497.612,505.15,o),
(499.842,502.92,o),
(499.842,500.15,cs),
(499.842,253.564,ls),
(499.842,123.329,o),
(433.601,-5.535,o),
(309.42,-18.877,cs),
(169.953,-33.234,o),
(67.065,104.959,o),
(84.201,254.137,cs),
(92.172,322.892,o),
(124.833,388.537,o),
(117.993,455.968,cs),
(116.423,474.019,o),
(108.864,498.447,o),
(88.318,502.183,cs),
(74.373,504.587,o),
(62.996,497.253,o),
(57.987,486.528,cs),
(54.171,478.356,o),
(54.088,468.242,o),
(59.649,458.974,cs),
(61.074,456.598,o),
(60.309,453.539,o),
(57.934,452.114,cs),
(55.559,450.688,o),
(52.499,451.453,o),
(51.074,453.828,cs)
);
},
{
closed = 1;
nodes = (
(489.842,500.15,ls),
(489.842,502.92,o),
(492.072,505.15,o),
(494.842,505.15,cs),
(497.612,505.15,o),
(499.842,502.92,o),
(499.842,500.15,cs),
(499.842,0.017,ls),
(499.842,-2.753,o),
(497.612,-4.983,o),
(494.842,-4.983,cs),
(492.072,-4.983,o),
(489.842,-2.753,o),
(489.842,0.017,cs)
);
}
);
width = 555;
},
{
layerId = "584B1CA6-921E-4923-A283-D75AE04BC333";
shapes = (
{
closed = 1;
nodes = (
(22.654,445.828,o),
(20.212,490.707,o),
(35.187,522.772,cs),
(48.52,551.324,o),
(71.26,560.383,o),
(91.373,556.915,cs),
(129.996,549.893,o),
(144.633,499.069,o),
(147.539,465.656,cs),
(156.036,381.906,o),
(113.704,243.845,o),
(113.527,242.319,cs),
(101.24,135.343,o),
(188.861,23.805,o),
(307.567,36.025,cs),
(421.975,48.317,o),
(469.842,163.47,o),
(469.842,253.564,cs),
(469.842,500.15,ls),
(469.842,527.85,o),
(480.992,550.15,o),
(494.842,550.15,cs),
(508.692,550.15,o),
(519.842,527.85,o),
(519.842,500.15,cs),
(519.842,253.564,ls),
(519.842,98.531,o),
(445.444,-49.306,o),
(310.221,-63.834,cs),
(156.5,-79.658,o),
(43.775,81.698,o),
(64.808,264.809,cs),
(75.635,358.188,o),
(108.006,352.541,o),
(98.408,447.146,cs),
(97.904,452.95,o),
(92.292,456.336,o),
(86.962,457.305,cs),
(84.283,457.767,o),
(81.849,457.696,o),
(80.328,457.44,c),
(80.513,453.379,o),
(80.347,438.265,o),
(74.567,424.392,cs),
(65.701,403.112,o),
(49.997,400.257,o),
(39.357,417.99,cs)
);
},
{
closed = 1;
nodes = (
(469.842,500.15,ls),
(469.842,527.85,o),
(480.992,550.15,o),
(494.842,550.15,cs),
(508.692,550.15,o),
(519.842,527.85,o),
(519.842,500.15,cs),
(519.842,0.017,ls),
(519.842,-27.683,o),
(508.692,-49.983,o),
(494.842,-49.983,cs),
(480.992,-49.983,o),
(469.842,-27.683,o),
(469.842,0.017,cs)
);
}
);
width = 555;
}
);
unicode = 117;
},
{
glyphname = v;
layers = (
{
layerId = "0F7E5E12-47E7-4249-B9AE-11F637CCDB2F";
shapes = (
{
closed = 1;
nodes = (
(126.598,369.13,o),
(183.891,213.338,o),
(202.976,51.5,c),
(203.836,41.088,o),
(208.072,6,o),
(231,6,cs),
(248.799,6,o),
(255.949,26.898,o),
(259.035,51.588,cs),
(277.12,213.348,o),
(334.405,369.142,o),
(426.878,503.83,cs),
(428.446,506.114,o),
(431.546,506.69,o),
(433.83,505.122,cs),
(436.114,503.554,o),
(436.69,500.454,o),
(435.122,498.17,cs),
(343.595,364.858,o),
(286.88,210.652,o),
(268.965,50.412,cs),
(265.867,25.622,o),
(257.372,-4,o),
(231,-4,cs),
(204.815,-4,o),
(194.98,27.06,o),
(193.031,50.442,c),
(174.128,210.625,o),
(117.404,364.868,o),
(26.864,498.191,cs),
(25.307,500.482,o),
(25.899,503.58,o),
(28.191,505.136,cs),
(30.482,506.692,o),
(33.58,506.1,o),
(35.136,503.809,cs)
);
}
);
width = 462;
},
{
layerId = "584B1CA6-921E-4923-A283-D75AE04BC333";
shapes = (
{
closed = 1;
nodes = (
(145.649,394.266,o),
(203.146,227.387,o),
(222.545,60.664,c),
(223.16,52.56,o),
(223.598,51,o),
(231,51,cs),
(237.823,51,o),
(238.573,53.704,o),
(239.675,62.519,cs),
(259.318,238.216,o),
(321.125,402.819,o),
(416.283,541.418,cs),
(427.478,557.725,o),
(443.056,552.826,o),
(451.209,530.435,cs),
(459.362,508.043,o),
(456.913,476.889,o),
(445.717,460.582,cs),
(356.875,331.181,o),
(304.664,185.582,o),
(288.398,40.089,cs),
(288.254,38.873,ls),
(283.384,-0.082,o),
(267.849,-49,o),
(231,-49,cs),
(195.382,-49,o),
(177.111,-2.465,o),
(173.34,42.78,c),
(173.669,39.514,l),
(156.435,185.546,o),
(104.04,331.357,o),
(16.178,460.736,cs),
(5.024,477.159,o),
(2.656,508.339,o),
(10.868,530.645,cs),
(19.08,552.951,o),
(34.669,557.687,o),
(45.822,541.264,cs)
);
}
);
width = 462;
}
);
unicode = 118;
},
{
glyphname = w;
layers = (
{
guides = (
{
position = "{0, -7.6}";
}
);
layerId = "0F7E5E12-47E7-4249-B9AE-11F637CCDB2F";
shapes = (
{
closed = 1;
nodes = (
(378.729,362.653,o),
(422.906,208.992,o),
(438.961,52.266,cs),
(442.089,26.217,o),
(449.913,6.849,o),
(466,6.849,cs),
(483.782,6.849,o),
(491.179,28.909,o),
(493.023,52.129,c),
(510.085,208.956,o),
(553.262,362.643,o),
(622.548,503.788,cs),
(623.809,506.356,o),
(626.809,507.367,o),
(629.276,506.054,cs),
(631.742,504.742,o),
(632.713,501.618,o),
(631.452,499.049,cs),
(562.738,359.069,o),
(519.903,206.618,o),
(502.969,51.041,c),
(500.988,26.292,o),
(491.674,-3.563,o),
(466,-3.563,cs),
(440.929,-3.563,o),
(431.988,26.413,o),
(429.033,51.021,cs),
(413.093,206.623,o),
(369.27,359.061,o),
(301.535,499.077,cs),
(300.288,501.653,o),
(301.277,504.771,o),
(303.751,506.068,cs),
(306.225,507.366,o),
(309.219,506.336,o),
(310.466,503.761,cs)
);
},
{
closed = 1;
nodes = (
(378.729,362.653,o),
(422.906,208.992,o),
(438.961,52.266,cs),
(442.089,26.217,o),
(449.913,6.849,o),
(466,6.849,cs),
(483.782,6.849,o),
(491.179,28.909,o),
(493.023,52.129,c),
(510.085,208.956,o),
(553.262,362.643,o),
(622.548,503.788,cs),
(623.809,506.356,o),
(626.809,507.367,o),
(629.276,506.054,cs),
(631.742,504.742,o),
(632.713,501.618,o),
(631.452,499.049,cs),
(562.738,359.069,o),
(519.903,206.618,o),
(502.969,51.041,c),
(500.988,26.292,o),
(491.674,-3.563,o),
(466,-3.563,cs),
(440.929,-3.563,o),
(431.988,26.413,o),
(429.033,51.021,cs),
(413.093,206.623,o),
(369.27,359.061,o),
(301.535,499.077,cs),
(300.288,501.653,o),
(301.277,504.771,o),
(303.751,506.068,cs),
(306.225,507.366,o),
(309.219,506.336,o),
(310.466,503.761,cs)
);
},
{
closed = 1;
nodes = (
(124.729,362.653,o),
(168.906,208.992,o),
(184.961,52.266,cs),
(188.089,26.217,o),
(195.913,6.849,o),
(212,6.849,cs),
(229.782,6.849,o),
(237.179,28.909,o),
(239.023,52.129,c),
(256.085,208.956,o),
(299.262,362.643,o),
(368.548,503.788,cs),
(369.809,506.356,o),
(372.809,507.367,o),
(375.276,506.054,cs),
(377.742,504.742,o),
(378.713,501.618,o),
(377.452,499.049,cs),
(308.738,359.069,o),
(265.903,206.618,o),
(248.969,51.041,c),
(246.988,26.292,o),
(237.674,-3.563,o),
(212,-3.563,cs),
(186.929,-3.563,o),
(177.988,26.413,o),
(175.033,51.021,cs),
(159.093,206.623,o),
(115.27,359.061,o),
(47.535,499.077,cs),
(46.288,501.653,o),
(47.277,504.771,o),
(49.751,506.068,cs),
(52.225,507.366,o),
(55.219,506.336,o),
(56.465,503.761,cs)
);
}
);
width = 663;
},
{
layerId = "584B1CA6-921E-4923-A283-D75AE04BC333";
shapes = (
{
closed = 1;
nodes = (
(394.105,392.651,o),
(441.188,230.98,o),
(458.45,62.482,c),
(458.352,63.364,l),
(459.215,56.172,o),
(462.325,53.703,o),
(466,53.703,cs),
(472.845,53.703,o),
(473.047,56.512,o),
(473.34,60.179,c),
(473.344,60.226,o),
(473.613,63.082,o),
(473.619,63.129,c),
(491.876,230.864,o),
(537.764,392.462,o),
(609.518,538.633,cs),
(619.418,558.801,o),
(635.186,558.441,o),
(644.871,537.824,cs),
(654.556,517.207,o),
(654.383,484.373,o),
(644.482,464.204,cs),
(578.236,329.252,o),
(538.124,184.737,o),
(522.382,40.112,c),
(522.66,43.062,l),
(518.779,-5.422,o),
(499.987,-50.417,o),
(466,-50.417,cs),
(430.707,-50.417,o),
(414.78,-2.935,o),
(409.746,38.994,cs),
(409.55,40.759,ls),
(394.812,184.621,o),
(353.894,329.063,o),
(288.388,464.471,cs),
(278.558,484.79,o),
(278.5,517.626,o),
(288.257,538.095,cs),
(298.014,558.564,o),
(313.783,558.685,o),
(323.612,538.366,cs)
);
},
{
closed = 1;
nodes = (
(394.105,392.651,o),
(441.188,230.98,o),
(458.45,62.482,c),
(458.352,63.364,l),
(459.215,56.172,o),
(462.325,53.703,o),
(466,53.703,cs),
(472.845,53.703,o),
(473.047,56.512,o),
(473.34,60.179,c),
(473.344,60.226,o),
(473.613,63.082,o),
(473.619,63.129,c),
(491.876,230.864,o),
(537.764,392.462,o),
(609.518,538.633,cs),
(619.418,558.801,o),
(635.186,558.441,o),
(644.871,537.824,cs),
(654.556,517.207,o),
(654.383,484.373,o),
(644.482,464.204,cs),
(578.236,329.252,o),
(538.124,184.737,o),
(522.382,40.112,c),
(522.66,43.062,l),
(518.779,-5.422,o),
(499.987,-50.417,o),
(466,-50.417,cs),
(430.707,-50.417,o),
(414.78,-2.935,o),
(409.746,38.994,cs),
(409.55,40.759,ls),
(394.812,184.621,o),
(353.894,329.063,o),
(288.388,464.471,cs),
(278.558,484.79,o),
(278.5,517.626,o),
(288.257,538.095,cs),
(298.014,558.564,o),
(313.783,558.685,o),
(323.612,538.366,cs)
);
},
{
closed = 1;
nodes = (
(140.105,392.651,o),
(187.188,230.98,o),
(204.45,62.482,c),
(204.352,63.364,l),
(205.215,56.172,o),
(208.325,53.703,o),
(212,53.703,cs),
(218.845,53.703,o),
(219.047,56.512,o),
(219.34,60.179,c),
(219.344,60.226,o),
(219.613,63.082,o),
(219.619,63.129,c),
(237.876,230.864,o),
(283.764,392.462,o),
(355.518,538.633,cs),
(365.418,558.801,o),
(381.186,558.441,o),
(390.871,537.824,cs),
(400.556,517.207,o),
(400.383,484.373,o),
(390.482,464.204,cs),
(324.236,329.252,o),
(284.124,184.737,o),
(268.382,40.112,c),
(268.66,43.062,l),
(264.779,-5.422,o),
(245.987,-50.417,o),
(212,-50.417,cs),
(176.707,-50.417,o),
(160.78,-2.935,o),
(155.746,38.994,cs),
(155.55,40.759,ls),
(140.812,184.621,o),
(99.894,329.063,o),
(34.388,464.471,cs),
(24.558,484.79,o),
(24.5,517.626,o),
(34.257,538.095,cs),
(44.014,558.564,o),
(59.783,558.685,o),
(69.612,538.366,cs)
);
}
);
width = 663;
}
);
unicode = 119;
},
{
glyphname = x;
layers = (
{
layerId = "0F7E5E12-47E7-4249-B9AE-11F637CCDB2F";
shapes = (
{
closed = 1;
nodes = (
(42.164,468.049,o),
(44.219,485.855,o),
(53.213,498.21,cs),
(61.524,509.625,o),
(76.028,516.758,o),
(92.141,512.868,cs),
(117.298,507.15,o),
(125.103,478.293,o),
(130.822,457.323,cs),
(175.55,295.307,o),
(360.316,210.166,o),
(405.824,44.316,cs),
(412.084,21.363,o),
(418.572,1.088,o),
(437.173,-3.14,cs),
(449.402,-6.091,o),
(460.353,-0.688,o),
(466.45,8.252,cs),
(472.55,17.197,o),
(473.61,29.428,o),
(465.942,40.078,cs),
(464.324,42.326,o),
(464.831,45.439,o),
(467.078,47.058,cs),
(469.326,48.676,o),
(472.439,48.169,o),
(474.058,45.921,cs),
(484.427,31.519,o),
(482.939,14.682,o),
(474.711,2.617,cs),
(466.539,-9.366,o),
(451.538,-16.894,o),
(434.859,-12.868,cs),
(409.843,-7.183,o),
(401.984,20.387,o),
(396.177,41.681,cs),
(351.556,204.3,o),
(166.644,289.989,o),
(121.176,454.684,cs),
(114.883,477.758,o),
(108.389,498.92,o),
(89.827,503.139,cs),
(78.129,505.963,o),
(67.555,500.919,o),
(61.297,492.324,cs),
(54.513,483.005,o),
(53.118,469.948,o),
(61.058,458.921,cs),
(62.676,456.674,o),
(62.169,453.561,o),
(59.921,451.942,cs),
(57.674,450.324,o),
(54.561,450.831,o),
(52.942,453.078,cs)
);
},
{
closed = 1;
nodes = (
(54.561,48.17,o),
(57.674,48.676,o),
(59.922,47.058,cs),
(62.17,45.439,o),
(62.676,42.327,o),
(61.058,40.079,cs),
(53.933,30.183,o),
(54.352,18.959,o),
(59.303,10.252,cs),
(65.052,0.139,o),
(76.724,-6.302,o),
(89.892,-3.124,cs),
(108.428,1.088,o),
(114.916,21.363,o),
(121.177,44.319,cs),
(166.684,210.166,o),
(351.45,295.307,o),
(396.178,457.323,cs),
(402.15,479.218,o),
(409.92,507.2,o),
(434.827,512.86,cs),
(451.039,516.774,o),
(465.593,509.567,o),
(473.888,498.071,cs),
(482.797,485.723,o),
(484.796,467.992,o),
(474.058,453.079,cs),
(472.439,450.831,o),
(469.326,450.324,o),
(467.078,451.942,cs),
(464.83,453.561,o),
(464.324,456.674,o),
(465.942,458.922,cs),
(473.852,469.908,o),
(472.497,482.908,o),
(465.778,492.22,cs),
(459.531,500.879,o),
(448.917,505.974,o),
(437.108,503.124,cs),
(418.611,498.92,o),
(412.117,477.759,o),
(405.822,454.677,cs),
(360.356,289.989,o),
(175.444,204.3,o),
(130.823,41.681,cs),
(124.833,19.717,o),
(117.075,-7.201,o),
(92.173,-12.86,cs),
(74.229,-17.192,o),
(58.293,-8.205,o),
(50.609,5.309,cs),
(43.897,17.114,o),
(43.337,32.581,o),
(52.942,45.922,cs)
);
}
);
width = 529;
},
{
layerId = "584B1CA6-921E-4923-A283-D75AE04BC333";
shapes = (
{
closed = 1;
nodes = (
(24.384,440.426,o),
(12.669,494.679,o),
(43.102,536.482,cs),
(57.279,555.956,o),
(76.956,561.752,o),
(93.909,557.66,cs),
(124.634,550.677,o),
(138.714,513.799,o),
(147.916,480.055,cs),
(188.084,334.559,o),
(373.065,248.738,o),
(422.932,66.999,cs),
(428.772,45.586,o),
(429.909,43.705,o),
(438.909,41.66,cs),
(441.363,41.068,o),
(443.434,40.968,o),
(445.014,41.099,c),
(444.778,50.406,o),
(445.997,61.53,o),
(449.466,71.52,cs),
(457.366,94.272,o),
(472.884,99.868,o),
(484.26,84.068,cs),
(501.686,59.865,o),
(514.537,7.89,o),
(485.362,-34.889,cs),
(470.809,-56.229,o),
(449.976,-61.736,o),
(433.091,-57.66,cs),
(402.77,-50.769,o),
(388.539,-15.726,o),
(379.068,19.001,cs),
(338.86,165.535,o),
(153.997,251.146,o),
(104.084,431.945,cs),
(97.994,454.273,o),
(97.026,456.309,o),
(88.091,458.34,cs),
(85.543,458.955,o),
(83.429,459.013,o),
(81.972,458.856,c),
(82.268,455.57,o),
(82.005,440.356,o),
(77.534,427.48,cs),
(69.634,404.728,o),
(54.116,399.132,o),
(42.74,414.931,cs)
);
},
{
closed = 1;
nodes = (
(54.116,99.868,o),
(69.634,94.272,o),
(77.534,71.52,cs),
(80.831,62.025,o),
(82.24,51.128,o),
(81.986,41.11,c),
(82.89,41.014,o),
(85.054,40.927,o),
(88.091,41.66,cs),
(97.506,43.8,o),
(99.029,48.522,o),
(104.068,66.999,cs),
(153.935,248.738,o),
(338.916,334.559,o),
(379.084,480.055,cs),
(384.994,501.727,o),
(398.026,549.691,o),
(433.091,557.66,cs),
(451.951,562.213,o),
(471.07,554.263,o),
(484.073,536.241,cs),
(499.046,515.488,o),
(518.193,462.061,o),
(484.26,414.932,cs),
(472.884,399.132,o),
(457.366,404.728,o),
(449.466,427.48,cs),
(445.482,438.952,o),
(444.43,452.225,o),
(445.028,458.856,c),
(443.864,458.982,o),
(441.734,459.022,o),
(438.909,458.34,cs),
(429.446,456.189,o),
(427.975,450.494,o),
(422.917,431.945,cs),
(373.003,251.146,o),
(188.14,165.535,o),
(147.932,19.001,cs),
(141.772,-3.586,o),
(128.909,-49.705,o),
(93.909,-57.66,cs),
(73.147,-62.671,o),
(51.61,-52.918,o),
(38.447,-29.766,cs),
(25.081,-6.259,o),
(13.939,44.067,o),
(42.74,84.068,cs)
);
}
);
width = 529;
}
);
unicode = 120;
},
{
glyphname = y;
layers = (
{
layerId = "0F7E5E12-47E7-4249-B9AE-11F637CCDB2F";
shapes = (
{
closed = 1;
nodes = (
(0.438,461.838,o),
(3.022,479.358,o),
(12.408,491.377,cs),
(20.611,501.882,o),
(34.133,508.349,o),
(49.352,505.725,cs),
(76.055,501.081,o),
(85.819,473.174,o),
(87.722,449.383,c),
(94.648,379.135,o),
(61.154,322.895,o),
(53.463,254.639,cs),
(37.053,107.908,o),
(138.33,-24.12,o),
(271.071,-9.898,cs),
(388.539,2.417,o),
(454.464,126.021,o),
(454.464,255.195,cs),
(454.464,497.863,ls),
(454.464,500.633,o),
(456.694,502.863,o),
(459.464,502.863,cs),
(462.234,502.863,o),
(464.464,500.633,o),
(464.464,497.863,cs),
(464.464,255.195,ls),
(464.464,124.09,o),
(397.314,-6.718,o),
(272.125,-19.842,cs),
(130.875,-34.976,o),
(26.667,105.018,o),
(43.526,255.753,cs),
(51.491,326.449,o),
(84.535,379.796,o),
(77.758,448.539,c),
(76.257,467.305,o),
(69.203,492.123,o),
(47.646,495.872,cs),
(36.401,497.81,o),
(26.443,493.102,o),
(20.289,485.223,cs),
(13.235,476.189,o),
(11.342,463.2,o),
(18.506,451.558,cs),
(19.958,449.199,o),
(19.227,446.131,o),
(16.868,444.68,cs),
(14.509,443.228,o),
(11.441,443.959,o),
(9.989,446.318,cs)
);
},
{
closed = 1;
nodes = (
(-2.746,-179.463,o),
(89.773,-118.128,o),
(186.292,-133.227,cs),
(302.214,-153.019,o),
(377.309,-282.651,o),
(493.202,-271.157,cs),
(581.672,-261.746,o),
(634.158,-173.674,o),
(592.221,-106.575,cs),
(574.928,-79.194,o),
(540.137,-64.135,o),
(507.499,-43.816,cs),
(479.282,-26.248,o),
(454.465,-4.879,o),
(454.465,33.075,cs),
(454.465,255.195,ls),
(454.465,257.965,o),
(456.695,260.195,o),
(459.465,260.195,cs),
(462.235,260.195,o),
(464.465,257.965,o),
(464.465,255.195,cs),
(464.465,33.075,ls),
(464.465,0.04,o),
(485.868,-18.569,o),
(512.785,-35.326,cs),
(543.136,-54.222,o),
(581.641,-71.096,o),
(600.689,-101.255,cs),
(646.809,-175.046,o),
(589.75,-270.942,o),
(494.224,-281.105,cs),
(373.682,-293.059,o),
(297.151,-162.323,o),
(184.675,-143.097,cs),
(93.344,-128.827,o),
(5.798,-186.891,o),
(-15.129,-277.259,cs),
(-15.754,-279.958,o),
(-18.429,-281.627,o),
(-21.128,-281.002,cs),
(-23.827,-280.377,o),
(-25.496,-277.702,o),
(-24.871,-275.003,cs)
);
}
);
width = 532;
},
{
layerId = "584B1CA6-921E-4923-A283-D75AE04BC333";
shapes = (
{
closed = 1;
nodes = (
(-27.393,452.181,o),
(-14.68,507.936,o),
(2.868,530.408,cs),
(16.398,547.734,o),
(34.487,553.399,o),
(50.651,550.613,cs),
(90.465,543.688,o),
(104.625,491.771,o),
(107.349,457.724,c),
(116.515,364.754,o),
(73.158,246.641,o),
(72.887,244.242,cs),
(60.745,135.672,o),
(149.553,22.125,o),
(270.284,35.06,cs),
(385.669,47.157,o),
(434.464,164.198,o),
(434.464,255.195,cs),
(434.464,497.863,ls),
(434.464,525.563,o),
(445.614,547.863,o),
(459.464,547.863,cs),
(473.314,547.863,o),
(484.464,525.563,o),
(484.464,497.863,cs),
(484.464,255.195,ls),
(484.464,99.455,o),
(409.239,-50.509,o),
(272.915,-64.801,cs),
(117.688,-81.432,o),
(3.435,81.366,o),
(24.102,266.148,cs),
(34.924,362.196,o),
(68.255,337.506,o),
(58.135,440.152,c),
(57.604,446.796,o),
(52.786,449.864,o),
(46.339,450.985,cs),
(43.2,451.526,o),
(40.425,451.302,o),
(39.198,451,c),
(39.46,445.94,o),
(39.19,431.043,o),
(33.65,417.407,cs),
(24.917,395.909,o),
(9.232,392.664,o),
(-1.517,410.132,cs)
);
},
{
closed = 1;
nodes = (
(-13.786,-130.328,o),
(92.63,-73.502,o),
(187.523,-88.329,cs),
(305.654,-108.522,o),
(381.034,-237.245,o),
(492.43,-226.197,cs),
(626.22,-211.964,o),
(581.122,-143.412,o),
(580.888,-143.038,c),
(571.631,-128.382,o),
(549.678,-116.552,o),
(502.711,-87.312,cs),
(473.903,-69.376,o),
(434.465,-39.152,o),
(434.465,33.075,cs),
(434.465,255.195,ls),
(434.465,282.895,o),
(445.615,305.195,o),
(459.465,305.195,cs),
(473.315,305.195,o),
(484.465,282.895,o),
(484.465,255.195,cs),
(484.465,37.085,l),
(485.441,35.028,o),
(493.457,23.183,o),
(517.573,8.169,cs),
(546.599,-9.902,o),
(590.112,-30.101,o),
(612.023,-64.792,cs),
(673.906,-163.804,o),
(611.173,-313.706,o),
(494.996,-326.065,cs),
(370.464,-338.415,o),
(293.025,-206.727,o),
(183.447,-187.995,cs),
(95.808,-174.302,o),
(19.76,-230.668,o),
(3.288,-294.679,cs),
(2.685,-297.144,ls),
(-3.136,-322.279,o),
(-17.939,-333.142,o),
(-30.507,-321.501,cs),
(-43.074,-309.86,o),
(-48.506,-280.253,o),
(-42.685,-255.118,cs)
);
}
);
width = 532;
}
);
unicode = 121;
},
{
glyphname = z;
layers = (
{
layerId = "0F7E5E12-47E7-4249-B9AE-11F637CCDB2F";
shapes = (
{
closed = 1;
nodes = (
(66.369,464.039,o),
(66.774,480.028,o),
(73.882,492.13,cs),
(81.522,505.136,o),
(96.915,513.687,o),
(114.46,509.008,c),
(129.616,505.565,o),
(135.867,491.667,o),
(140.739,479.026,cs),
(143.659,471.448,o),
(146.354,463.455,o),
(151.154,456.808,cs),
(191.779,401.409,o),
(338.652,401.829,o),
(377.683,456.292,c),
(383.254,470.915,o),
(392.128,503.864,o),
(414.767,509.008,c),
(431.135,513.373,o),
(446.606,505.915,o),
(454.64,493.283,cs),
(462.962,480.197,o),
(462.528,463.38,o),
(452.614,450.563,c),
(50.224,48.179,l),
(39.213,35.592,o),
(43.693,19.973,o),
(55.507,10.988,cs),
(62.18,5.913,o),
(70.789,3.417,o),
(79.295,5.176,c),
(94.941,8.901,o),
(93.568,29.238,o),
(108.992,54.154,cs),
(162.197,141.489,o),
(367.03,141.489,o),
(420.226,54.169,cs),
(433.875,32.12,o),
(429.326,10.8,o),
(449.982,5.165,c),
(462.872,2.158,o),
(474.249,8.614,o),
(480.008,18.708,cs),
(485.109,27.646,o),
(485.547,39.034,o),
(478.637,48.631,cs),
(477.019,50.879,o),
(477.526,53.992,o),
(479.774,55.61,cs),
(482.022,57.229,o),
(485.134,56.722,o),
(486.753,54.474,cs),
(496.229,41.311,o),
(495.486,25.655,o),
(488.694,13.752,cs),
(481.079,0.406,o),
(465.535,-8.732,o),
(447.62,-4.55,c),
(421.913,2.461,o),
(421.973,32.347,o),
(411.695,48.951,cs),
(362.386,129.89,o),
(166.841,129.89,o),
(117.523,48.936,cs),
(105.998,30.319,o),
(102.514,0.427,o),
(81.394,-4.6,c),
(69.605,-7.039,o),
(58.101,-3.548,o),
(49.453,3.028,cs),
(33.265,15.34,o),
(27.693,37.847,o),
(42.888,54.979,c),
(445.02,457.097,l),
(452.534,467.156,o),
(451.831,479.065,o),
(446.201,487.917,cs),
(440.396,497.046,o),
(429.572,502.609,o),
(417.163,499.302,c),
(397.99,494.944,o),
(394.497,472.083,o),
(386.559,451.488,c),
(343.452,390.084,o),
(187.746,389.999,o),
(143.068,450.924,cs),
(140.504,454.475,o),
(137.703,459.095,o),
(131.408,475.43,cs),
(126.443,488.313,o),
(122.142,497.01,o),
(111.974,499.324,c),
(99.286,502.707,o),
(88.164,496.699,o),
(82.505,487.065,cs),
(77.329,478.252,o),
(76.918,466.686,o),
(84.362,456.891,cs),
(86.038,454.686,o),
(85.612,451.561,o),
(83.406,449.885,cs),
(81.201,448.209,o),
(78.076,448.635,o),
(76.4,450.841,cs)
);
}
);
width = 546;
},
{
layerId = "584B1CA6-921E-4923-A283-D75AE04BC333";
shapes = (
{
closed = 1;
nodes = (
(49.966,434.036,o),
(35.491,482.557,o),
(61.988,527.67,cs),
(76.806,552.898,o),
(99.501,558.263,o),
(116.325,553.776,c),
(135.347,549.453,o),
(147.09,530.545,o),
(155.874,507.752,cs),
(159.704,497.813,o),
(160.177,496.586,o),
(161.268,495.076,cs),
(182.585,466.008,o),
(301.101,419.379,o),
(364.735,491.194,c),
(372.02,512.319,o),
(383.83,547.169,o),
(412.902,553.776,c),
(432.044,558.881,o),
(452.675,550.659,o),
(465.873,529.906,cs),
(482.096,504.395,o),
(492.728,450.37,o),
(461.255,410.373,c),
(57.713,6.831,l),
(59.185,55.801,l),
(59.381,55.542,o),
(60.07,54.729,o),
(61.366,53.744,cs),
(64.983,50.993,o),
(71.063,48.632,o),
(77.617,49.988,c),
(85.324,51.823,o),
(78.697,59.987,o),
(97.401,90.202,cs),
(157.878,189.474,o),
(371.349,189.474,o),
(431.75,90.325,cs),
(454.102,54.217,o),
(425.026,57.251,o),
(451.983,49.898,c),
(453.227,49.608,o),
(454.9,49.418,o),
(456.341,49.418,c),
(457.708,49.497,l),
(457.464,59.135,o),
(458.736,70.209,o),
(462.161,80.073,cs),
(470.061,102.825,o),
(485.58,108.421,o),
(496.955,92.62,cs),
(519.062,61.915,o),
(518.481,9.564,o),
(500.827,-21.375,cs),
(487.198,-45.262,o),
(465.844,-54.009,o),
(445.709,-49.306,c),
(412.354,-40.21,o),
(407.804,0.464,o),
(400.104,12.903,cs),
(358.067,81.906,o),
(171.16,81.906,o),
(129.047,12.779,cs),
(125.93,7.745,o),
(99.058,-45.607,o),
(83.145,-49.396,c),
(68.15,-52.498,o),
(54.869,-48.301,o),
(43.595,-39.727,cs),
(22.921,-24.005,o),
(-19.621,34.898,o),
(34.802,95.723,c),
(437.666,498.587,l),
(434.969,451.294,l),
(433.016,454.365,o),
(424.418,455.971,o),
(419.028,454.534,c),
(406.492,451.685,o),
(408.202,439.839,o),
(402.002,423.563,cs),
(399.577,417.449,l),
(348.222,339.661,o),
(183.573,343.629,o),
(132.954,412.656,cs),
(128.575,418.719,o),
(124.133,426.307,o),
(116.272,446.704,cs),
(113.66,453.483,o),
(113.405,453.805,o),
(110.199,454.534,c),
(107.292,455.309,o),
(105.422,455.273,o),
(105.345,455.267,c),
(105.556,449.704,o),
(105.081,437.981,o),
(101.266,426.385,cs),
(93.654,403.244,o),
(78.211,396.871,o),
(66.64,412.095,cs)
);
}
);
width = 546;
}
);
unicode = 122;
},
{
glyphname = zero;
layers = (
{
layerId = "0F7E5E12-47E7-4249-B9AE-11F637CCDB2F";
shapes = (
{
closed = 1;
nodes = (
(45,531.401,o),
(139.513,695,o),
(281,695,cs),
(422.507,695,o),
(518,531.371,o),
(518,351,cs),
(518,169.62,o),
(422.5,6,o),
(281,6,cs),
(139.519,6,o),
(45,169.589,o),
(45,351,cs)
);
},
{
closed = 1;
nodes = (
(35,168.411,o),
(130.481,-4,o),
(281,-4,cs),
(431.5,-4,o),
(528,168.38,o),
(528,351,cs),
(528,532.629,o),
(431.493,705,o),
(281,705,cs),
(130.487,705,o),
(35,532.599,o),
(35,351,cs)
);
}
);
width = 563;
},
{
layerId = "584B1CA6-921E-4923-A283-D75AE04BC333";
shapes = (
{
closed = 1;
nodes = (
(65,492.989,o),
(142.318,650,o),
(281,650,cs),
(419.834,650,o),
(498,492.757,o),
(498,351,cs),
(498,208.168,o),
(419.784,51,o),
(281,51,cs),
(142.367,51,o),
(65,207.935,o),
(65,351,cs)
);
},
{
closed = 1;
nodes = (
(15,130.065,o),
(127.633,-49,o),
(281,-49,cs),
(434.216,-49,o),
(548,129.832,o),
(548,351,cs),
(548,571.243,o),
(434.166,750,o),
(281,750,cs),
(127.682,750,o),
(15,571.011,o),
(15,351,cs)
);
}
);
width = 563;
}
);
unicode = 48;
},
{
glyphname = one;
layers = (
{
layerId = "0F7E5E12-47E7-4249-B9AE-11F637CCDB2F";
shapes = (
{
closed = 1;
nodes = (
(23.198,418.377,o),
(11.466,460.817,o),
(29.417,501.998,cs),
(64.421,582.302,o),
(204,570.254,o),
(204,660,cs),
(204,681.22,o),
(214.249,707,o),
(237,707,cs),
(260.83,707,o),
(270,681.086,o),
(270,660,cs),
(270,-1,ls),
(270,-3.77,o),
(267.77,-6,o),
(265,-6,cs),
(262.23,-6,o),
(260,-3.77,o),
(260,-1,cs),
(260,660,ls),
(260,680.914,o),
(251.17,697,o),
(237,697,cs),
(223.751,697,o),
(214,680.78,o),
(214,660,cs),
(214,561.903,o),
(71.511,573.542,o),
(38.583,498.002,cs),
(22.534,461.183,o),
(32.802,423.623,o),
(65.037,398.972,cs),
(67.238,397.289,o),
(67.654,394.163,o),
(65.972,391.963,cs),
(64.289,389.762,o),
(61.163,389.346,o),
(58.963,391.028,cs)
);
}
);
width = 311;
},
{
layerId = "584B1CA6-921E-4923-A283-D75AE04BC333";
shapes = (
{
closed = 1;
nodes = (
(13.374,378.655,o),
(-23.563,444.031,o),
(15.156,532.857,cs),
(51.577,616.411,o),
(164.737,618.823,o),
(184.085,662.336,c),
(184.085,704.171,o),
(204.26,752,o),
(237,752,cs),
(265.12,752,o),
(290,720.396,o),
(290,660,cs),
(290,-1,ls),
(290,-28.7,o),
(278.85,-51,o),
(265,-51,cs),
(251.15,-51,o),
(240,-28.7,o),
(240,-1,cs),
(240,660,l),
(234,660,l),
(234,511.106,o),
(80.521,530.637,o),
(52.844,467.143,cs),
(52.076,465.381,o),
(51.762,464.401,o),
(51.691,464.177,c),
(52.204,462.89,o),
(56.13,454.085,o),
(67.611,444.37,c),
(70.928,441.703,l),
(83.865,431.81,o),
(90.298,403.016,o),
(85.351,377.143,cs),
(80.405,351.27,o),
(66.008,338.405,o),
(53.072,348.297,cs)
);
}
);
width = 311;
}
);
unicode = 49;
},
{
glyphname = three;
layers = (
{
layerId = "0F7E5E12-47E7-4249-B9AE-11F637CCDB2F";
shapes = (
{
closed = 1;
nodes = (
(369.405,706.032,l),
(391.863,712.24,o),
(415.835,697.592,o),
(416.983,673.415,c),
(418.121,659.758,o),
(412.405,646.812,o),
(400.584,639.72,cs),
(74.6,441.729,ls),
(51.258,427.521,o),
(38.037,407.348,o),
(48.069,391.906,c),
(55.758,381.141,o),
(72.887,381.096,o),
(83.315,392.381,c),
(208.977,543.584,o),
(468.182,439.828,o),
(459.997,218.833,cs),
(455.9,95.911,o),
(352.554,1.244,o),
(228.56,-11.969,cs),
(156.266,-20.114,o),
(83.952,0.25,o),
(26.911,45.068,cs),
(24.733,46.78,o),
(24.357,49.911,o),
(26.069,52.089,cs),
(27.78,54.267,o),
(30.911,54.643,o),
(33.089,52.932,cs),
(88.048,9.75,o),
(157.735,-9.886,o),
(227.47,-2.028,cs),
(347.446,10.756,o),
(446.1,102.089,o),
(450.003,219.176,cs),
(457.847,430.972,o),
(210.274,529.681,o),
(90.766,385.708,c),
(84.944,379.354,o),
(59.938,358.088,o),
(39.808,386.275,c),
(23.963,410.652,o),
(46.742,436.479,o),
(69.402,450.272,cs),
(395.428,648.287,ls),
(403.596,653.188,o),
(407.879,662.242,o),
(407.012,672.673,c),
(406.09,692.03,o),
(386.4,701.09,o),
(370.763,696,c),
(30,696,ls),
(27.23,696,o),
(25,698.23,o),
(25,701,cs),
(25,703.77,o),
(27.23,706,o),
(30,706,cs)
);
}
);
width = 507;
},
{
layerId = "584B1CA6-921E-4923-A283-D75AE04BC333";
shapes = (
{
closed = 1;
nodes = (
(368.587,751,l),
(381.734,754.944,o),
(433.088,756.87,o),
(436.774,679.48,c),
(436.66,681.22,l),
(441.03,628.779,o),
(417.689,603.612,o),
(405.224,596.133,cs),
(79.272,398.162,ls),
(69.52,392.226,o),
(62.978,385.626,o),
(60.904,382.02,c),
(58.79,429.296,l),
(59.337,428.454,o),
(70.866,428.357,o),
(74.602,432.404,c),
(209.983,595.302,o),
(489.968,486.31,o),
(479.945,215.674,cs),
(474.33,47.228,o),
(347.066,-44.383,o),
(229.406,-56.921,cs),
(155.473,-65.251,o),
(80.78,-44.618,o),
(20.859,2.462,cs),
(7.968,12.591,o),
(1.667,41.501,o),
(6.731,67.283,cs),
(11.795,93.064,o),
(26.25,105.666,o),
(39.141,95.538,cs),
(91.151,54.673,o),
(158.425,35.24,o),
(226.632,42.925,cs),
(344.05,55.437,o),
(427.415,143.116,o),
(430.062,222.51,cs),
(435.942,381.271,o),
(210.643,479.452,o),
(99.397,345.596,c),
(75.056,319.226,o),
(46.595,324.365,o),
(29.21,348.704,c),
(-6.445,403.558,o),
(35.169,475.846,o),
(64.728,493.838,cs),
(323.49,651,l),
(30,651,ls),
(16.15,651,o),
(5,673.3,o),
(5,701,cs),
(5,728.7,o),
(16.15,751,o),
(30,751,cs)
);
}
);
width = 507;
}
);
unicode = 51;
},
{
glyphname = four;
layers = (
{
layerId = "0F7E5E12-47E7-4249-B9AE-11F637CCDB2F";
shapes = (
{
closed = 1;
nodes = (
(326.567,707.315,o),
(339.754,713.121,o),
(353.456,711.979,cs),
(364.359,710.889,o),
(373.471,705.342,o),
(379.58,697.371,cs),
(386.58,688.238,o),
(389.492,675.905,o),
(385.789,663.563,c),
(385.284,662.528,o),
(386.429,664.673,o),
(384.959,661.946,c),
(4.739,168.957,l),
(2.199,156.257,o),
(10.431,127.785,o),
(41.019,133.903,c),
(59.197,136.507,o),
(67.903,154.367,o),
(80.798,173.708,c),
(176.68,327.731,o),
(401.246,327.819,o),
(498.249,173.635,cs),
(509.538,155.163,o),
(519.116,136.586,o),
(536.861,133.924,c),
(546.856,131.925,o),
(555.545,134.722,o),
(562.108,139.956,cs),
(570.652,146.77,o),
(575.501,157.997,o),
(573.097,170.019,cs),
(572.554,172.736,o),
(574.303,175.36,o),
(577.019,175.903,cs),
(579.736,176.446,o),
(582.36,174.697,o),
(582.903,171.98,cs),
(586.094,156.026,o),
(579.616,141.128,o),
(568.343,132.138,cs),
(559.459,125.053,o),
(547.55,121.591,o),
(535.139,124.076,c),
(512.815,127.425,o),
(500.122,151.393,o),
(489.768,168.337,cs),
(396.718,316.237,o),
(181.278,316.197,o),
(89.203,168.292,c),
(77.193,150.277,o),
(66.128,127.396,o),
(42.981,124.097,c),
(14.618,118.424,o),
(-10.628,143.354,o),
(-4.903,171.98,c),
(-4.134,173.827,o),
(-4.847,172.261,o),
(-3.959,174.053,c),
(376.408,667.233,l),
(378.233,673.314,o),
(377.871,683.162,o),
(371.643,691.288,cs),
(367.14,697.163,o),
(360.352,701.24,o),
(352.544,702.021,cs),
(342.329,702.872,o),
(333.335,698.489,o),
(329.472,690.764,cs),
(328.233,688.286,o),
(325.242,687.289,o),
(322.764,688.528,cs),
(320.286,689.766,o),
(319.289,692.758,o),
(320.528,695.236,cs)
);
},
{
closed = 1;
nodes = (
(330,2,ls),
(330,-0.77,o),
(327.77,-3,o),
(325,-3,cs),
(322.23,-3,o),
(320,-0.77,o),
(320,2,cs),
(320,425,ls),
(320,427.77,o),
(322.23,430,o),
(325,430,cs),
(327.77,430,o),
(330,427.77,o),
(330,425,cs)
);
}
);
width = 620;
},
{
layerId = "584B1CA6-921E-4923-A283-D75AE04BC333";
shapes = (
{
closed = 1;
nodes = (
(320.161,754.032,o),
(340.607,758.076,o),
(354.145,756.947,cs),
(367.387,755.623,o),
(379.528,748.918,o),
(389.271,736.206,cs),
(400.382,721.708,o),
(415.837,683.939,o),
(402.437,639.275,cs),
(401.714,636.865,o),
(395.778,624.574,o),
(394.599,623.045,cs),
(13.599,129.045,l),
(20.251,184.233,l),
(20.381,184.031,o),
(26.584,176.156,o),
(39.866,178.812,c),
(54.888,180.958,o),
(58.798,194.181,o),
(69.672,210.491,c),
(69.345,209.983,l),
(172.537,375.749,o),
(405.496,375.541,o),
(509.693,209.921,cs),
(522.674,188.678,o),
(526.021,180.629,o),
(538.179,178.806,c),
(544.123,177.617,o),
(548.487,178.542,o),
(552.085,180.155,c),
(553.519,180.873,l),
(554.196,189.916,o),
(558.122,208.949,o),
(568.715,217.424,cs),
(581.575,227.711,o),
(596.068,215.288,o),
(601.212,189.569,cs),
(611.096,140.15,o),
(588.687,100.929,o),
(574.485,89.603,cs),
(562.257,79.851,o),
(547.649,76.428,o),
(533.821,79.194,c),
(507.366,83.162,o),
(490.171,112.665,o),
(478.307,132.079,cs),
(392.94,267.768,o),
(185.934,269.026,o),
(100.328,131.509,c),
(88.634,113.968,o),
(72.893,83.296,o),
(44.134,79.188,c),
(14.198,73.2,o),
(-42.075,95.255,o),
(-23.212,189.569,cs),
(-22.273,194.266,o),
(-15.722,210.203,o),
(-13.6,212.955,cs),
(319.152,644.397,l),
(317.548,644.809,o),
(311.856,648.578,o),
(307.322,657.645,cs),
(297.529,677.231,o),
(297.529,708.768,o),
(307.322,728.355,cs)
);
},
{
closed = 1;
nodes = (
(350,2,ls),
(350,-25.7,o),
(338.85,-48,o),
(325,-48,cs),
(311.15,-48,o),
(300,-25.7,o),
(300,2,cs),
(300,425,ls),
(300,452.7,o),
(311.15,475,o),
(325,475,cs),
(338.85,475,o),
(350,452.7,o),
(350,425,cs)
);
}
);
width = 620;
}
);
unicode = 52;
},
{
glyphname = five;
layers = (
{
layerId = "0F7E5E12-47E7-4249-B9AE-11F637CCDB2F";
shapes = (
{
closed = 1;
nodes = (
(422,705,ls),
(424.77,705,o),
(427,702.77,o),
(427,700,cs),
(427,697.23,o),
(424.77,695,o),
(422,695,cs),
(45,695,l),
(44.983,390.951,l),
(54.168,381.609,o),
(69.556,382.035,o),
(78.184,392.23,cs),
(208.701,546.384,o),
(471.037,443.017,o),
(469,218.96,cs),
(467.978,92.208,o),
(365.757,-9.957,o),
(238.122,-11.999,cs),
(154.245,-14.044,o),
(76.537,30.96,o),
(35.644,103.546,cs),
(34.284,105.959,o),
(35.133,108.997,o),
(37.546,110.356,cs),
(39.959,111.716,o),
(42.997,110.867,o),
(44.357,108.454,cs),
(83.463,39.04,o),
(157.755,-3.956,o),
(237.92,-2,cs),
(360.243,-0.043,o),
(458.023,97.792,o),
(459,219.044,cs),
(460.963,434.983,o),
(209.299,531.616,o),
(85.816,385.77,cs),
(72.008,369.451,o),
(46.965,371.369,o),
(35,387.252,c),
(35,705,l)
);
}
);
width = 507;
},
{
layerId = "584B1CA6-921E-4923-A283-D75AE04BC333";
shapes = (
{
closed = 1;
nodes = (
(422,750,ls),
(435.85,750,o),
(447,727.7,o),
(447,700,cs),
(447,672.3,o),
(435.85,650,o),
(422,650,cs),
(65,650,l),
(65,429.815,l),
(66.907,430.283,o),
(68.725,431.388,o),
(69.285,432.05,cs),
(209.723,597.921,o),
(491.468,490.005,o),
(488.996,218.142,cs),
(487.68,54.963,o),
(371.576,-54.864,o),
(238.305,-56.996,cs),
(153.142,-59.073,o),
(69.927,-13.972,o),
(23.405,68.604,cs),
(13.047,86.991,o),
(12.108,118.472,o),
(21.302,139.189,cs),
(30.495,159.907,o),
(46.236,161.783,o),
(56.595,143.396,cs),
(90.073,83.972,o),
(158.858,41.073,o),
(237.748,42.997,cs),
(355.858,44.887,o),
(438.339,137.375,o),
(439.004,219.858,cs),
(440.51,385.523,o),
(209.121,481.075,o),
(94.715,345.95,cs),
(71.394,318.388,o),
(36.262,328.433,o),
(15,363.073,c),
(14.998,750.006,l)
);
}
);
width = 507;
}
);
unicode = 53;
},
{
glyphname = six;
layers = (
{
layerId = "0F7E5E12-47E7-4249-B9AE-11F637CCDB2F";
shapes = (
{
closed = 1;
nodes = (
(66.291,419.349,o),
(69.162,420.654,o),
(71.756,419.682,cs),
(74.349,418.709,o),
(75.654,415.838,o),
(74.682,413.244,cs),
(68.733,397.381,o),
(69.192,382.612,o),
(82.129,376.524,cs),
(97.705,369.194,o),
(108.436,379.22,o),
(114.527,392.238,c),
(207.105,566.362,o),
(489.977,448.006,o),
(491,226.04,cs),
(492.021,98.347,o),
(389.823,-6.094,o),
(262.844,-1.998,cs),
(131.654,2.102,o),
(35,119.819,o),
(35,254,cs),
(35,486.575,o),
(211.953,681.719,o),
(443.5,704.975,cs),
(446.256,705.252,o),
(448.698,703.256,o),
(448.975,700.5,cs),
(449.252,697.744,o),
(447.256,695.302,o),
(444.5,695.025,cs),
(218.047,672.281,o),
(45,481.425,o),
(45,254,cs),
(45,124.181,o),
(138.346,11.898,o),
(263.161,7.997,cs),
(384.177,4.094,o),
(481.979,103.653,o),
(481,225.968,cs),
(480.023,438.071,o),
(210.754,551.657,o),
(123.524,387.871,c),
(114.883,369.508,o),
(98.371,357.829,o),
(77.871,367.476,cs),
(56.808,377.388,o),
(59.267,400.619,o),
(65.318,416.756,cs)
);
}
);
width = 527;
},
{
layerId = "584B1CA6-921E-4923-A283-D75AE04BC333";
shapes = (
{
closed = 1;
nodes = (
(58.31,467.16,o),
(73.92,471.62,o),
(85,455,cs),
(91.484,445.274,o),
(94.798,430.626,o),
(94.877,419.382,c),
(98.438,420.319,o),
(100.223,422.984,o),
(101.341,425.36,c),
(205.793,621.498,o),
(509.759,495.523,o),
(510.998,226.63,cs),
(512.287,65.437,o),
(399.411,-51.407,o),
(262.603,-46.994,cs),
(120.263,-42.546,o),
(15,90.515,o),
(15,254,cs),
(15,517.349,o),
(200.543,725.611,o),
(442.746,749.937,cs),
(456.579,751.326,o),
(468.274,730.173,o),
(468.968,702.508,cs),
(469.663,674.843,o),
(459.086,651.452,o),
(445.254,650.063,cs),
(224.14,627.855,o),
(65,444.617,o),
(65,254,cs),
(65,157.783,o),
(146.852,56.636,o),
(263.397,52.994,cs),
(378.814,49.271,o),
(461.669,141.973,o),
(461.002,225.37,cs),
(460.252,388.179,o),
(212.952,497.902,o),
(136.658,354.64,c),
(137.205,355.732,l),
(121.997,323.415,o),
(98.299,312.023,o),
(74.274,323.329,cs),
(48.751,335.34,o),
(24.935,378.159,o),
(50,445,cs)
);
}
);
width = 527;
}
);
unicode = 54;
},
{
glyphname = seven;
layers = (
{
layerId = "0F7E5E12-47E7-4249-B9AE-11F637CCDB2F";
shapes = (
{
closed = 1;
nodes = (
(7.241,662.869,o),
(12.426,677.083,o),
(21.976,686.673,cs),
(31.44,696.177,o),
(45.349,701.282,o),
(60.03,697.892,c),
(83.22,693.475,o),
(95.77,669.811,o),
(107.194,651.723,cs),
(192.222,520.759,o),
(382.778,520.759,o),
(467.789,651.696,cs),
(479.407,670.09,o),
(490.915,693.518,o),
(514.876,697.872,c),
(529.651,701.282,o),
(543.559,696.177,o),
(553.024,686.674,cs),
(563.455,676.2,o),
(567.768,661.19,o),
(564.705,647.053,c),
(137.175,-1.751,ls),
(135.651,-4.064,o),
(132.562,-4.699,o),
(130.249,-3.175,cs),
(127.936,-1.651,o),
(127.301,1.438,o),
(128.825,3.751,cs),
(555.25,650.84,l),
(557.059,661.849,o),
(553.128,672.397,o),
(545.938,679.617,cs),
(538.66,686.925,o),
(528.2,690.684,o),
(517.009,688.104,c),
(496.991,684.465,o),
(488.564,665.863,o),
(476.194,646.277,cs),
(387.222,509.241,o),
(187.778,509.241,o),
(98.789,646.304,cs),
(86.476,665.799,o),
(76.875,684.507,o),
(57.876,688.128,c),
(46.8,690.684,o),
(36.339,686.925,o),
(29.061,679.617,cs),
(21.677,672.202,o),
(17.73,661.279,o),
(19.91,649.944,cs),
(20.433,647.224,o),
(18.664,644.613,o),
(15.944,644.09,cs),
(13.224,643.567,o),
(10.613,645.336,o),
(10.09,648.056,cs)
);
},
{
closed = 1;
nodes = (
(103,335,ls),
(100.23,335,o),
(98,337.23,o),
(98,340,cs),
(98,342.77,o),
(100.23,345,o),
(103,345,cs),
(516,345,ls),
(518.77,345,o),
(521,342.77,o),
(521,340,cs),
(521,337.23,o),
(518.77,335,o),
(516,335,cs)
);
}
);
width = 572;
},
{
layerId = "584B1CA6-921E-4923-A283-D75AE04BC333";
shapes = (
{
closed = 1;
nodes = (
(-18.369,683.238,o),
(3.421,716.903,o),
(14.301,727.829,cs),
(28.081,741.667,o),
(45.497,746.443,o),
(61.618,742.723,c),
(88.839,737.538,o),
(105.554,708.724,o),
(118.254,688.614,cs),
(196.263,568.462,o),
(378.737,568.462,o),
(456.614,688.408,cs),
(465.936,703.168,o),
(484.298,737.435,o),
(513.436,742.733,c),
(529.595,746.462,o),
(547.421,741.162,o),
(560.698,727.83,cs),
(575.682,712.784,o),
(594.821,678.128,o),
(580.344,617.109,c),
(148.112,-38.831,ls),
(137.078,-55.575,o),
(121.456,-51.29,o),
(113.084,-29.223,cs),
(104.712,-7.157,o),
(106.855,24.088,o),
(117.888,40.831,cs),
(514.043,642.021,l),
(510.804,641.068,o),
(504.412,636.55,o),
(487.254,609.386,cs),
(391.263,461.538,o),
(183.737,461.538,o),
(87.614,609.592,cs),
(73.503,631.934,o),
(70.057,640.673,o),
(56.382,643.277,c),
(48.618,645.069,o),
(42.898,643.04,o),
(39.675,640.754,c),
(38.335,624.341,o),
(32.726,609.065,o),
(23.974,602.333,cs),
(11.047,592.389,o),
(-3.362,605.198,o),
(-8.334,631.051,cs)
);
},
{
closed = 1;
nodes = (
(103,290,ls),
(89.15,290,o),
(78,312.3,o),
(78,340,cs),
(78,367.7,o),
(89.15,390,o),
(103,390,cs),
(516,390,ls),
(529.85,390,o),
(541,367.7,o),
(541,340,cs),
(541,312.3,o),
(529.85,290,o),
(516,290,cs)
);
}
);
width = 572;
}
);
unicode = 55;
},
{
glyphname = eight;
layers = (
{
layerId = "0F7E5E12-47E7-4249-B9AE-11F637CCDB2F";
shapes = (
{
closed = 1;
nodes = (
(471.895,83.566,o),
(366.152,1,o),
(247,1,cs),
(126.89,1,o),
(23.063,83.546,o),
(25,194.881,cs),
(27.911,288.039,o),
(97.612,359,o),
(193,359,cs),
(211.531,359,o),
(227,375.114,o),
(227,393,cs),
(227,410.783,o),
(211.725,426,o),
(193,426,cs),
(121.312,426,o),
(63.537,467.375,o),
(52.945,535.736,cs),
(39.586,629.25,o),
(135.498,700,o),
(247,700,cs),
(355.304,700,o),
(454.624,630.922,o),
(440.058,535.761,cs),
(429.445,467.259,o),
(371.57,426,o),
(300,426,cs),
(281.512,426,o),
(266,410.915,o),
(266,393,cs),
(266,375.57,o),
(281.051,359,o),
(300,359,cs),
(396.3,359,o),
(466.075,288.149,o),
(468.002,194.861,cs)
);
},
{
closed = 1;
nodes = (
(475.943,293.785,o),
(401.76,369,o),
(300,369,cs),
(286.872,369,o),
(276,380.65,o),
(276,393,cs),
(276,405.126,o),
(286.647,416,o),
(300,416,cs),
(375.968,416,o),
(438.492,460.336,o),
(449.942,534.244,cs),
(465.663,636.95,o),
(360.078,710,o),
(247,710,cs),
(132.874,710,o),
(28.387,636.933,o),
(43.059,534.234,cs),
(54.508,460.336,o),
(117.032,416,o),
(193,416,cs),
(206.353,416,o),
(217,405.126,o),
(217,393,cs),
(217,380.65,o),
(206.128,369,o),
(193,369,cs),
(92.3,369,o),
(18.07,293.849,o),
(15.001,195.122,cs),
(12.916,76.453,o),
(123.118,-9,o),
(247,-9,cs),
(369.811,-9,o),
(482.127,76.423,o),
(477.999,195.104,cs)
);
}
);
width = 493;
},
{
layerId = "584B1CA6-921E-4923-A283-D75AE04BC333";
shapes = (
{
closed = 1;
nodes = (
(450.584,125.619,o),
(362.026,46,o),
(247,46,cs),
(128.186,46,o),
(43.861,128.114,o),
(44.983,192.629,cs),
(46.743,248.937,o),
(102.992,314,o),
(193,314,cs),
(195.254,314,o),
(247,319.908,o),
(247,393,cs),
(247,453.63,o),
(214.594,471,o),
(193,471,cs),
(107.938,471,o),
(74.589,532.293,o),
(71.959,549.267,cs),
(66.99,584.048,o),
(135.987,655,o),
(247,655,cs),
(355.325,655,o),
(426.567,585.383,o),
(421.108,549.717,cs),
(415.16,511.33,o),
(369.309,471,o),
(300,471,cs),
(299.333,471,o),
(246,467.338,o),
(246,393,cs),
(246,333.276,o),
(277.815,314,o),
(300,314,cs),
(389.368,314,o),
(447.019,250.775,o),
(448.035,192.224,c)
);
},
{
closed = 1;
nodes = (
(497.76,203.851,ls),
(492.451,324.931,o),
(413.157,381.111,o),
(388.124,393.421,c),
(421.034,411.833,o),
(458.059,450.357,o),
(468.892,520.283,cs),
(491.306,666.721,o),
(376.115,755,o),
(247,755,cs),
(118.755,755,o),
(2.92,668.578,o),
(24.041,520.733,cs),
(35.727,445.302,o),
(81.402,406.549,o),
(105.175,393.249,c),
(-1.084,340.725,o),
(-4.741,205.268,o),
(-4.972,197.429,cs),
(-8.012,38.447,o),
(115.88,-54,o),
(247,-54,cs),
(376.871,-54,o),
(503.508,38.389,o),
(497.94,198.47,cs)
);
}
);
width = 493;
}
);
unicode = 56;
},
{
glyphname = nine;
layers = (
{
layerId = "0F7E5E12-47E7-4249-B9AE-11F637CCDB2F";
shapes = (
{
closed = 1;
nodes = (
(460.709,283.651,o),
(457.838,282.346,o),
(455.244,283.318,cs),
(452.651,284.291,o),
(451.346,287.162,o),
(452.318,289.756,cs),
(458.267,305.619,o),
(457.808,320.388,o),
(444.871,326.476,cs),
(431.482,332.777,o),
(420.899,326.678,o),
(412.422,310.665,cs),
(320.86,136.801,o),
(37.023,254.985,o),
(36,476.96,cs),
(34.979,604.653,o),
(137.177,709.094,o),
(264.156,704.998,cs),
(395.346,700.898,o),
(492,583.181,o),
(492,449,cs),
(492,216.425,o),
(315.047,21.281,o),
(83.5,-1.975,cs),
(80.744,-2.252,o),
(78.302,-0.256,o),
(78.025,2.5,cs),
(77.748,5.256,o),
(79.744,7.698,o),
(82.5,7.975,cs),
(308.953,30.719,o),
(482,221.575,o),
(482,449,cs),
(482,578.819,o),
(388.654,691.102,o),
(263.839,695.003,cs),
(142.823,698.906,o),
(45.021,599.347,o),
(46,477.032,cs),
(46.977,264.94,o),
(317.207,151.326,o),
(403.581,315.339,cs),
(413.101,333.322,o),
(428.518,345.223,o),
(449.129,335.524,cs),
(470.192,325.612,o),
(467.733,302.381,o),
(461.682,286.244,cs)
);
}
);
width = 527;
},
{
layerId = "584B1CA6-921E-4923-A283-D75AE04BC333";
shapes = (
{
closed = 1;
nodes = (
(468.69,235.84,o),
(453.08,231.38,o),
(442,248,cs),
(435.515,257.727,o),
(432.206,272.374,o),
(432.127,283.517,c),
(430.032,282.953,o),
(427.419,280.906,o),
(425.19,276.695,cs),
(323.062,82.768,o),
(17.246,206.44,o),
(16.002,476.37,cs),
(14.713,637.563,o),
(127.589,754.407,o),
(264.397,749.994,cs),
(406.737,745.546,o),
(512,612.485,o),
(512,449,cs),
(512,185.651,o),
(326.457,-22.611,o),
(84.254,-46.937,cs),
(70.421,-48.326,o),
(58.726,-27.173,o),
(58.032,0.492,cs),
(57.337,28.157,o),
(67.914,51.548,o),
(81.746,52.937,cs),
(302.86,75.145,o),
(462,258.383,o),
(462,449,cs),
(462,545.217,o),
(380.148,646.364,o),
(263.603,650.006,cs),
(148.186,653.729,o),
(65.331,561.027,o),
(65.998,477.63,cs),
(66.744,315.699,o),
(314.232,203.892,o),
(390.834,349.351,cs),
(406.186,378.349,o),
(427.874,391.366,o),
(452.726,379.671,cs),
(478.249,367.66,o),
(502.065,324.841,o),
(477,258,cs)
);
}
);
width = 527;
}
);
unicode = 57;
},
{
glyphname = AE;
leftMetricsKey = A;
rightMetricsKey = E;
layers = (
{
layerId = "0F7E5E12-47E7-4249-B9AE-11F637CCDB2F";
shapes = (
{
closed = 1;
nodes = (
(33.929,-5.946,o),
(30.876,-6.738,o),
(28.488,-5.333,cs),
(26.101,-3.929,o),
(25.309,-0.876,o),
(26.713,1.512,cs),
(36.873,18.783,o),
(45.939,35.923,o),
(52.988,54.049,c),
(111.002,194.504,o),
(79.082,351.591,o),
(105.919,503.322,cs),
(125.413,612.08,o),
(183.531,719.263,o),
(296.058,719.263,cs),
(408.577,719.263,o),
(469.772,609.033,o),
(488.251,500.207,cs),
(488.715,497.476,o),
(486.89,494.904,o),
(484.159,494.44,cs),
(481.428,493.977,o),
(478.856,495.802,o),
(478.392,498.533,cs),
(460.034,606.646,o),
(400.479,709.263,o),
(296.058,709.263,cs),
(191.644,709.263,o),
(135.153,609.739,o),
(115.763,501.563,cs),
(89.387,352.439,o),
(120.912,192.304,o),
(62.27,50.328,c),
(55.091,31.868,o),
(45.846,14.314,o),
(35.333,-3.558,cs)
);
},
{
closed = 1;
nodes = (
(884.363,596.641,o),
(744.015,549.498,o),
(652.956,626.632,cs),
(614.504,658.674,o),
(593.245,709.53,o),
(544.079,709.53,cs),
(487.908,709.53,o),
(476.447,643.752,o),
(480.569,575.727,cs),
(488.765,411.805,o),
(560.584,249.319,o),
(520.929,86.526,c),
(513.584,52.944,o),
(496.24,17.858,o),
(461.838,12.124,cs),
(431.852,7.511,o),
(403.476,28.057,o),
(400.036,59.021,cs),
(386.153,167.104,o),
(513.772,141.255,o),
(680.745,29.522,cs),
(768.325,-28.865,o),
(894.374,11.42,o),
(929.615,111.101,cs),
(930.538,113.712,o),
(933.384,115.071,o),
(935.996,114.148,cs),
(938.607,113.225,o),
(939.966,110.379,o),
(939.043,107.767,cs),
(901.604,1.871,o),
(768.14,-40.76,o),
(675.191,21.207,cs),
(638.757,45.587,o),
(391.851,201.229,o),
(409.969,60.167,cs),
(412.756,35.087,o),
(435.994,18.266,o),
(460.256,21.998,cs),
(488.879,26.769,o),
(504.39,57.66,o),
(511.183,88.764,c),
(550.287,249.189,o),
(478.88,409.26,o),
(470.585,575.175,cs),
(466.42,643.898,o),
(478.579,719.53,o),
(544.079,719.53,cs),
(597.472,719.53,o),
(625.264,662.725,o),
(659.404,634.275,cs),
(744.718,562.009,o),
(876.34,606.105,o),
(902.48,715.69,cs),
(903.123,718.385,o),
(905.81,720.036,o),
(908.504,719.394,cs),
(911.199,718.751,o),
(912.85,716.064,o),
(912.208,713.37,cs)
);
},
{
closed = 1;
nodes = (
(50.038,320.317,ls),
(47.268,320.317,o),
(45.038,322.547,o),
(45.038,325.317,cs),
(45.038,328.087,o),
(47.268,330.317,o),
(50.038,330.317,cs),
(841.956,330.317,ls),
(844.726,330.317,o),
(846.956,328.087,o),
(846.956,325.317,cs),
(846.956,322.547,o),
(844.726,320.317,o),
(841.956,320.317,cs)
);
}
);
width = 976;
},
{
layerId = "584B1CA6-921E-4923-A283-D75AE04BC333";
shapes = (
{
closed = 1;
nodes = (
(36.662,-57.06,o),
(20.945,-54.511,o),
(11.975,-33.406,cs),
(3.005,-12.3,o),
(4.279,19.134,o),
(14.832,37.074,cs),
(24.461,53.443,o),
(32.22,68.274,o),
(38.125,83.459,c),
(92.28,214.57,o),
(57.041,348.196,o),
(87.307,519.313,cs),
(110.807,650.422,o),
(178.584,764.263,o),
(296.058,764.263,cs),
(413.282,764.263,o),
(484.542,647.67,o),
(506.994,515.449,cs),
(511.448,489.22,o),
(504.476,460.933,o),
(491.361,452.026,cs),
(478.247,443.118,o),
(464.104,457.063,o),
(459.65,483.291,cs),
(445.264,568.01,o),
(395.774,664.263,o),
(296.058,664.263,cs),
(196.592,664.263,o),
(149.759,571.398,o),
(134.392,485.666,cs),
(111.195,354.515,o),
(139.556,172.048,o),
(77.133,20.918,c),
(69.279,0.722,o),
(58.778,-19.462,o),
(47.215,-39.12,cs)
);
},
{
closed = 1;
nodes = (
(893.685,541.147,o),
(737.812,507.005,o),
(646.489,584.362,cs),
(604.122,619.668,o),
(594.14,664.529,o),
(544.079,664.529,cs),
(502.168,664.529,o),
(497.629,627.117,o),
(500.395,581.466,c),
(500.424,580.946,l),
(507.594,437.554,o),
(582.172,244.951,o),
(538.744,66.668,c),
(538.959,67.597,l),
(528.038,17.668,o),
(503.471,-26.042,o),
(463.044,-32.78,cs),
(428.994,-38.018,o),
(387.85,-16.454,o),
(380.691,47.97,cs),
(354.823,249.361,o),
(544.867,167.155,o),
(685.874,72.798,cs),
(772.46,15.074,o),
(887.275,62.944,o),
(913.916,138.3,cs),
(921.913,160.917,o),
(937.454,166.251,o),
(948.762,150.258,cs),
(960.071,134.266,o),
(962.738,103.184,o),
(954.742,80.566,cs),
(909.853,-46.404,o),
(767.12,-86.776,o),
(670.049,-22.062,cs),
(574.339,41.985,o),
(476.741,85.356,o),
(436.775,70.631,c),
(439.194,69.214,o),
(448.023,65.204,o),
(459.05,66.9,cs),
(481.672,70.671,o),
(490.17,94,o),
(493.366,108.608,c),
(526.728,245.57,o),
(459.092,402.712,o),
(450.73,569.956,cs),
(446.049,647.209,o),
(458.234,764.53,o),
(544.079,764.53,cs),
(602.842,764.53,o),
(635.493,701.858,o),
(665.855,676.557,cs),
(745.286,609.274,o),
(862.608,654.79,o),
(884.065,733.267,cs),
(884.78,736.059,ls),
(890.744,761.06,o),
(905.608,771.585,o),
(918.109,759.658,cs),
(930.609,747.73,o),
(935.871,718.001,o),
(929.908,693,cs)
);
},
{
closed = 1;
nodes = (
(50.038,275.317,ls),
(36.188,275.317,o),
(25.038,297.617,o),
(25.038,325.317,cs),
(25.038,353.017,o),
(36.188,375.317,o),
(50.038,375.317,cs),
(841.956,375.317,ls),
(855.806,375.317,o),
(866.956,353.017,o),
(866.956,325.317,cs),
(866.956,297.617,o),
(855.806,275.317,o),
(841.956,275.317,cs)
);
}
);
width = 976;
}
);
unicode = 198;
},
{
glyphname = Oslash;
leftMetricsKey = O;
rightMetricsKey = O;
layers = (
{
layerId = "0F7E5E12-47E7-4249-B9AE-11F637CCDB2F";
shapes = (
{
closed = 1;
nodes = (
(54.113,-2.844,ls),
(52.537,-5.122,o),
(49.435,-5.688,o),
(47.156,-4.113,cs),
(44.878,-2.537,o),
(44.312,0.565,o),
(45.887,2.844,cs),
(529.887,702.844,ls),
(531.463,705.122,o),
(534.565,705.688,o),
(536.844,704.113,cs),
(539.122,702.537,o),
(539.688,699.435,o),
(538.113,697.156,cs)
);
},
{
alignment = -1;
ref = O;
}
);
width = 593;
},
{
layerId = "584B1CA6-921E-4923-A283-D75AE04BC333";
shapes = (
{
closed = 1;
nodes = (
(64.649,-40.516,ls),
(53.426,-56.748,o),
(37.858,-51.745,o),
(29.742,-29.299,cs),
(21.626,-6.853,o),
(24.128,24.285,o),
(35.351,40.516,cs),
(519.351,740.516,ls),
(530.574,756.748,o),
(546.142,751.745,o),
(554.258,729.299,cs),
(562.374,706.853,o),
(559.873,675.715,o),
(548.649,659.484,cs)
);
},
{
alignment = -1;
ref = O;
}
);
width = 593;
}
);
unicode = 216;
},
